<svg preserveAspectRatio="none" width="100%" height="100%" overflow="visible" style="display: block;" viewBox="0 0 118.679 120" fill="none" xmlns="http://www.w3.org/2000/svg">
<g id="Illustration">
<path id="Vector" d="M46.2893 13.9845C46.535 13.9663 46.7825 13.9525 47.0291 13.943C51.5207 13.743 53.2469 14.8674 54.7137 18.8564C55.0004 19.6356 55.0224 20.6742 55.1776 21.5027C55.8051 24.8453 55.8772 28.2299 56.1923 31.5985C56.701 36.3495 57.6034 40.5661 57.8162 45.356C61.4712 45.5671 65.1509 45.4937 68.8142 45.7039C73.5378 45.975 88.9042 47.2304 91.9547 50.435C93.8735 52.4506 93.8315 57.1489 93.5648 59.6999C94.4316 59.5044 95.3038 59.3274 96.1796 59.1691C96.4417 57.3608 96.9998 55.2233 97.314 53.3455C97.9149 50.0807 98.525 46.7996 99.4073 43.5833C99.7324 42.4003 100.227 41.3622 101.704 41.092C103.9 40.6903 106.135 40.4788 108.359 40.2308C110.264 40.0186 112.179 39.7529 114.092 39.6588C117.822 39.5503 118.708 41.2229 118.678 44.1734C118.658 46.0936 118.45 47.8992 118.256 49.7843C117.926 53.2345 117.455 56.6732 116.842 60.0933C115.997 64.7638 114.912 69.0585 113.817 73.6644C112.564 79.1928 111.26 84.7131 109.905 90.223C108.432 96.4397 107.356 102.732 105.655 108.907C105.236 110.429 104.667 112.124 102.426 111.272C99.6392 110.209 96.6043 109.154 93.7064 108.377C88.9389 107.099 89.4011 105.983 90.0038 102.127C90.7436 97.3858 91.4222 92.62 92.2268 87.8898C91.656 87.7856 90.8605 87.7048 90.2678 87.6288C90.1299 88.3495 89.8458 89.096 89.7289 89.8021C89.1992 92.9957 87.548 97.8188 83.5979 98.8125C81.364 99.374 78.0441 99.4661 75.7462 99.2932C72.4419 99.0912 69.1092 98.4546 65.8195 98.1492C56.6517 97.2985 47.6711 96.1101 38.6052 94.6486C32.3988 93.6476 26.0397 93.1548 19.8498 91.8994C20.6771 92.4253 21.1617 92.8454 21.8707 93.4869C22.7761 93.2485 23.7274 93.1783 24.6651 93.28C28.7724 93.7389 30.9332 97.5118 30.3772 100.894C30.0781 102.752 28.9464 104.425 27.2373 105.536C21.5469 109.199 15.0806 103.841 16.183 98.4053C16.5098 96.7936 17.4211 95.9114 18.8543 95.0267C18.35 93.9942 17.6292 92.4261 19.1057 91.8113L6.14308 89.4773C5.32932 92.5982 4.22523 95.9445 2.35897 98.722C2.0816 99.1349 1.55709 99.9468 1.00262 100.073C0.21325 100.253 -0.289339 99.4855 0.182841 98.9183C3.30288 94.908 4.27436 89.9685 5.41892 85.3021C7.30271 77.3322 7.74484 69.0925 8.00787 60.9626L8.13464 56.3436C8.1529 55.5008 8.21154 54.4415 8.12532 53.6189C7.89891 53.3715 7.76155 53.276 7.72922 52.9613C7.81023 52.6215 7.90394 52.5766 8.18496 52.3093C8.26634 46.4649 8.12651 40.6197 7.76575 34.7834C7.40491 29.2161 6.71243 23.7363 6.08572 18.1927C6.03531 17.747 5.86297 16.4919 6.54073 16.3406C8.25154 15.9587 7.60483 18.4747 8.01162 19.4293C8.50444 19.6598 11.0868 18.8096 11.8963 18.7625C15.4416 18.5565 18.8606 17.4862 22.3378 17.025C30.295 15.9694 38.2786 14.6691 46.2893 13.9845Z" fill="var(--fill-0, #3E4143)"/>
<path id="Vector_2" d="M57.9625 46.914C64.4278 47.6454 70.8428 47.6967 77.3456 48.3334C81.102 48.7014 88.1865 49.6072 90.7639 52.265C92.6097 54.1686 91.4288 58.7881 91.4461 61.0793C91.4489 61.4582 91.3603 62.0358 91.3338 62.4285C90.8726 65.0493 90.4314 67.6588 90.3602 70.3167C90.2734 75.6214 89.4615 80.8792 88.7226 86.1361C88.4085 87.8109 88.0614 89.4873 87.5655 91.1338C87.0285 92.9192 86.2668 95.41 84.4648 96.5394C83.5396 97.1195 81.8354 97.6438 80.7011 97.6268C78.1986 97.5897 75.6715 97.2568 73.1973 96.9337L63.6661 95.6685C53.5311 94.3282 43.0865 93.0711 33.0034 91.4618L19.066 89.3031C16.7667 88.9476 8.47126 87.8618 6.75005 87.007C7.76318 83.3618 8.68178 77.5078 8.95924 73.7786C11.3117 74.2504 15.4966 74.3966 17.4495 72.9327C18.5765 72.0885 19.0863 68.9934 19.061 67.7113C19.0235 65.82 19.5662 62.0948 19.091 60.3764C18.9693 59.9377 18.726 59.533 18.3829 59.1985C16.5577 57.4139 12.4094 57.5202 9.81465 57.4184L9.87182 53.7719C15.7858 53.9125 21.3087 54.8206 27.1093 55.575C32.1094 56.2099 37.1215 56.7677 42.1431 57.2482C46.2539 57.667 53.8288 59.3544 57.2391 56.3932C58.5762 55.2326 58.0474 52.8311 58.03 51.3525C58.0127 49.9003 58.0364 48.3971 57.9625 46.914Z" fill="var(--fill-0, #FAF7EF)"/>
<path id="Vector_3" d="M76.4925 53.7866C78.2534 53.689 83.9689 54.7229 85.6685 55.5686C86.6129 56.038 86.8047 56.8672 87.0458 57.7147C86.7554 58.5845 85.801 60.0791 84.6045 59.9555C82.65 59.6986 75.8916 58.9634 74.6148 58.2274C74.1508 57.96 73.8604 57.5162 73.7782 57.036C73.6403 56.2381 73.9426 55.4045 74.4759 54.763C74.9956 54.1377 75.6523 53.9121 76.4925 53.7866Z" fill="var(--fill-0, #3E4143)"/>
<path id="Vector_4" d="M76.3665 55.3114C78.321 55.1691 82.9469 56.1092 84.8456 56.9255C85.5388 57.2239 85.1132 58.3786 84.5114 58.419L79.2717 57.6835C78.4781 57.5726 76.0085 57.3454 75.5089 56.835C75.2614 56.2519 75.8076 55.5951 76.3665 55.3114Z" fill="var(--fill-0, #FAF7EF)"/>
<path id="Vector_5" d="M74.1884 75.1307C74.3016 75.1331 74.4149 75.1364 74.5281 75.1404C76.6433 75.2147 82.0072 75.5944 83.3918 77.0422C84.2229 77.9115 84.1124 78.9973 84.0585 80.0403C83.4082 80.9419 82.915 81.3588 81.7478 80.8506C79.2919 80.689 71.7261 80.9169 71.4128 77.7063C71.2457 75.9887 72.3398 75.2543 74.1884 75.1307Z" fill="var(--fill-0, #3E4143)"/>
<path id="Vector_6" d="M73.7935 76.6626C75.906 76.602 79.9163 77.0003 81.8662 77.8535C82.1959 77.9981 82.7074 79.0201 82.2142 79.3739L81.8817 79.34C79.466 79.2027 77.1225 79.1122 74.7461 78.6848C73.4236 78.4473 72.2363 77.1296 73.7935 76.6626Z" fill="var(--fill-0, #FAF7EF)"/>
<path id="Vector_7" d="M75.3204 64.1241C77.1032 64.0595 78.981 64.4521 80.7035 64.722C83.0196 65.0847 85.438 65.836 85.5157 68.2815C85.5358 68.9133 84.722 69.0297 84.3229 69.373C83.753 69.8626 83.9265 69.848 83.0835 69.8626C81.172 69.8287 79.433 69.6687 77.4603 69.4667C74.6099 69.1743 70.974 68.6314 73.2344 65.2422C73.7103 64.5281 74.4053 64.276 75.3204 64.1241Z" fill="var(--fill-0, #3E4143)"/>
<path id="Vector_8" d="M75.2038 65.6582C77.0314 65.4878 79.7786 66.13 81.6098 66.4613C82.5094 66.6237 84.0949 67.2029 83.5688 68.2467C83.3131 68.4228 83.3725 68.3639 82.9606 68.3615C81.376 68.3033 79.795 68.191 78.2205 68.0262C77.2323 67.9203 75.002 67.8048 74.3426 67.0882C73.9334 66.6431 74.7609 65.8941 75.2038 65.6582Z" fill="var(--fill-0, #FAF7EF)"/>
<path id="Vector_9" d="M36.4259 83.6032C38.9653 83.4255 43.439 84.5355 45.9012 85.3087C47.0137 85.6577 48.4348 87.3607 47.6466 88.4053C46.968 88.7026 47.1205 88.6946 47.0429 89.3296C46.8264 89.601 46.7652 89.6026 46.4091 89.7472C44.5998 89.5986 42.7239 89.2981 40.8831 88.9943C38.6206 88.6202 34.4993 87.9182 34.7088 85.1956C34.7824 84.239 35.4683 83.8633 36.4259 83.6032Z" fill="var(--fill-0, #3E4143)"/>
<path id="Vector_10" d="M36.4573 85.1251C38.2404 84.9797 43.8756 86.0081 45.6291 86.9211C46.01 87.1198 46.2045 87.8097 46.2438 88.2145C44.5122 88.0578 36.0339 87.3339 36.4573 85.1251Z" fill="var(--fill-0, #FAF7EF)"/>
<path id="Vector_11" d="M72.58 87.565C74.4505 87.4898 79.2956 87.9261 80.7103 89.0418C81.8017 89.9022 82.0017 90.6956 82.1634 91.8735C81.419 92.7888 80.9085 93.1936 79.5714 93.2687C77.005 93.1281 72.8787 93.0457 70.6575 91.7886C69.3652 91.0575 69.5542 89.331 70.4365 88.4019C71.0338 87.7726 71.6987 87.6667 72.58 87.565Z" fill="var(--fill-0, #3E4143)"/>
<path id="Vector_12" d="M72.2401 89.1042C73.8895 89.0145 80.6498 89.1963 80.3201 91.4996C80.0607 91.7007 80.0717 91.7209 79.7182 91.7524C77.6551 91.6587 75.5517 91.5238 73.5178 91.1877C72.9607 91.0843 71.7779 90.8718 71.524 90.3524C71.2391 89.7682 71.7149 89.3312 72.2401 89.1042Z" fill="var(--fill-0, #FAF7EF)"/>
<path id="Vector_13" d="M39.8243 71.8097C42.0617 71.7887 44.9395 72.6928 47.1588 73.2211C48.4375 73.5249 50.1134 74.8046 49.6412 76.2233C49.5152 76.6054 48.4667 77.3923 48.0064 77.5313C46.2674 77.4521 44.5385 77.3244 42.7923 77.1208C41.0374 76.9164 38.4797 76.6296 37.9104 74.8232C37.6861 74.1114 37.8518 73.2389 38.2674 72.6096C38.6158 72.082 39.1917 71.9245 39.8243 71.8097Z" fill="var(--fill-0, #3E4143)"/>
<path id="Vector_14" d="M39.7317 73.3284C41.6803 73.2654 44.6458 74.1985 46.5555 74.6388C47.1912 74.785 48.2397 75.2972 47.899 76.0162C45.7098 75.9347 43.0393 75.7117 40.8844 75.2843C39.7507 75.0597 39.2453 74.3326 39.7317 73.3284Z" fill="var(--fill-0, #FAF7EF)"/>
<path id="Vector_15" d="M57.8353 73.6555C59.4317 73.5771 61.272 73.9625 62.8502 74.1895C63.9078 74.3406 65.0504 74.5547 65.9792 75.0386C67.351 75.7528 67.5903 77.1989 66.7537 78.3429C66.3929 78.8397 65.8112 78.9262 65.2084 79.0223C63.2429 78.9739 58.9705 78.7048 57.1768 78.0383C55.3136 77.3468 55.1693 74.1976 57.8353 73.6555Z" fill="var(--fill-0, #3E4143)"/>
<path id="Vector_16" d="M57.8046 75.1801C59.5618 75.0775 61.8149 75.5751 63.5648 75.8539C64.8334 76.0558 65.7239 76.2732 65.3841 77.527C63.5456 77.4567 61.6505 77.2224 59.8157 77.0899C58.5188 76.9962 56.8383 76.6957 57.8046 75.1801Z" fill="var(--fill-0, #FAF7EF)"/>
<path id="Vector_17" d="M42.1933 61.7802C44.3615 61.6526 50.0249 61.9547 50.7309 64.5998C50.7976 64.851 50.7811 65.2251 50.6085 65.4473C49.6386 65.9611 50.4569 66.0782 50.087 66.7803C49.6194 67.059 49.065 66.9734 48.5298 66.9201C46.2886 66.7278 40.2223 66.916 39.6004 64.6765C39.1743 63.1415 40.5695 62.0468 42.1933 61.7802Z" fill="var(--fill-0, #3E4143)"/>
<path id="Vector_18" d="M42.8774 63.2522C44.251 63.2821 46.1544 63.4114 47.4449 63.8121C48.57 64.1611 48.8733 64.62 49.3272 65.4796L47.8431 65.3422C46.0301 65.154 44.0821 65.1524 42.2801 64.843C41.8454 64.7686 41.4855 64.586 41.3019 64.2168C41.2672 63.3241 42.1358 63.3104 42.8774 63.2522Z" fill="var(--fill-0, #FAF7EF)"/>
<path id="Vector_19" d="M59.6439 62.9309C61.2513 62.8574 64.5026 63.2314 66.0516 63.7598C67.3312 64.196 67.9166 64.8852 68.4226 65.9476C68.2499 67.0431 67.5348 68.2307 66.1274 68.263C64.3583 68.0433 59.7461 67.7556 58.3451 66.9284C56.6491 65.9266 56.713 63.2088 59.6439 62.9309Z" fill="var(--fill-0, #3E4143)"/>
<path id="Vector_20" d="M59.3226 64.4486C60.7529 64.3953 66.2994 64.6239 66.5953 66.1606C66.4702 66.5298 66.4985 66.4215 66.1395 66.7237C65.26 66.6469 56.8887 66.1913 59.3226 64.4486Z" fill="var(--fill-0, #FAF7EF)"/>
<path id="Vector_21" d="M56.2199 86.2666C58.4758 86.1301 67.2526 86.6609 64.7639 90.3158C64.3794 90.8805 63.3811 90.9581 62.7254 91.0065C61.8157 91.03 60.791 90.9395 59.8832 90.887C57.5469 90.7521 52.047 90.4911 54.228 87.1682C54.6298 86.5567 55.4984 86.3717 56.2199 86.2666Z" fill="var(--fill-0, #3E4143)"/>
<path id="Vector_22" d="M55.9958 87.8036C57.1932 87.7196 63.242 87.9434 63.4448 89.2667C63.3087 89.5228 63.411 89.4138 63.0776 89.5616C61.3067 89.3588 57.3859 89.4897 55.72 88.6681C55.52 88.5695 55.5236 88.3885 55.5099 88.2221C55.6296 87.9684 55.7301 87.9458 55.9958 87.8036Z" fill="var(--fill-0, #FAF7EF)"/>
<path id="Vector_23" d="M24.2489 70.8222C26.1818 70.6647 29.7022 71.181 31.6233 71.6681C32.4433 71.9097 33.1742 72.2805 33.5624 72.989C34.1927 74.1395 33.2677 75.5242 31.9368 75.7973C30.3625 75.6211 28.8323 75.4596 27.2064 75.2616C25.5334 75.0475 22.3462 74.8399 22.2611 72.8339C22.2109 71.6503 23.0887 71.084 24.2489 70.8222Z" fill="var(--fill-0, #3E4143)"/>
<path id="Vector_24" d="M24.5745 72.294C25.893 72.2439 31.5821 72.6592 32.0487 73.8121C32.0144 74.1473 32.091 74.0173 31.8646 74.2362L31.6335 74.2411C30.4354 74.132 23.8882 73.6852 23.9865 72.5865C24.1944 72.3845 24.285 72.3797 24.5745 72.294Z" fill="var(--fill-0, #FAF7EF)"/>
<path id="Vector_25" d="M22.6991 81.8146C23.0971 81.7936 23.4961 81.792 23.8943 81.8106C25.8376 81.9116 27.8754 82.2678 29.7553 82.7057C31.0219 83.0014 32.7781 84.8555 31.5051 85.7507C31.1598 85.8492 31.0961 85.8129 30.7196 85.7418L30.6059 85.7192C30.685 86.3711 30.6978 86.3283 30.1789 86.7945C28.5362 86.9803 23.6861 86.4253 22.1246 85.7927C20.096 84.9711 19.9556 82.3713 22.6991 81.8146Z" fill="var(--fill-0, #3E4143)"/>
<path id="Vector_26" d="M22.629 83.3495C24.3252 83.1838 27.7024 83.7582 29.4421 84.2002C29.9528 84.3302 30.1934 85.0097 30.3458 85.4362L30.2398 85.4314C28.8329 85.1381 22.7941 85.2262 22.3488 83.8786C22.3801 83.5765 22.4138 83.5781 22.629 83.3495Z" fill="var(--fill-0, #FAF7EF)"/>
<path id="Vector_27" d="M61.1252 52.2504C62.7719 52.1351 67.1201 52.4092 68.4481 53.2121C70.0226 54.1646 69.5404 56.9357 66.9932 57.1741C64.9839 57.1722 62.1426 56.8025 60.147 56.4548C59.3607 56.3179 58.9479 55.6637 58.5807 55.093C58.884 53.54 59.3342 52.6999 61.1252 52.2504Z" fill="var(--fill-0, #3E4143)"/>
<path id="Vector_28" d="M61.7463 53.7128C62.7409 53.6852 67.1055 53.9468 67.5796 54.6394C67.6161 55.029 67.5092 55.2441 67.3841 55.6184C67.0818 55.6402 66.7777 55.6479 66.4754 55.659C65.5748 55.6259 60.9298 55.2529 60.4284 54.8335C60.3663 54.095 61.0567 53.8073 61.7463 53.7128Z" fill="var(--fill-0, #FAF7EF)"/>
<path id="Vector_29" d="M26.0899 60.0152C27.5678 59.961 29.0335 60.1436 30.4611 60.3359C32.3252 60.5872 34.2959 61.1293 34.2988 63.1078C34.2995 63.658 33.4561 63.9957 33.1131 64.381C32.8377 64.6897 32.187 64.5976 31.7751 64.5887C29.8334 64.5087 23.8935 64.5402 23.4969 62.2692C23.2382 60.7883 24.586 60.163 26.0899 60.0152Z" fill="var(--fill-0, #3E4143)"/>
<path id="Vector_30" d="M25.8542 61.5438C27.0801 61.4727 32.3149 61.6076 32.5695 62.9374C32.3728 63.1281 32.4414 63.0667 32.0439 63.0844C31.0938 63.0699 25.1277 62.8808 25.2025 61.8572C25.4054 61.652 25.5628 61.6326 25.8542 61.5438Z" fill="var(--fill-0, #FAF7EF)"/>
<path id="Vector_31" d="M46.3011 16.4752C48.3761 16.3895 50.6037 16.4649 52.2339 17.723C53.4715 20.4348 53.4212 22.5641 53.6112 25.3758C53.7208 27.0874 53.8697 28.7969 54.0578 30.5032C54.1528 31.3371 54.2432 32.2831 54.3985 33.0934C55.6945 39.8596 56.6927 46.6258 55.7693 53.4903C55.5301 55.3134 54.477 55.9759 52.4842 56.1399C47.8007 56.5256 43.4169 55.8224 38.8687 55.0116C37.0229 54.6823 35.1645 54.411 33.2969 54.1984C29.0925 53.7228 24.8747 53.4787 20.6744 53.0703C19.3638 52.9429 16.8777 52.4375 15.5337 52.2032C13.6675 51.8739 11.7879 51.6073 9.89895 51.4041C9.92169 48.7468 9.90279 46.0894 9.84205 43.4326C11.5318 43.6338 15.0747 43.6155 15.9559 42.1073C17.7581 38.8898 16.5704 34.5296 16.0401 31.1811C15.5138 27.8567 11.9459 27.9312 8.94701 28.5341C8.80207 26.195 8.4014 23.4172 8.12102 21.0581C10.7765 20.9959 13.3976 20.1682 15.9557 19.8709C17.7129 19.6666 19.7153 19.5535 21.5043 19.392C24.5984 19.1145 27.6862 18.7842 30.7658 18.4013C35.6441 17.8016 41.5364 16.7563 46.3011 16.4752Z" fill="var(--fill-0, #FAF7EF)"/>
<path id="Vector_32" d="M41.2699 44.3546C45.3597 44.2317 49.0157 43.7956 49.4422 48.363C47.9928 50.2931 47.9179 50.4673 45.2227 50.3455C44.7186 50.3227 43.9149 50.3649 43.3852 50.3743C41.4453 50.387 39.4785 50.5468 37.5523 50.3303C36.1216 50.1695 35.272 49.2978 35.2417 48.0227C35.156 44.4026 38.24 44.4593 41.2699 44.3546Z" fill="var(--fill-0, #3E4143)"/>
<path id="Vector_33" d="M40.7217 45.8841C42.0646 45.775 45.6255 45.7004 46.8019 46.267C47.3973 46.554 47.5627 47.3959 47.706 47.9437L47.0896 48.7751C46.063 48.8316 44.9524 48.8351 43.9177 48.8552C42.608 48.888 38.1186 49.1524 37.2872 48.5829C37.0508 48.4188 36.9006 48.1763 36.8717 47.9117C36.8206 47.4685 37.0687 46.9096 37.3741 46.5655C37.993 45.8683 39.7246 45.9319 40.7217 45.8841Z" fill="var(--fill-0, #FAF7EF)"/>
<path id="Vector_34" d="M43.4921 20.3535C43.883 20.3195 44.515 20.2816 44.9141 20.3059C45.6329 20.3455 46.3014 20.6445 46.7627 21.1331C47.5234 21.9403 47.9362 23.6845 47.7846 24.6376C47.5317 26.2273 46.8942 26.0645 45.59 25.874C45.4813 25.858 43.4939 26.2357 43.2355 26.2791C41.7084 26.5455 40.1721 26.7643 38.6283 26.9351C37.4689 27.0174 36.3894 27.0563 35.3859 26.4174C34.0162 25.5455 33.4099 23.1468 34.4906 21.9366C34.7423 21.6547 35.0714 21.4343 35.4466 21.2969C36.9602 20.7331 41.6801 20.4964 43.4921 20.3535Z" fill="var(--fill-0, #3E4143)"/>
<path id="Vector_35" d="M43.2789 21.8874C45.8663 21.6897 45.7804 22.1424 46.1284 24.311C43.8853 24.4816 41.1783 25.1734 38.7099 25.3965C36.3856 25.6048 35.2481 25.1105 35.9009 22.8335C36.0487 22.3182 42.6058 21.941 43.2789 21.8874Z" fill="var(--fill-0, #FAF7EF)"/>
<path id="Vector_36" d="M44.4133 32.7161C45.4188 32.6869 46.0727 32.6424 46.9934 33.173C48.4428 33.8974 48.8529 37.3072 46.8929 37.5769C44.4388 37.9145 41.5802 38.3088 39.1115 38.4294C38.0215 38.462 37.0006 38.4389 36.106 37.7896C35.4704 37.3272 35.0774 36.6541 35.0191 35.928C34.9627 35.3477 35.1742 34.7719 35.6053 34.3317C37.0053 32.9053 42.2597 32.8307 44.4133 32.7161Z" fill="var(--fill-0, #3E4143)"/>
<path id="Vector_37" d="M43.9614 34.2502C44.6601 34.2073 45.293 34.1207 45.946 34.3501C46.3798 34.7107 46.7451 35.6342 46.367 36.1011C45.6802 36.2851 40.1938 36.856 39.3083 36.9051C38.8162 36.9485 37.5517 36.987 37.2239 36.6755C34.7431 34.3184 42.7522 34.3292 43.9614 34.2502Z" fill="var(--fill-0, #FAF7EF)"/>
<path id="Vector_38" d="M22.961 34.4123C26.6125 34.2701 27.7996 34.6733 28.8237 37.8895C28.2025 38.7853 28.5047 39.2148 27.0748 39.4169C25.9616 39.5742 24.8279 39.6622 23.7118 39.7673C22.3636 39.8647 19.959 40.1783 18.8548 39.3828C18.1774 38.8874 17.8296 38.125 17.7522 37.3656C17.4702 34.599 20.7501 34.5367 22.961 34.4123Z" fill="var(--fill-0, #3E4143)"/>
<path id="Vector_39" d="M22.5771 35.9457C22.9939 35.8978 23.4568 35.9113 23.8729 35.8886C25.9495 35.7752 26.4272 36.2985 27.0688 37.8881L23.8852 38.2364C23.2604 38.2858 20.2109 38.6237 19.8591 38.1442C18.3252 36.0527 21.0542 36.0575 22.5771 35.9457Z" fill="var(--fill-0, #FAF7EF)"/>
<path id="Vector_40" d="M19.6616 23.7468C21.4098 23.5408 24.8165 23.4919 26.1571 24.6456C26.5326 24.9689 27.8013 26.5042 26.8426 26.8859C25.9756 27.231 26.6593 27.6455 26.2335 27.9553C25.6495 28.3801 24.0053 28.3825 23.2456 28.4534C21.5816 28.6072 19.9167 28.8043 18.2408 28.805C16.6781 28.8057 15.7456 27.7546 15.6223 26.4368C15.4097 24.1641 17.6923 23.8821 19.6616 23.7468Z" fill="var(--fill-0, #3E4143)"/>
<path id="Vector_41" d="M19.4144 25.2808C20.3449 25.1674 23.1828 25.1164 24.0943 25.3526C25.0036 25.5881 25.2506 26.0245 25.6442 26.6909C24.9189 26.7824 24.1107 26.8451 23.3763 26.9162C21.9547 27.0557 16.1529 28.209 17.508 25.6946C18.0043 25.3556 18.7798 25.3431 19.4144 25.2808Z" fill="var(--fill-0, #FAF7EF)"/>
<path id="Vector_42" d="M19.8133 44.2633C21.2019 44.1988 26.4153 44.6184 27.6809 45.3769C28.4828 45.8574 28.7108 46.3205 28.9152 47.1107C28.7357 47.9104 27.9329 48.9381 27.0364 49.1543C24.5815 49.1809 21.9899 49.0707 19.5262 49.087C17.8268 49.0983 17.6086 47.8719 17.8399 46.657C18.0754 45.42 18.2017 44.553 19.8133 44.2633Z" fill="var(--fill-0, #3E4143)"/>
<path id="Vector_43" d="M19.8258 45.7692C21.6376 45.7682 25.2337 46.0269 26.9383 46.7534C27.2685 46.8942 27.1648 47.4466 26.8186 47.6372C24.3575 47.6356 21.9133 47.5878 19.4369 47.597C19.5 46.9439 19.5757 46.3862 19.8258 45.7692Z" fill="var(--fill-0, #FAF7EF)"/>
<path id="Vector_44" d="M113.543 41.196C115.447 41.0653 116.98 41.1797 116.954 43.3224C116.829 53.3199 114.601 63.0166 112.294 72.742L107.803 91.7914C106.859 95.9617 106.068 100.187 105.065 104.344C104.707 105.828 104.109 108.695 103.461 109.994C103.078 109.89 102.68 109.736 102.311 109.593C100.691 108.965 99.0613 108.414 97.3999 107.874C96.0866 107.494 92.1293 106.496 91.4123 105.707C91.3146 104.209 91.8699 101.152 92.1146 99.5334L93.9413 87.7988C94.4171 84.6763 94.8473 81.5481 95.2299 78.4159C96.1314 70.484 96.9725 62.813 98.7389 54.9644C99.6823 50.7718 100.058 46.8552 101.553 42.7212C103.02 42.2658 105.803 42.0443 107.432 41.8602C109.42 41.6355 111.553 41.3719 113.543 41.196Z" fill="var(--fill-0, #FAF7EF)"/>
<path id="Vector_45" d="M100.2 72.9149C100.832 72.8487 101.657 72.9004 102.316 72.9165C103.844 72.9981 105.371 72.8664 106.896 72.923C110.514 73.0579 107.99 77.4545 105.38 76.9657C104.648 76.8283 104.232 76.5294 103.789 76.0099L103.724 75.9324C103.634 75.8064 103.537 75.6949 103.437 75.5745C102.758 75.5769 100.327 77.4391 99.398 77.4892C98.777 77.6072 98.1505 76.7597 98.6135 76.405C99.5469 75.6892 101.053 75.03 102.074 74.4232C101.09 74.3942 98.5286 74.2891 100.2 72.9149Z" fill="var(--fill-0, #3E4143)"/>
<path id="Vector_46" d="M104.702 74.461C105.324 74.4683 106.401 74.2849 106.82 74.5418C106.859 74.823 106.8 74.789 106.596 75.1001C105.546 75.8635 105.221 75.2261 104.702 74.461Z" fill="var(--fill-0, #FAF7EF)"/>
<path id="Vector_47" d="M97.9358 87.2184C98.65 87.2297 102.17 87.4729 102.743 87.6167C107.108 88.7098 100.382 90.4815 99.23 90.8725C101.01 91.3629 103.274 91.922 104.952 92.6216C105.314 92.7719 105.413 93.0337 105.499 93.3552C105.293 93.6808 104.961 94.1187 104.45 93.9644C102.039 93.2348 99.5423 92.6354 97.1851 91.7879C96.7074 91.6166 96.3996 91.0866 96.5887 90.6439C96.88 90.0049 97.85 89.7286 98.5267 89.4894C99.0227 89.3133 99.5341 89.1558 100.037 88.9417L100.128 88.9029C99.2282 88.8455 95.7676 88.5781 97.9358 87.2184Z" fill="var(--fill-0, #3E4143)"/>
<path id="Vector_48" d="M105.595 44.5716C106.565 44.646 107.62 44.7677 108.601 44.9066C110.891 45.2311 113.146 44.6843 113.059 47.5082C113.028 48.5309 112.707 49.106 111.897 49.8012C109.087 51.2733 107.858 48.3401 107.698 46.3539C107.551 46.3291 106.649 46.1993 106.511 46.2057C105.37 46.2595 103.955 45.211 105.595 44.5716Z" fill="var(--fill-0, #3E4143)"/>
<path id="Vector_49" d="M109.422 46.55C110.136 46.5867 110.875 46.491 111.321 47.033C111.477 47.5266 111.282 47.94 111.084 48.4154L110.793 48.6085C109.725 48.7336 109.508 47.2465 109.422 46.55Z" fill="var(--fill-0, #FAF7EF)"/>
<path id="Vector_50" d="M97.1442 93.6752C98.2256 93.5863 97.9397 93.8828 98.453 94.4265C99.3362 94.5994 100.841 94.7933 101.737 94.8393C101.936 94.7545 102.111 94.685 102.314 94.6091C104.326 94.6826 102.351 97.7276 101.745 98.4135C97.821 101.967 95.3295 95.3669 97.1442 93.6752Z" fill="var(--fill-0, #3E4143)"/>
<path id="Vector_51" d="M98.3707 96.0083C99.3041 96.1198 100.274 96.2022 101.212 96.2935C101.005 96.6983 100.823 96.9511 100.563 97.3236C99.0593 98.6986 98.5533 97.1854 98.3707 96.0083Z" fill="var(--fill-0, #FAF7EF)"/>
<path id="Vector_52" d="M105.178 50.1563C106.242 50.2016 111.048 51.1756 111.621 52.0798C112.099 52.8348 111.848 55.5398 110.667 55.9844C109.322 55.879 110.104 53.6237 110.166 52.8196C109.753 52.6922 109.015 52.4281 108.619 52.4991L108.505 52.6553C108.288 53.257 107.976 54.2908 107.03 54.1835C106.105 53.7426 106.691 52.6434 106.959 52.0199C106.429 51.8867 105.904 51.7821 105.367 51.6719C105.114 52.378 104.746 54.4682 104.135 54.6174C102.082 55.1185 103.546 51.4343 104.037 50.7986C104.41 50.3146 104.673 50.2475 105.178 50.1563Z" fill="var(--fill-0, #3E4143)"/>
<path id="Vector_53" d="M101.052 81.5907C104.025 81.6626 106.63 82.3363 105.86 85.6051C105.749 86.0745 105.629 86.4259 105.164 86.6957C104.925 86.7434 104.82 86.7466 104.588 86.6247C103.566 86.0575 104.508 84.9127 104.207 84.0814C104.007 83.5296 103.122 83.1257 102.53 83.3179C102.366 83.5854 102.584 83.9384 102.384 84.6009C102.119 84.9418 101.759 85.2625 101.272 85.13C100.767 84.7277 100.723 83.8318 100.622 83.2089C99.1416 82.4947 99.0466 86.0042 97.8154 86.1747C96.6199 85.8216 97.0273 84.6219 97.3953 83.8641C98.1652 82.2798 99.1671 81.6916 101.052 81.5907Z" fill="var(--fill-0, #3E4143)"/>
<path id="Vector_54" d="M107.468 66.8492C109.299 66.8169 108.517 68.9142 108.677 70.0832C108.778 70.8095 108.744 72.3421 107.731 72.5255C106.644 72.2484 106.939 71.2926 106.92 70.488C106.908 69.9935 106.947 69.4668 106.96 68.9683C106.417 68.957 105.846 68.9279 105.3 68.9069C105.252 69.2309 105.198 69.4118 105.104 69.7301C104.77 70.0056 104.454 70.1309 104.014 69.9693C103.549 69.5734 103.561 69.3593 103.53 68.7825C102.984 68.7316 101.163 68.7316 100.883 68.486C98.5151 66.4016 106.113 67.4212 106.918 67.4769C107.106 67.1861 107.21 67.1013 107.468 66.8492Z" fill="var(--fill-0, #3E4143)"/>
<path id="Vector_55" d="M96.0393 98.9112C98.5135 99.0413 95.9142 101.302 96.2421 102.565C96.2896 102.619 96.3371 102.672 96.3846 102.725C98.118 102.421 100.093 101.103 101.363 102.972C102.047 103.979 102.13 105.145 100.873 105.784C99.1528 105.556 100.452 104.533 99.9191 103.725C99.8807 103.666 99.5601 103.477 99.4989 103.486C98.3801 103.658 97.3527 104.31 96.1754 104.231C93.7743 104.126 94.5497 101.672 95.0456 100.379C95.2804 99.7676 95.4557 99.341 96.0393 98.9112Z" fill="var(--fill-0, #3E4143)"/>
<path id="Vector_56" d="M109.635 56.0949C111.641 56.1739 110.353 58.4379 110.268 59.6401C110.216 60.3664 109.752 62.4354 108.69 62.3796C107.628 61.9409 108.213 60.7743 108.443 59.9769C107.832 59.8622 107.177 59.6934 106.57 59.5471C105.755 59.3371 104.013 59.0939 103.445 58.5219C103.301 58.3765 103.213 58.206 103.251 58.0089C103.284 57.8315 103.452 57.6288 103.618 57.5302C104.272 57.1414 107.821 58.2925 108.773 58.5025C108.91 57.5833 108.878 56.689 109.635 56.0949Z" fill="var(--fill-0, #3E4143)"/>
<path id="Vector_57" d="M98.9362 78.6468C100.534 78.6226 102.391 79.0394 103.993 79.1121C104.945 79.155 108.316 79.6397 106.128 80.8378C104.201 80.8483 101.377 80.3022 99.3819 80.143C98.4686 80.0695 97.7808 79.3303 98.9362 78.6468Z" fill="var(--fill-0, #3E4143)"/>
<path id="Vector_58" d="M20.2971 94.3069C20.5645 94.4515 20.9233 94.8231 21.1882 94.9314C21.8133 95.1794 22.5945 94.9152 23.2368 94.811C25.8213 94.3917 28.0301 96.2095 28.5679 98.356C29.2246 100.978 28.193 103.245 25.6144 104.662C21.2359 106.666 17.4813 102.789 17.7978 99.1276C17.9488 97.3793 18.9024 96.9261 20.3321 95.9041C21.1412 95.3256 20.2933 94.9508 20.2971 94.3069Z" fill="var(--fill-0, #FAF7EF)"/>
<path id="Vector_59" d="M24.0702 95.4817C26.9445 95.2733 27.5328 97.2171 25.9568 99.0979C27.6996 101.658 25.7112 104.673 22.3064 103.63C20.7384 102.881 20.0388 101.677 19.1961 100.342C18.71 99.5713 18.0428 98.6075 18.8793 97.8117C20.1576 96.5942 22.2055 95.6821 24.0702 95.4817Z" fill="var(--fill-0, #3E4143)"/>
<path id="Vector_60" d="M95.61 60.8101L95.7735 60.8182C95.6648 60.5742 92.6902 84.3933 92.4509 86.3678L91.0727 86.2135C90.7476 86.1545 90.712 86.2046 90.564 86.0285C90.6051 84.8571 91.0545 82.3833 91.2362 81.0931C91.6573 78.074 92.0445 75.0516 92.397 72.0253C92.6007 70.2592 92.7614 68.4899 92.8802 66.7182C92.9852 64.8681 92.9669 63.1465 93.3341 61.3166C94.0108 61.1356 94.9086 60.9636 95.61 60.8101Z" fill="var(--fill-0, #FAF7EF)"/>
<path id="Vector_61" d="M13.4977 67.2022C14.0074 67.1804 14.4428 67.5237 14.4763 67.9745C14.5097 68.4245 14.1291 68.8155 13.6204 68.8535C13.2833 68.8786 12.9573 68.7404 12.7676 68.4924C12.578 68.2452 12.5542 67.9261 12.7056 67.6586C12.8569 67.3904 13.1598 67.2159 13.4977 67.2022Z" fill="var(--fill-0, #FAF7EF)"/>
<path id="Vector_62" d="M13.4637 63.4574C14.7017 63.4049 15.5189 64.2475 14.2147 64.9068C12.88 64.9698 12.2387 64.1724 13.4637 63.4574Z" fill="var(--fill-0, #FAF7EF)"/>
<path id="Vector_63" d="M12.2581 33.7495C12.8074 33.7685 13.0119 33.7164 13.3531 34.1448C13.4623 34.732 13.1473 34.8601 12.5972 35.0732C11.232 35.1465 10.9554 34.0575 12.2581 33.7495Z" fill="var(--fill-0, #FAF7EF)"/>
<path id="Vector_64" d="M12.0328 36.3149C12.6265 36.2977 13.0812 36.2798 13.2539 36.8674C13.1803 37.1968 13.1613 37.2049 12.8971 37.4611C12.3282 37.4226 11.9111 37.3631 11.7022 36.8498C11.7591 36.5304 11.7846 36.5403 12.0328 36.3149Z" fill="var(--fill-0, #FAF7EF)"/>
<path id="Vector_65" d="M70.432 7.91014C74.2341 7.57058 78.8911 9.03045 81.3826 11.6319C85.6505 16.087 84.4878 24.4444 79.5176 28.1482C77.2334 29.8506 74.394 30.5364 71.4531 30.3121C68.4995 29.9334 65.8618 28.4724 64.1868 26.2872C63.8608 25.8544 63.1411 24.6642 62.7073 24.5403C61.4095 24.1737 58.8102 24.4766 57.7946 23.5675C56.4794 22.3901 60.2021 20.2241 61.0122 19.6631C61.0935 13.4901 62.4031 8.61858 70.432 7.91014Z" fill="var(--fill-0, #3E4143)"/>
<path id="Vector_66" d="M70.2702 9.44339C73.4485 9.03031 77.6634 10.2838 79.8316 12.3625C84.2484 16.598 82.5368 25.7674 76.3939 28.118C74.9162 28.6837 73.6038 28.911 72.0009 28.8452C71.8146 28.8306 71.6292 28.8115 71.4447 28.7876C69.0217 28.4675 66.8691 27.1104 65.4836 25.2781C64.5082 23.9866 64.3684 22.9057 62.4313 22.9067C61.592 22.9071 60.3636 22.7589 59.5644 22.6586C60.4448 21.9546 61.7217 21.1876 62.4724 20.4903C63.2377 17.7487 62.3107 14.4813 64.5849 11.9709C66.0416 10.363 68.0445 9.70814 70.2702 9.44339Z" fill="var(--fill-0, #FAF7EF)"/>
<path id="Vector_67" d="M73.3612 12.6753C73.5877 12.6829 73.8562 12.6908 74.0763 12.7329C74.7275 12.8562 75.2892 13.2169 75.6235 13.7262C76.26 14.6797 76.0892 15.8142 75.8025 16.8262C80.0877 18.4466 79.4119 23.7134 73.0306 22.4037C71.6378 22.1127 69.2394 21.1283 67.9891 20.4575C66.1305 19.4596 68.9901 15.8008 69.792 14.7956C70.624 13.7538 71.8816 12.8549 73.3612 12.6753Z" fill="var(--fill-0, #3E4143)"/>
<path id="Vector_68" d="M55.4242 98.9184C56.9658 99.0436 58.5815 102.179 59.4966 103.365C61.3269 103.813 62.959 104.743 64.1773 106.032C67.4004 109.461 67.1629 115.235 63.1325 118.118C60.7077 119.853 57.9613 120.192 54.9392 119.913C52.6642 119.632 50.8741 119.075 48.894 117.985C44.3887 115.504 42.405 110.034 45.3961 105.955C47.0619 103.683 49.948 102.925 52.8377 102.417C53.4441 101.274 54.173 99.4379 55.4242 98.9184Z" fill="var(--fill-0, #3E4143)"/>
<path id="Vector_69" d="M55.6216 100.835C56.2974 101.399 57.4071 103.692 58.2227 104.24C59.9452 105.371 61.6823 105.509 63.0385 107.156C66.0415 110.802 64.9546 116.51 59.8054 118.056C58.0884 118.572 56.628 118.595 54.8516 118.375C53.5091 118.202 52.2058 117.842 50.9902 117.309C48.6649 116.281 46.7387 114.558 46.0802 112.503C44.4829 107.515 47.8457 104.477 53.2689 103.88C54.2954 103.767 55.1247 101.696 55.6216 100.835Z" fill="var(--fill-0, #FAF7EF)"/>
<path id="Vector_70" d="M57.0866 106.301C58.1671 106.247 59.4841 106.417 60.1435 107.225C61.7993 109.257 60.1763 111.035 58.4748 112.234C59.5498 114.933 57.8227 117.534 54.5239 116.009C52.7347 114.91 50.6149 112.132 49.8158 110.356C49.0897 108.74 55.7285 106.491 57.0866 106.301Z" fill="var(--fill-0, #3E4143)"/>
<path id="Vector_71" d="M21.6801 0.0698486C23.3116 -0.125581 25.2595 0.0953778 26.775 0.653795C28.9268 1.43761 30.6408 2.94232 31.5433 4.83974C32.2309 6.32619 32.2368 7.84721 31.4743 9.29092C29.9881 12.1046 28.8154 12.926 25.7165 13.9966C25.4787 14.901 25.3884 15.6138 24.6491 16.285C23.1011 16.7531 22.478 15.3009 21.8011 14.3058C17.9552 13.8428 15.027 12.4081 14.4155 8.78688C13.6506 4.25733 16.6776 0.739271 21.6801 0.0698486Z" fill="var(--fill-0, #3E4143)"/>
<path id="Vector_72" d="M22.4382 1.52871C23.2754 1.46456 24.2982 1.56264 25.1102 1.75007C26.9794 2.16702 28.5824 3.22844 29.5615 4.69751C31.2429 7.24772 29.7654 10.2756 27.0873 11.8093C25.4529 12.7452 24.5163 12.1591 23.9074 14.1589C23.8389 14.2388 23.8863 14.2058 23.7511 14.2389C23.611 14.015 23.3029 13.5029 23.1015 13.3517C21.6238 12.3176 19.7134 12.8187 18.1515 11.7167C15.4154 9.78636 15.4005 5.92608 17.4916 3.60799C18.73 2.23521 20.4852 1.69319 22.4382 1.52871Z" fill="var(--fill-0, #FAF7EF)"/>
<path id="Vector_73" d="M23.0399 3.36471C25.9339 3.12573 26.0312 5.322 25.034 7.14316C28.2347 8.38117 28.1157 11.5604 24.5983 11.0989C23.3356 10.803 19.8773 9.35986 19.4602 8.17508C19.1164 7.19858 20.4063 5.0461 21.204 4.32255C21.8165 3.76696 22.2137 3.57105 23.0399 3.36471Z" fill="var(--fill-0, #3E4143)"/>
</g>
</svg>
