<svg preserveAspectRatio="none" width="100%" height="100%" overflow="visible" style="display: block;" viewBox="0 0 90.4265 120" fill="none" xmlns="http://www.w3.org/2000/svg">
<g id="Dipendente Icon">
<path id="Vector" d="M39.2904 5.03221C39.4495 3.65203 39.4664 1.27182 39.963 0.181348C40.6531 -0.291174 41.8982 0.277316 42.5934 0.555074C44.6821 1.38937 46.7925 2.50503 48.9852 3.02637C49.5148 2.61693 50.0259 2.16226 50.7296 2.32324C52.4752 2.7224 54.2594 4.36647 55.9255 5.32654C56.3025 4.90503 56.5497 4.571 57.1719 4.5435C58.3666 4.4907 61.2883 7.15998 62.0844 7.98965C65.9951 12.0649 67.9646 18.0833 67.8525 23.6706C67.8336 24.4461 67.7863 25.2208 67.7108 25.9929C69.4003 25.6675 71.5793 25.3689 73.0877 26.4071C75.4189 28.0117 75.2184 31.7079 73.6838 33.7891C72.1822 35.8258 69.9203 36.1855 67.5534 35.9386C67.0129 39.8503 65.1726 43.4666 62.3284 46.2057C63.4257 46.3311 64.3856 46.4208 65.3988 46.9141C69.1832 48.7562 68.1219 54.308 67.839 57.7519C67.4739 62.078 67.0155 66.3957 66.4636 70.702C66.4011 71.1729 66.3337 71.6431 66.2618 72.1127C70.083 70.1795 71.8713 71.1344 73.5378 74.6642C73.9771 75.5947 74.3916 75.4052 74.8816 76.9202C77.2638 77.82 82.6069 77.0864 84.4784 79.743C84.6477 79.9832 84.5421 80.5306 84.4247 80.7874C83.9233 81.8848 81.4223 81.5737 80.4273 81.5008C80.4969 83.5084 80.0638 85.5703 79.8328 87.5514C79.5087 90.3315 79.0879 93.2067 78.8319 95.9869C78.438 100.162 78.1211 104.344 77.8812 108.531C77.7563 110.789 77.7428 113.057 77.5626 115.304C77.4967 116.126 77.1098 116.936 76.6952 117.645C80.2605 117.225 84.3299 117.678 87.9323 117.661C88.618 117.658 90.2018 117.584 90.4265 118.396C90.0018 118.802 85.9947 118.729 85.3882 118.595C82.2569 117.904 60.367 119.888 59.1521 118.971C59.1115 118.583 59.1185 118.711 59.3496 118.304L59.7276 118.08C60.4243 118.197 60.9069 118.219 61.6164 118.251C60.8873 117.927 60.4238 117.793 59.6522 117.568C55.9189 116.217 52.874 115.064 54.3895 110.403C54.1822 109.94 54.1129 109.659 53.7064 109.366L53.5012 109.442C53.1861 110.204 53.558 111.445 53.516 112.277C53.5359 112.487 52.7838 113.174 52.7711 113.229C52.5468 114.206 53.4955 117.005 52.21 117.435C51.3011 117.74 50.4392 117.32 50.1588 116.324C49.7942 115.03 50.6592 113.07 49.6094 112.154C49.1861 111.889 47.8422 112.099 47.2012 112.102C47.2698 112.422 47.6045 112.583 47.923 112.839C48.2496 115.603 47.4967 116.937 45.2782 118.683C46.3912 118.678 49.6286 118.468 50.4497 118.897L50.6143 119.162C50.5607 119.352 50.5741 119.493 50.3897 119.595C49.6917 119.978 29.6369 120.025 27.2475 119.991C23.8578 119.941 20.4729 119.716 17.0833 119.684L6.01322 119.568C4.35985 119.553 2.16271 119.618 0.513059 119.391C0.280551 119.359 0.142459 119.145 0 118.977C0.107904 118.423 0.604906 118.45 1.1163 118.446C4.51836 118.425 7.9316 118.638 11.3343 118.63C10.3533 110.59 10.138 103.044 9.55787 95.0734L8.72958 85.0063C8.59085 83.4724 8.3401 81.6437 8.28563 80.1335C6.73721 80.1076 3.10019 80.2151 3.0095 77.9386C2.97225 77.0012 4.42125 75.9402 5.13277 75.5011C5.47897 75.4921 6.45332 75.5206 6.6803 75.3773C6.73733 74.9567 6.71524 74.472 7.04075 74.2288C7.97297 73.5325 10.3993 73.6915 11.5266 73.6945C11.393 70.4573 10.8819 67.4179 10.6724 64.2245L10.5146 64.2892C9.14283 64.843 4.96141 65.3908 3.46796 64.7866C3.04894 64.617 2.88117 64.0246 2.75336 63.5923C2.57544 62.9917 2.44878 62.3771 2.37479 61.755C1.78582 56.538 1.76192 50.8824 1.16074 45.6186C1.04436 44.2452 1.28445 43.2792 2.78534 42.959C7.82152 41.8847 12.8596 41.0017 17.924 40.0773C20.6721 39.6391 23.3493 38.6933 26.0499 38.1758C27.1319 37.9684 29.1844 38.5939 29.2447 39.798C29.463 44.1511 29.5083 48.6174 29.7218 52.9704C29.8098 54.7622 30.3207 59.1002 29.9036 60.5662C28.8049 62.1748 18.8653 63.554 17.0981 63.0181L16.9122 62.8335C17.4264 61.9625 19.2199 62.176 20.0106 62.0221C22.0931 61.6166 24.8962 61.539 26.866 60.8873C27.2418 56.6531 26.7235 51.82 26.3284 47.5878C26.088 44.796 25.8896 42.0007 25.7331 39.2028C23.3347 39.8449 20.4942 40.6127 18.2237 41.0741C15.7706 41.5727 3.59308 43.5663 2.28577 44.3372C1.8986 46.1064 2.73897 51.1887 2.86768 53.3367C3.0429 56.2577 3.06923 61.3251 3.97858 63.9997C6.00333 64.174 8.35847 63.7204 10.4316 63.543C11.1813 61.8977 7.78375 50.5644 9.13615 48.1864C9.79154 47.0341 12.966 46.1164 14.2548 46.4991C14.5764 46.5947 14.8522 47.3589 14.9482 47.6819C18.0927 49.8723 18.2709 52.8743 15.9254 55.9132C15.7214 56.1775 16.6009 66.5523 16.7203 67.7906C16.8783 69.4288 17.2982 71.8824 17.4012 73.5734C19.0226 73.5575 23.4076 73.7011 24.7344 74.4658C25.0676 74.8515 25.0198 75.2433 25.0556 75.7388C27.2535 75.7097 29.9728 75.4755 31.9395 75.4783C32.6735 72.7652 32.8416 71.8655 35.5483 70.7198C35.2666 68.1338 35.4085 65.9043 35.3871 63.318C35.3785 62.2865 34.8103 60.2358 34.7498 59.1629C34.5906 56.3349 33.7521 50.9286 35.5376 48.5975C36.2971 47.6059 37.9033 47.1697 39.0192 46.9032C34.8579 43.1314 35.4766 42.3558 34.8373 37.181C32.7924 37.1628 30.8399 36.9443 29.3252 35.386C27.1949 33.1945 27.4064 28.852 29.6332 26.8015C31.1272 25.4151 33.1508 25.6204 35.0169 25.942C34.6506 24.6498 33.8296 22.1477 33.7571 20.8753C33.4671 15.7987 33.1762 9.75024 34.7543 4.8864C35.3093 3.17592 38.1669 4.68572 39.2904 5.03221ZM40.6375 111.689C38.7358 112.708 37.7362 112.456 35.8025 113.337C40.1539 115.26 37.3021 119.459 33.8427 118.376C32.144 116.685 32.7744 116.135 33.2381 114.344C33.2665 114.235 32.0316 112.465 33.0331 111.838C34.7227 110.576 39.8097 107.936 41.641 107.373C42.0938 106.64 42.174 106.478 42.8272 105.931C43.2535 105.891 43.6805 105.859 44.1079 105.834C45.7676 100.762 47.7692 94.7908 49.6744 89.8652C47.8542 86.6701 47.8062 83.191 45.1941 80.1667C44.0862 80.1569 40.9509 79.9034 40.1826 80.3357C40.0348 80.5503 39.814 80.8589 39.9341 81.1383C42.0251 86.0046 43.8596 90.9777 46.3783 95.6554C46.5589 95.9907 46.6358 96.6961 46.5996 97.0532L46.4109 97.2472C45.3994 96.9247 42.2065 89.6313 41.7781 88.2451C40.9994 88.3017 38.964 88.5689 38.4017 88.0537C37.4218 87.1583 36.6537 83.9888 37.414 82.8724C38.3295 82.1966 39.1822 82.6746 39.4664 82.2365L39.3543 82.0367C38.7823 81.9111 38.3537 82.0313 38.2225 81.3717C38.1308 80.9106 38.0866 80.4836 38.0443 80.0161L26.305 79.8304C23.3173 79.7622 19.1159 79.6299 16.1296 79.7895C15.1415 79.8447 14.2742 79.8808 13.2815 79.8835C13.484 81.2226 13.4485 82.6129 13.5562 83.9721C13.7442 86.3399 13.9103 88.7295 14.1184 91.0934C14.6355 96.9671 15.14 102.724 15.2582 108.634C15.3026 110.86 15.5714 113.085 15.4396 115.345C15.3626 116.665 15.2652 117.396 14.7512 118.629L38.1006 118.825C37.5486 116.293 39.0022 113.538 40.6375 111.689ZM64.3001 83.5906C63.5809 83.5392 62.2812 83.3593 61.6815 83.597L61.565 83.8424L61.6993 84.0762C63.7876 84.5323 67.5779 83.5559 66.7758 87.1184C65.9838 90.636 62.3776 89.4489 59.4593 89.368C58.7757 91.2257 55.5062 96.9209 54.3356 98.8621C55.0602 99.7781 55.4859 102.404 56.02 103.771C60.1368 102.937 57.4812 107.248 57.5527 108.147C58.6257 108.446 60.1953 108.203 61.231 108.347C63.705 108.692 66.9898 109.766 69.2352 110.805C71.2289 111.908 69.3846 112.903 69.4663 113.531C69.7231 115.506 71.1199 116.456 67.9657 117.944L68.1413 117.917C69.0294 117.79 74.0619 117.769 74.2991 117.606C74.1803 117.081 73.5128 116.833 73.5098 116.489C73.4391 108.563 73.9013 100.576 74.3677 92.6659C74.5762 89.1303 74.2612 84.8355 74.7942 81.4352L64.7369 80.9545L64.3001 83.5906ZM36.6804 70.5912C38.6978 70.6461 40.4721 71.1024 40.7008 73.4378C43.9513 73.5913 47.7543 73.8345 50.9824 74.0773C53.4674 74.2642 61.3257 73.6121 63.0678 74.4432L63.144 74.3661C63.083 73.9437 62.9909 73.431 62.9825 73.012C63.0094 71.0658 63.0239 69.1194 63.0262 67.1731C63.0264 66.323 63.0117 65.4727 63.0089 64.6241C62.9954 60.5068 60.2504 57.126 56.8781 55.0582C56.7035 55.9092 53.9582 60.618 53.2443 60.9419C52.3803 60.6706 51.3674 59.1926 50.525 58.5382C49.7753 59.0282 48.0336 60.5652 47.4704 60.6369C46.676 59.9303 43.5319 55.9593 42.8227 54.958C42.0313 55.4817 40.9449 56.0914 40.3225 56.7821C36.5023 61.0214 35.9117 65.2338 36.6804 70.5912ZM82.3001 80.4796C82.8193 80.4519 82.9233 80.5259 83.3314 80.2717C82.8681 77.4601 62.1108 77.6955 59.4911 77.6408C53.2317 77.5098 46.9866 76.9527 40.7282 76.7887C34.7761 76.6497 28.7102 76.7605 22.7564 76.7723C19.0681 76.7928 15.3798 76.7838 11.6917 76.7453C10.1167 76.7173 6.30597 76.5291 4.94689 76.6313C4.63153 77.1216 4.33235 77.4714 4.28251 78.039C4.98415 79.9357 11.3863 78.5934 13.0035 78.6043L25.6451 78.7104C37.3625 78.823 49.0775 79.1147 60.7861 79.5856C64.2314 79.7432 67.6236 80.0345 71.0651 80.2417C74.7803 80.4654 78.632 80.2416 82.3001 80.4796ZM45.0685 106.371C45.9915 106.75 47.5814 107.511 48.5335 107.458C48.8188 107.25 48.7143 107.379 48.8616 107.06C50.2668 104.268 51.7316 101.453 53.2202 98.7067C54.737 95.9085 61.227 85.2093 60.4459 82.5255C60.1665 81.5664 59.3396 81.0647 58.5558 80.548L56.4258 80.4869C53.5545 82.7902 54.5 82.2069 52.9493 85.4855C49.766 92.2252 47.1305 99.209 45.0685 106.371ZM12.7143 118.685C13.3998 118.237 13.5849 118.101 14.1304 117.483C14.4951 114.961 14.2913 111.311 14.2294 108.684C14.0033 99.0856 12.8194 89.5864 12.3326 79.9616L10.4912 80.0654L9.34964 80.129C10.3004 89.9744 10.904 99.8025 11.5152 109.673C11.583 110.769 12.2584 118.24 12.4632 118.61L12.7143 118.685ZM76.5443 115.043C76.7533 111.842 76.8021 108.605 77.0128 105.391C77.5428 97.3037 78.5679 89.4541 79.5624 81.4334L75.8224 81.3978L74.9616 102.219C74.7703 106.416 74.5465 110.612 74.4525 114.812C74.4327 115.695 74.4717 116.78 75.6133 116.726C76.2359 116.697 76.4236 115.525 76.5443 115.043ZM12.5278 73.5913L15.1119 73.5474C14.7875 69.4195 14.4179 65.2715 14.0439 61.1454C13.6552 56.8585 13.1331 52.6076 12.9687 48.2928C12.9562 47.9639 12.8052 47.696 12.5263 47.5196C11.3641 47.9297 10.8758 48.0681 9.88865 48.8237C9.7336 50.9254 10.1321 52.6349 10.4349 54.694C11.3328 60.8001 12.3701 67.4299 12.5278 73.5913ZM43.4172 118.445C45.0698 117.505 46.5169 116.428 47.1127 114.533C47.6857 112.71 45.1295 113.426 44.3064 113.174C43.6687 112.979 43.197 111.966 42.5877 111.966C40.9909 112.634 40.3612 113.428 39.6761 115.012C39.3727 115.714 38.3628 118.204 39.5749 118.522C40.6475 118.804 42.3456 118.705 43.4172 118.445ZM55.0423 111.508C55.0061 112.773 54.9913 113.582 55.9391 114.585C56.9353 115.637 59.4048 116.323 60.8412 116.826C63.36 117.844 64.0742 116.604 62.9346 114.394C61.9695 112.523 59.7208 111.147 57.8572 110.26C56.97 111.661 56.6929 111.752 55.0423 111.508ZM36.0455 71.5266C34.1012 72.099 33.6424 73.5163 32.9384 75.198C33.2534 74.8899 33.5768 74.5452 33.9078 74.2549C34.5322 73.7071 34.5401 73.3128 35.4173 73.5214C35.7783 72.8034 35.4798 73.0508 36.1128 72.6551C36.5219 73.2243 36.382 73.2158 36.9383 73.4932C37.2307 73.3824 37.3115 73.1711 37.4835 72.8982C37.8933 72.6993 37.7115 72.725 38.1647 72.769C38.7493 73.3702 38.7083 73.6743 39.6088 73.3719C39.8616 71.8003 37.0988 71.4587 36.0455 71.5266ZM47.6298 59.3446C48.7735 58.6845 49.6169 57.7178 50.7773 56.9968C51.4827 57.9124 52.263 58.8526 53.1403 59.6084L54.0144 58.0171C54.6986 56.7953 55.49 55.8415 56.1433 54.7336C55.7424 54.4602 54.2866 53.4895 53.892 53.5525L53.874 53.6962C53.5814 55.9504 51.8854 56.5093 49.977 57.0632C48.0913 56.4068 46.843 55.1627 46.3756 53.1837L46.1998 53.1154C45.2156 53.7101 44.7637 53.9729 43.664 54.3919C44.7275 55.6082 46.8175 58.0364 47.6298 59.3446ZM52.17 103.221C52.3662 103.79 52.5892 104.565 52.9327 105.033C53.0859 105.08 53.1308 105.119 53.2678 105.099C54.0348 104.812 54.3094 104.693 55.0093 104.279C54.8143 103.614 53.9553 100.266 53.6847 99.9914C53.2604 100.837 52.4327 102.39 52.17 103.221ZM51.9306 112.047L52.3537 111.923C52.8141 110.876 51.8762 108.927 51.2536 108.056L50.9241 107.922C50.8359 108.039 50.7304 108.179 50.6075 108.342C50.6474 109.299 50.4744 110.368 50.3386 111.285C50.6865 112.052 51.1415 112.009 51.9306 112.047ZM15.9262 54.1403C16.4742 52.7172 16.716 49.8654 15.0731 49.0853C15.1578 49.9531 15.4356 53.8462 15.7974 54.3235L15.9262 54.1403ZM43.3142 106.757C42.4655 107.925 42.5421 108.65 43.8519 109.518C44.8491 110.179 47.6783 111.395 48.7984 110.999C49.3411 110.521 49.9291 109.911 49.4612 109.189C47.6952 108.217 44.5249 107.498 43.3142 106.757ZM65.438 73.9942C64.6926 74.4 64.4888 74.5013 63.679 74.7289C63.6282 75.0887 64.0597 75.7116 64.1897 76.4958L64.3388 76.6543C64.6939 76.6591 65.2534 76.7197 65.5317 76.5796C65.5066 76.486 65.3527 75.8693 65.3311 75.8182C65.1684 75.4346 65.5675 74.233 65.438 73.9942ZM64.951 113.468L65.786 112.846C65.0304 112.6 63.0739 111.91 62.3747 111.874C63.0854 112.908 63.4956 112.83 64.1849 114.218L64.3782 114.265C64.5877 113.988 64.7609 113.757 64.951 113.468ZM68.5981 72.1649C67.9576 72.4317 67.6736 72.5414 67.1005 72.9245C66.6876 73.852 66.1271 74.6098 66.4549 75.4652C66.5926 75.8183 66.7548 76.1613 66.9402 76.4917L67.1038 76.4661C67.4908 75.5558 67.3137 75.3426 67.8331 74.3959C69.1337 73.5718 70.0978 73.512 71.6273 73.854C71.8031 73.8936 71.9783 73.9361 72.1527 73.9813C71.1075 72.4381 70.4693 72.0906 68.5981 72.1649ZM51.4934 104.498C51.1822 104.947 50.0685 106.682 50.1005 107.183L50.1738 107.245L51.045 107.043C51.2428 106.687 51.5302 105.418 51.6752 104.916C51.6246 104.783 51.5709 104.607 51.4934 104.498ZM14.6869 57.5407C14.5987 58.2707 15.004 60.5673 15.1332 61.37C15.2127 59.9009 15.1925 58.5975 14.8836 57.1507C14.8457 56.719 14.84 56.2338 14.8242 55.7962C14.7063 54.6247 14.601 53.538 14.4089 52.375C14.2859 53.7916 14.2868 54.9994 14.5289 56.423L14.6869 57.5407ZM50.0969 55.9122C51.2595 55.5829 53.7772 54.5113 52.318 52.9793C51.9439 52.838 51.8535 52.8887 51.4405 52.9632C50.934 52.5261 51.0622 51.3978 51.0558 50.7196C50.4086 50.7106 49.3828 50.729 48.7664 50.6745C48.8643 51.5549 49.1595 53.1419 48.681 53.8536L48.4511 53.9288C48.0266 53.4367 48.0029 52.9093 47.6775 52.7461C46.8351 53.8971 49.0912 55.5953 50.0969 55.9122ZM56.2777 108.233L54.9541 108.984C55.1612 109.469 55.494 110.353 55.8068 110.721C57.1794 110.362 56.8951 108.692 56.2777 108.233ZM47.0109 80.1584C47.4635 81.1302 47.9876 82.1555 48.2679 83.1833C49.6758 82.9906 51.1341 83.0883 52.5386 83.2887L53.2534 81.9798C53.5951 81.318 54.0288 80.8848 54.5997 80.4029C53.0279 80.3588 48.2846 80.3464 47.0109 80.1584ZM56.7768 104.643C55.6736 105.156 54.5786 105.68 53.4373 106.1C53.1747 106.197 52.3425 106.405 52.2787 106.633C52.123 107.192 52.3837 108.243 52.8737 108.585C54.598 108.117 57.6653 107.084 57.1973 104.854C56.9584 104.622 57.0962 104.686 56.7768 104.643ZM58.259 109.318C60.2919 110.324 61.7499 110.816 63.995 111.226C65.5947 111.519 67.5013 113.144 69.0775 112.44C69.077 112.212 69.1282 112.016 68.9738 111.92C66.5808 110.439 61.4247 109.268 58.8305 109.289C58.6397 109.29 58.449 109.3 58.259 109.318ZM41.4505 108.507C40.2141 109.086 34.2203 111.933 33.7314 112.753L33.7453 113.107L33.9569 113.214C34.4407 113.033 34.6857 112.827 35.0973 112.529C36.9103 111.598 39.3049 111.201 41.3018 110.727C41.7481 110.621 42.7938 110.843 43.3295 110.662C43.2611 110.336 42.4139 109.836 42.1037 109.66C41.9071 109.214 41.7946 108.736 41.4505 108.507ZM12.7061 74.6512C11.5284 74.7545 8.50709 74.7689 7.70488 75.2319L7.65555 75.4094C8.47665 75.7606 17.489 75.7045 19.0283 75.7162C20.3468 75.7327 22.9065 75.8626 24.0488 75.4851L24.0781 75.4462L23.9576 75.2996L23.963 75.4837L23.7807 75.5206L23.7366 75.2288C21.6643 74.7721 14.7628 74.2487 12.7061 74.6512Z" fill="var(--fill-0, #414245)"/>
<path id="Vector_2" d="M49.7058 16.8385C51.9677 16.5141 56.2714 16.8557 58.4648 17.5289C61.6936 18.4186 64.1227 20.2341 65.1385 23.5068C65.3522 24.1952 66.0981 26.9704 66.9768 26.9968C68.9442 27.0559 70.1362 26.4911 72.1667 26.9435C73.6558 28.3413 74.1997 29.9205 73.4784 31.9131C73.0777 33.046 72.2315 33.966 71.1361 34.4596C69.5273 35.1948 68.3861 35.022 66.8226 34.4393C66.2628 36.5204 66.1202 38.2453 65.184 40.2818C62.6352 45.8266 58.7059 48.5028 52.7648 49.4992C47.128 50.0031 41.9327 48.8406 37.9966 44.4028C36.0928 42.2563 35.8405 38.8672 36.093 36.112C34.1186 36.0382 31.1179 36.2088 29.7926 34.3C27.9311 31.6186 29.2515 25.9296 33.3841 26.8273C34.1154 26.9861 34.7701 27.263 35.5249 27.4056C35.749 27.3205 35.906 27.2648 35.9589 26.9853C37.4573 19.0815 42.2122 17.4566 49.7058 16.8385Z" fill="var(--fill-0, #FAF7EF)"/>
<path id="Vector_3" d="M51.0387 42.7543C49.7272 42.8876 47.6225 42.8546 46.7621 41.6557L46.8116 41.3985C47.5619 41.0141 48.3206 41.3941 49.1473 41.6497C50.4844 41.9119 52.8726 40.7346 53.4499 41.3958C53.0904 42.2242 51.824 42.5489 51.0387 42.7543Z" fill="var(--fill-0, #414245)"/>
<path id="Vector_4" d="M59.1524 28.4279C60.0839 28.477 61.5526 28.7256 62.0276 29.6415L61.9657 29.8129C61.4002 29.9965 60.9098 29.654 60.3586 29.3897C59.451 29.0661 57.656 29.6186 57.3222 29.1024C57.6613 28.5719 58.5814 28.4847 59.1524 28.4279Z" fill="var(--fill-0, #414245)"/>
<path id="Vector_5" d="M41.0092 28.4841C41.9266 28.3155 43.4129 28.2161 44.0877 28.9966L44.0673 29.1777C43.56 29.4876 43.0033 29.2684 42.4058 29.1394C41.4479 29.0354 39.8304 29.9899 39.3858 29.5653C39.5923 28.9706 40.467 28.672 41.0092 28.4841Z" fill="var(--fill-0, #414245)"/>
<path id="Vector_6" d="M58.984 32.2523L59.537 32.3141C60.375 32.9872 59.7274 36.1976 59.3522 37.0729C59.0109 37.0708 59.007 37.045 58.7119 36.8953C58.2297 36.1876 58.8449 33.1736 58.984 32.2523Z" fill="var(--fill-0, #414245)"/>
<path id="Vector_7" d="M42.4813 32.5518C42.8306 32.5823 43.2477 32.541 43.4263 32.8283C44.0361 33.8091 43.8181 36.0271 43.6837 37.1025C43.4965 37.1186 43.0221 37.1383 42.9407 36.9484C42.4865 35.8903 42.4049 33.6725 42.4813 32.5518Z" fill="var(--fill-0, #414245)"/>
<path id="Vector_8" d="M49.922 59.5483C50.4836 59.531 50.7365 59.7484 51.1187 60.1121C53.4632 62.3432 52.2421 62.9776 50.4607 64.738C50.921 67.6288 51.7384 70.1417 52.4048 72.9438C51.5991 72.9303 50.7936 72.91 49.9881 72.8828C49.25 72.774 47.7622 72.7113 46.9733 72.6575C47.6063 70.051 48.4861 67.401 49.0549 64.7924C46.8322 62.1202 46.3444 61.2716 49.922 59.5483Z" fill="var(--fill-0, #414245)"/>
<path id="Vector_9" d="M44.8918 64.7632C45.4268 64.7326 45.6964 64.6874 46.2178 64.8527C46.4786 65.0959 46.5663 65.3844 46.6484 65.7328C47.4564 69.1625 43.1576 72.604 41.7891 68.0367C41.6799 67.6718 41.8031 67.4055 42.0237 67.1164L42.313 67.0886L42.6499 67.4303C42.9101 68.2204 43.1293 68.9441 44.0267 69.1558C45.4616 68.9466 45.5587 66.929 45.647 65.8182C44.5169 65.8033 42.2982 66.2654 41.5746 65.4968L41.6065 65.2929C42.3655 64.7867 43.9486 64.8051 44.8918 64.7632Z" fill="var(--fill-0, #414245)"/>
<path id="Vector_10" d="M40.6984 62.081C41.1298 62.2448 40.9637 62.1134 41.2273 62.4724C41.2495 63.1445 40.1446 64.5396 40.2409 65.3304C40.3928 66.5815 42.0181 71.7886 41.7139 72.7068C41.3223 72.6969 41.292 72.6909 40.9097 72.5989C40.5683 72.1147 39.154 65.6938 39.263 64.7503C39.3993 63.5724 39.8073 62.8556 40.6984 62.081Z" fill="var(--fill-0, #414245)"/>
<path id="Vector_11" d="M58.472 63.4538C60.6399 64.1351 59.6978 68.9694 59.5252 70.6386C59.433 71.5301 59.3888 72.4849 59.2369 73.3652C58.8505 73.3211 58.8096 73.3111 58.4474 73.1733C58.0465 72.2836 58.934 68.0286 58.8803 66.6981C58.8143 65.0627 57.8812 64.7735 58.472 63.4538Z" fill="var(--fill-0, #414245)"/>
<path id="Vector_12" d="M14.8835 57.1509C15.1925 58.5977 15.2127 59.9011 15.1331 61.3702C15.0039 60.5675 14.5986 58.2709 14.6869 57.5409L14.8835 57.1509Z" fill="var(--fill-0, #454548)" fill-opacity="0.988235"/>
<path id="Vector_13" d="M14.5289 56.4226C14.2867 54.999 14.2858 53.7912 14.4089 52.3746C14.6009 53.5376 14.7063 54.6243 14.8242 55.7958L14.5289 56.4226Z" fill="var(--fill-0, #737478)" fill-opacity="0.988235"/>
<path id="Vector_14" d="M14.5289 56.4233L14.8242 55.7965C14.84 56.234 14.8457 56.7193 14.8836 57.1509L14.6869 57.541L14.5289 56.4233Z" fill="var(--fill-0, #737478)" fill-opacity="0.811765"/>
<path id="Vector_15" d="M59.6521 117.568C60.4238 117.793 60.8872 117.928 61.6164 118.251C60.9069 118.219 60.4243 118.198 59.7275 118.081L59.6521 117.568Z" fill="var(--fill-0, #454548)" fill-opacity="0.0156863"/>
</g>
</svg>
