<svg preserveAspectRatio="none" width="100%" height="100%" overflow="visible" style="display: block;" viewBox="0 0 147.006 120" fill="none" xmlns="http://www.w3.org/2000/svg">
<g id="Illustration">
<path id="Vector" d="M85.3868 21.7007C85.9625 21.715 86.2735 21.8537 86.4366 22.0405C86.6011 22.2289 86.6429 22.4971 86.6036 22.8345C86.5645 23.1711 86.4489 23.5476 86.3312 23.9302C86.2156 24.3059 86.0963 24.6906 86.0656 25.022C85.6496 29.5255 87.1023 34.1885 90.337 37.4224C90.5665 37.6515 90.8047 37.824 91.0187 37.9966C91.2349 38.171 91.437 38.3535 91.6202 38.6147L91.6769 38.6948L91.7677 38.6587C96.0861 36.9383 100.184 39.0688 103.502 42.5444C106.817 46.0174 109.319 50.8019 110.423 54.2886C110.533 54.6358 110.633 54.9948 110.732 55.3491L110.756 55.436L110.847 55.4399C111.182 55.4522 111.517 55.4687 111.853 55.4907C112.117 55.6658 112.468 55.9158 112.801 56.1909C113.146 56.477 113.463 56.7836 113.645 57.0571C114.989 59.084 116.411 61.3563 117.318 63.7476C118.226 66.1378 118.616 68.6375 117.907 71.1235C117.827 71.4058 117.656 71.7601 117.463 72.1157C117.27 72.4709 117.062 72.8158 116.908 73.0845L116.876 73.1401L116.902 73.1978C118.382 76.4174 117.23 79.3181 115.209 80.9673C113.181 82.6219 110.308 82.9992 108.333 81.2124L108.203 81.0942L108.135 81.2563C106.824 84.3756 104.347 87.6847 101.443 90.5991C98.5406 93.5131 95.2194 96.0247 92.2306 97.5522C84.815 101.35 76.4229 102.812 68.1593 101.747H68.1583C56.0962 100.29 44.4915 92.7582 39.2736 81.6509C37.4019 77.6669 36.1686 73.7799 35.7482 69.3843C35.5804 67.6312 35.1994 66.0713 35.4806 64.3159V64.313C35.7909 62.0306 36.2316 59.5789 36.9142 57.3804C37.0695 56.8799 37.2609 56.3677 37.4581 55.8481C37.6549 55.3298 37.8577 54.8033 38.0323 54.2798L38.1183 54.0229L37.8673 54.1265C36.3432 54.7513 35.1531 54.8439 34.214 54.5767C33.2766 54.3098 32.5692 53.6779 32.0197 52.814C31.469 51.9482 31.0804 50.855 30.7823 49.6782C30.4845 48.5019 30.2789 47.2501 30.089 46.0708C29.7121 43.7303 30.2805 41.2541 31.3058 38.9146C32.3307 36.5759 33.8073 34.383 35.2355 32.6157C37.5184 29.7904 40.3363 27.9609 44.0812 27.646L44.1163 27.6431L44.1456 27.6216C44.3419 27.4759 44.5926 27.236 44.7687 27.0776L44.7804 27.0659C45.7679 25.9036 46.7267 25.115 47.8009 24.5288C48.8764 23.942 50.0731 23.5552 51.5411 23.2007C52.6036 22.9442 53.4365 22.6749 54.5177 22.5015C55.9409 22.2733 56.9427 22.2702 57.8986 22.4624C58.8576 22.6553 59.7785 23.0461 61.0421 23.6216C61.3403 23.7574 61.5508 23.7643 61.7482 23.7388C61.9462 23.7132 62.0845 23.6681 62.3048 23.6821C62.9068 23.7207 63.6424 23.9361 64.2081 24.1685C66.4544 25.0914 67.4815 26.7006 69.1027 28.437C69.8396 29.2263 70.6877 29.8852 71.5607 30.5171L71.63 30.5669L71.7013 30.521C72.1471 30.2313 72.4687 29.911 72.7794 29.5933C73.0911 29.2745 73.3907 28.9592 73.8019 28.6626L73.8722 28.6128L73.8488 28.5288C73.7223 28.0734 73.6401 27.734 73.6251 27.3931C73.6103 27.055 73.661 26.7081 73.8107 26.2417H73.8116C74.1272 25.2438 74.8286 24.4127 75.7599 23.9341L75.7589 23.9331C76.5699 23.5212 77.6673 23.3728 78.5157 23.6851C79.9609 24.2166 80.6875 25.5777 80.7072 26.9741C80.7267 28.372 80.0369 29.7777 78.6788 30.3911L78.5851 30.4341L78.6095 30.5347C79.1031 32.5154 79.2404 35.5475 78.9249 37.5493L78.9171 37.6001L78.9474 37.6421C80.3122 39.4944 80.9582 40.752 80.9415 42.0327C80.9249 43.3165 80.2425 44.6525 78.8595 46.6606C78.3402 47.4144 77.789 47.977 77.1456 48.3804C76.5023 48.7836 75.7596 49.032 74.8527 49.147L74.5968 49.1792L74.7823 49.3589C75.7043 50.2564 76.3186 51.6525 76.4503 53.0679C76.5819 54.4832 76.229 55.8974 75.2452 56.8452C74.6645 57.4044 74.1384 57.7477 73.5656 57.9556C72.9911 58.164 72.3608 58.2397 71.5665 58.2515L71.4659 58.2524L71.4464 58.3521C70.9901 60.6921 69.1799 61.9986 66.8624 62.6021C65.8368 62.8691 64.9655 62.5215 64.087 61.9243L64.0284 61.8843L63.964 61.9146C63.4923 62.1376 63.0946 62.3926 62.6759 62.6919C60.0503 64.5686 57.4293 66.1834 54.1398 66.4585L54.0216 66.4683L54.0265 66.5874C54.1389 69.4288 55.411 73.0845 56.9689 75.4448C59.8016 79.7364 64.3865 82.1626 69.2775 83.2368C74.2967 84.3391 80.543 83.1489 84.8468 80.4429C86.5147 79.3942 88.2251 77.8704 89.6261 76.1235C91.0265 74.3773 92.124 72.4005 92.5568 70.4448L92.629 70.1187L92.3605 70.3188C90.2977 71.8637 88.304 72.4984 85.7443 71.8579L85.6827 71.8423L85.6339 71.8843C84.7425 72.648 84.3239 73.0194 83.2257 73.4985C82.567 73.7859 81.7198 73.9975 80.8673 74.063C80.0138 74.1285 79.1665 74.0467 78.5011 73.7593H78.5021C77.6489 73.3806 76.9644 72.7057 76.5734 71.8628L76.4991 71.6919C76.0987 70.6848 76.0954 69.8708 76.3351 69.1812C76.5761 68.4878 77.0678 67.9052 77.6847 67.3745C78.3022 66.8433 79.0338 66.3726 79.7482 65.895C80.4584 65.4202 81.1528 64.9377 81.674 64.3901C82.6137 63.4023 83.1965 62.0441 83.7745 60.7124C84.3569 59.3708 84.9351 58.0552 85.8615 57.1011C86.7165 56.2209 87.3461 56.3029 88.5031 55.9683L88.5079 55.9663C88.5703 55.9455 88.6553 55.8988 88.7452 55.8462C88.8378 55.792 88.953 55.7207 89.0734 55.6489C89.3188 55.5026 89.6038 55.3416 89.8761 55.2368L90.1115 55.146L89.8966 55.0151C89.806 54.9599 89.7165 54.903 89.6271 54.8442C85.4087 52.0848 84.5292 46.2779 87.2648 42.1021L87.3126 42.0278L87.2589 41.9585C85.1706 39.2319 84.9978 37.96 83.7687 34.8169C83.1844 33.3226 82.6042 30.334 82.6749 27.563C82.7103 26.1778 82.908 24.8562 83.3429 23.8071C83.7742 22.7669 84.4329 22.0065 85.3868 21.7007Z" fill="var(--fill-0, #3E4144)" stroke="var(--stroke-0, #FAF7EF)" stroke-width="0.248348"/>
<path id="Vector_2" d="M85.1884 32.6221C85.206 32.6383 85.2207 32.661 85.2284 32.6729C85.239 32.6892 85.2512 32.7103 85.2645 32.7334C85.2913 32.7797 85.325 32.8415 85.3632 32.9131C85.4398 33.0567 85.5369 33.2436 85.6337 33.4346C85.8268 33.8159 86.0238 34.2177 86.0741 34.3262C87.167 36.6812 89.0101 38.8264 90.9628 40.585C91.63 40.2605 92.4832 39.8487 93.2069 39.6787C96.0708 39.0071 98.6424 40.1576 100.82 41.9805C102.997 43.8028 104.798 46.3104 106.131 48.3926C107.64 50.7485 108.724 53.4753 109.474 56.2539L109.487 56.3066L109.459 56.3525C109.303 56.601 109.166 56.8608 109.05 57.1299C108.405 58.6108 108.329 59.9361 108.749 61.458L108.763 61.5098L108.735 61.5557C108.672 61.6607 108.61 61.7669 108.548 61.874L108.547 61.873C108.437 62.0644 108.291 62.3088 108.182 62.5264L108.088 62.7324C107.502 64.2154 107.635 65.8082 107.845 67.4434C108.052 69.0676 108.337 70.7385 108.011 72.3271C107.768 73.511 107.465 74.698 107.303 75.8965C107.14 77.0915 107.119 78.2841 107.437 79.4639L107.448 79.5029L107.433 79.54L107.391 79.6504C107.097 80.4061 106.419 81.5509 106.005 82.2852C102.274 88.8949 96.0226 94.4396 89.077 97.4805H89.076C79.3851 101.635 68.4345 101.739 58.6659 97.7715V97.7725C57.8207 97.4388 56.9077 96.9484 56.0927 96.5342C48.8585 92.86 43.379 87.4342 40.0673 79.9785C37.904 75.1081 36.6907 69.5213 37.0028 64.1572C37.0359 63.5878 37.2222 62.6755 37.4305 61.7705C37.5351 61.3163 37.6462 60.8608 37.7469 60.4473C37.8478 60.0333 37.9386 59.6619 38.0038 59.374C38.3674 57.7667 38.8534 56.1203 39.4686 54.5869L39.5341 54.4248L39.6659 54.54L40.7714 55.5098C41.7003 56.1695 42.1739 56.3911 43.2137 56.7871L43.455 56.8789L43.2323 57.0098C42.7179 57.313 42.2877 57.5452 41.7225 57.8213C41.4959 57.935 41.2464 58.0303 40.995 58.1221C40.7408 58.2148 40.4854 58.3033 40.2382 58.4043C39.8051 58.5813 39.4174 58.7901 39.1425 59.1016L39.0311 59.2412C38.9196 59.3996 38.9435 59.5918 39.0575 59.7734C39.1734 59.9579 39.3631 60.0965 39.5155 60.1299C40.3514 60.3125 41.2982 59.9822 42.2538 59.5137C42.7293 59.2805 43.1976 59.0178 43.6503 58.7754C44.0994 58.5349 44.5335 58.3136 44.9325 58.1689C45.4718 57.9638 46.2473 57.6641 47.0292 57.4902C47.8048 57.3178 48.6197 57.2616 49.2206 57.5752C50.2504 58.1129 50.5772 59.3217 50.576 60.5312C50.5749 61.7477 50.244 63.0184 49.8983 63.7568L49.8436 63.874L49.7294 63.8145C49.6048 63.7501 49.4861 63.682 49.3856 63.6279C49.2818 63.5721 49.1894 63.5264 49.0975 63.4951C48.9258 63.4366 48.7493 63.4258 48.5077 63.5146C48.3528 63.6546 48.2463 63.8258 48.1591 64.0215C48.0668 64.2285 48.0002 64.4485 47.9149 64.6865L47.9042 64.7168L47.8798 64.7383C47.8187 64.7907 47.7831 64.825 47.7518 64.8535C47.7246 64.8783 47.6889 64.9106 47.6395 64.9268C47.5915 64.9425 47.5432 64.9386 47.5057 64.9355C47.4624 64.932 47.4099 64.9263 47.326 64.9219L47.2909 64.9199L47.2616 64.9004C46.9931 64.7152 47.0047 64.4251 46.9823 64.2188C46.9701 64.1068 46.9502 64.0012 46.8983 63.8994C46.8494 63.8036 46.7671 63.7041 46.621 63.6045C46.4752 63.5829 46.3222 63.5978 46.1591 63.6318C45.9819 63.6689 45.8129 63.7228 45.6239 63.7715L45.579 63.7832L45.537 63.7617C45.2398 63.6102 45.14 63.3368 45.1337 63.0635C45.1276 62.7954 45.2089 62.5102 45.2899 62.2891C45.3733 62.0613 45.5054 61.8043 45.6229 61.5576C45.7431 61.3054 45.8502 61.0604 45.8993 60.8389C45.9483 60.6175 45.9341 60.4412 45.8407 60.3076C45.7463 60.1728 45.5495 60.0505 45.161 59.9873C44.9185 59.9479 44.7573 59.9796 44.6395 60.042C44.5199 60.1055 44.4291 60.209 44.3417 60.3447C44.2979 60.4127 44.2566 60.4864 44.2128 60.5645C44.1696 60.6413 44.1236 60.7232 44.0731 60.8027C43.9718 60.9624 43.8467 61.1227 43.6649 61.2432L43.6639 61.2422C43.4832 61.3851 43.2016 61.5479 42.9413 61.7021C42.6675 61.8644 42.4201 62.0169 42.2899 62.1445C41.283 63.1333 40.2097 63.4178 38.9647 63.8926C38.551 64.0503 38.1856 64.3732 38.0038 64.8027C38.0073 64.9122 38.007 64.9679 38.0204 65.0215C38.0321 65.0681 38.0573 65.1171 38.1356 65.1963C38.4633 65.5279 38.874 65.6503 39.3339 65.6299C39.7976 65.6092 40.3075 65.4436 40.8153 65.2002C41.8308 64.7135 42.8051 63.9355 43.3348 63.4902L43.4969 63.3545L43.537 63.5625C43.9675 65.8092 46.2649 66.925 48.4315 66.5312L48.6014 66.4971C50.3409 66.1008 51.6945 64.5475 52.1093 62.8262C52.1499 62.6577 52.1526 62.4213 52.1698 62.166C52.1781 62.0431 52.1905 61.9176 52.2128 61.8047C52.2347 61.6937 52.2688 61.5833 52.329 61.4961L52.3622 61.4473L52.4208 61.4424C52.6089 61.4265 52.7341 61.4288 52.8602 61.4463C52.9208 61.4547 52.9816 61.4665 53.0487 61.4814L53.2753 61.5332L53.3319 61.5459L53.3583 61.5977C53.3719 61.6243 53.3857 61.6511 53.3993 61.6777C53.4129 61.7043 53.4258 61.7313 53.4393 61.7578L53.4618 61.8008L53.4491 61.8477C53.1343 62.9834 52.7022 64.1247 52.6229 65.2725C52.3313 69.4942 54.3335 74.8053 57.0604 77.9629C60.687 82.1623 66.2908 84.5684 71.7587 85.0557C73.746 85.2326 75.8093 85.0097 77.7587 84.5781L77.7635 84.5771C81.7296 83.8801 84.8088 82.5913 87.9091 79.9521C91.9819 76.4846 94.4073 71.9067 94.8427 66.5459C95.1666 62.5522 94.4879 58.3374 91.8983 55.1582C91.4559 54.6446 90.9489 54.1836 90.4344 53.7188C89.9219 53.2557 89.4012 52.7887 88.9432 52.2686C86.327 49.2997 86.4999 44.4712 89.4784 41.8271C89.0247 41.2724 88.4655 40.6042 87.9559 39.9121C87.4188 39.1826 86.9286 38.4166 86.6708 37.7178C86.1133 36.2095 85.3112 34.2985 84.9823 32.7393L84.9022 32.3604L85.1884 32.6221Z" fill="var(--fill-0, #FAF7EF)" stroke="var(--stroke-0, #FAF7EF)" stroke-width="0.248348"/>
<path id="Vector_3" d="M55.8051 24.0708C57.7805 23.9461 59.8529 24.7179 61.6498 25.9263C63.4475 27.1353 64.9824 28.7903 65.8812 30.4536C66.3627 31.3445 66.8306 32.5819 67.2142 33.5122L67.2601 33.6235L67.1498 33.6733C65.8439 34.2575 64.5245 34.8364 63.1674 35.311C62.86 35.4185 62.4775 35.5357 62.1488 35.7124C61.819 35.8897 61.575 36.1106 61.5101 36.4067C61.4629 36.623 61.5872 36.8521 61.8099 37.0288C62.0333 37.2059 62.3108 37.2928 62.4935 37.2573C66.8933 36.4024 71.6611 33.1318 74.6722 30.1597L74.7318 30.1011L74.809 30.1343C75.3565 30.3681 75.7913 30.5324 76.2924 30.7046L76.8226 30.8823L76.8949 30.9058L76.9066 30.9819C77.3619 33.9538 77.563 37.5993 76.306 40.4526C75.6332 41.9799 74.4315 43.8279 73.0238 45.4761C71.6172 47.1229 69.9939 48.5821 68.473 49.3208C67.3198 49.8809 65.2663 50.5488 63.1967 51.0435C61.1306 51.5372 59.0238 51.8646 57.7699 51.7329L57.7621 51.7319L57.7552 51.731C56.9231 51.5434 56.076 51.066 55.3578 50.4487C54.6394 49.8312 54.0411 49.0657 53.7133 48.2935L53.682 48.2192L53.7367 48.1606C53.9039 47.981 54.0628 47.7939 54.2133 47.6001C54.5404 47.1699 54.3843 46.571 53.9701 46.355C53.7865 46.2594 53.5865 46.2636 53.3646 46.3403C53.1396 46.4181 52.9026 46.5673 52.6595 46.7476C52.4134 46.9301 52.182 47.1279 51.9447 47.312C51.7155 47.4898 51.4849 47.6513 51.2699 47.73L51.2621 47.7329L51.2611 47.7319C50.7449 47.8805 49.9713 48.1045 49.4301 48.1812C48.9891 48.2436 48.7667 48.5709 48.7386 48.9224C48.7101 49.2811 48.8851 49.6337 49.2152 49.7495C49.575 49.8755 50.1019 49.8351 50.6478 49.7085C51.1879 49.5833 51.7234 49.3796 52.0873 49.2026L52.1927 49.1509L52.2504 49.2534C52.5314 49.7536 53.0004 50.4151 53.5238 51.0288C54.0486 51.6442 54.6197 52.2012 55.1019 52.5015C55.3141 52.6335 55.723 52.816 56.1537 52.9946L57.2855 53.4458L57.3373 53.4663L57.3568 53.519L57.39 53.6099L57.4095 53.6646L57.3802 53.7153C56.9908 54.3798 56.316 54.5387 55.6361 54.5073C53.8644 54.4254 51.7207 53.8729 49.7172 53.0308C47.7143 52.1889 45.8385 51.0515 44.6078 49.7905L44.5209 49.7017L44.6097 49.6147C44.7188 49.5082 44.8273 49.4004 44.934 49.2915C45.5248 48.6874 45.9654 48.1774 46.3119 47.6128C46.6578 47.049 46.9136 46.4257 47.1263 45.5933C47.8591 42.7255 48.8063 39.6318 48.9584 36.6567C49.11 33.6893 48.4681 30.8566 46.0316 28.5083L45.9535 28.4331L46.0179 28.3452C47.7729 25.9634 50.118 25.253 52.8422 24.6685C53.8288 24.4567 54.7712 24.2089 55.7963 24.0718L55.8051 24.0708Z" fill="var(--fill-0, #FAF7EF)" stroke="var(--stroke-0, #FAF7EF)" stroke-width="0.248348"/>
<path id="Vector_4" d="M54.249 30.8164C54.7971 30.7529 55.134 30.858 55.3935 31.0811C55.6666 31.3159 55.8691 31.6922 56.1201 32.21C56.4028 32.7932 56.6289 33.4137 56.6152 33.9639C56.6083 34.236 56.5427 34.4881 56.3984 34.7109C56.2577 34.9281 56.0367 35.1244 55.706 35.2852C55.2764 35.2879 54.8502 35.0777 54.4775 34.7266C54.0987 34.3697 53.7848 33.8772 53.5917 33.3555C53.3984 32.8329 53.3299 32.2912 53.4286 31.834C53.5253 31.3864 53.782 31.0188 54.249 30.8164Z" fill="var(--fill-0, #3E4144)" stroke="var(--stroke-0, #FAF7EF)" stroke-width="0.248348"/>
<path id="Vector_5" d="M62.8303 28.4766C63.4769 28.5709 63.9201 28.9781 64.1457 29.5127C64.3768 30.0605 64.3774 30.7403 64.1262 31.3389C64.0704 31.4715 63.9701 31.5619 63.8371 31.6318C63.7084 31.6994 63.5575 31.7423 63.3996 31.7871C62.8974 31.6975 62.6051 31.4834 62.3947 31.1875C62.1789 30.8839 62.0475 30.4961 61.8762 30.041C62.0757 29.3514 62.209 28.7622 62.8303 28.4766Z" fill="var(--fill-0, #3E4144)" stroke="var(--stroke-0, #FAF7EF)" stroke-width="0.248348"/>
<path id="Vector_6" d="M42.946 29.8984C43.3003 29.876 43.6021 29.8782 43.9011 29.9111C44.2994 29.955 44.6878 30.0517 45.1833 30.208L45.2145 30.2178L45.237 30.2422C46.9401 32.0519 47.3778 34.2841 47.2585 36.5742C47.1393 38.8602 46.4634 41.2224 45.9245 43.3008C45.8731 43.4988 45.8133 43.7543 45.7458 44.0381C45.6785 44.3211 45.6043 44.6312 45.5241 44.9355C45.3654 45.5377 45.1795 46.1395 44.9763 46.4629C44.2175 47.6699 42.718 49.0546 41.0915 50.2344C39.4642 51.4147 37.6911 52.404 36.3727 52.8105H36.3718C36.23 52.8534 36.0863 52.8901 35.9411 52.9199H35.9401C35.3896 53.0301 34.7109 53.1111 34.1862 52.7139C33.8411 52.4525 33.5506 52.0313 33.3044 51.5371C33.0573 51.0411 32.8498 50.46 32.6735 49.8672C32.3212 48.6822 32.0915 47.4327 31.9372 46.6934C31.1071 42.7158 33.0347 38.5288 35.322 35.3916C37.3261 32.643 38.9672 30.562 42.5632 29.9297L42.572 29.9287L42.946 29.8984Z" fill="var(--fill-0, #FAF7EF)" stroke="var(--stroke-0, #FAF7EF)" stroke-width="0.248348"/>
<path id="Vector_7" d="M110.68 62.0679C110.901 62.1058 111.22 62.1473 111.517 62.2251C111.81 62.302 112.115 62.4216 112.297 62.6372C112.341 62.6899 112.383 62.7687 112.423 62.8589C112.464 62.9517 112.507 63.0673 112.552 63.2007C112.642 63.4675 112.742 63.8141 112.847 64.2144C113.057 65.0154 113.293 66.0392 113.525 67.0864C113.99 69.1869 114.438 71.3741 114.643 72.0825C114.8 72.6267 115.092 73.2576 115.344 73.9204C115.591 74.5705 115.799 75.2468 115.754 75.8394L115.744 75.9604L115.623 75.9536C115.405 75.9425 115.218 75.8639 115.06 75.8052C114.896 75.7445 114.757 75.7025 114.597 75.7231L114.596 75.7222C114.397 75.7501 114.22 75.8623 114.109 76.0288C114.043 76.129 113.997 76.2664 113.978 76.4126C113.959 76.5588 113.968 76.7039 114.003 76.8159C114.071 77.0327 114.171 77.1346 114.276 77.1851C114.388 77.2384 114.527 77.2445 114.693 77.2271C114.774 77.2184 114.858 77.2047 114.944 77.1899C115.029 77.1755 115.118 77.1598 115.203 77.1499C115.369 77.1307 115.552 77.1283 115.703 77.2173L115.774 77.2583L115.763 77.3403C115.745 77.4779 115.686 77.6301 115.609 77.7808C115.532 77.933 115.433 78.0918 115.328 78.2456C115.119 78.5531 114.879 78.8485 114.732 79.0347L114.724 79.0454L114.723 79.0444C114.053 79.7309 112.99 80.3456 111.944 80.5757C110.9 80.8054 109.832 80.6574 109.216 79.7583C108.891 79.2848 108.766 78.6412 108.752 77.9263C108.738 77.2089 108.837 76.4027 108.973 75.5923C109.109 74.7828 109.284 73.959 109.428 73.2124C109.572 72.4613 109.684 71.7887 109.694 71.2671L109.702 70.5171C109.702 69.7678 109.676 69.0187 109.624 68.271L109.519 67.0112C109.412 65.752 109.329 64.49 109.517 63.1899C109.558 62.9068 109.734 62.6997 109.937 62.5327C110.135 62.3698 110.389 62.2236 110.589 62.0874L110.63 62.0591L110.68 62.0679Z" fill="var(--fill-0, #FAF7EF)" stroke="var(--stroke-0, #FAF7EF)" stroke-width="0.248348"/>
<path id="Vector_8" d="M109.93 77.6929C110.153 77.5685 110.422 77.5589 110.652 77.6626L110.749 77.7144C110.999 77.8701 111.144 78.1486 111.129 78.4419C111.115 78.6984 110.98 78.9312 110.77 79.0718L110.676 79.1265C110.281 79.3187 109.806 79.1616 109.603 78.7729C109.401 78.3844 109.545 77.9054 109.929 77.6929H109.93Z" fill="var(--fill-0, #3E4144)" stroke="var(--stroke-0, #FAF7EF)" stroke-width="0.248348"/>
<path id="Vector_9" d="M112.495 77.9106C112.981 77.938 113.352 78.1665 113.483 78.4507C113.55 78.595 113.559 78.7605 113.486 78.939C113.414 79.116 113.257 79.3106 112.981 79.5063C112.75 79.5581 112.524 79.5453 112.354 79.4644C112.186 79.3841 112.061 79.2341 112.038 78.9819C112.012 78.7066 112.053 78.535 112.134 78.3843C112.215 78.2353 112.332 78.1039 112.495 77.9106Z" fill="var(--fill-0, #3E4144)" stroke="var(--stroke-0, #FAF7EF)" stroke-width="0.248348"/>
<path id="Vector_10" d="M87.5872 57.96C87.9258 58.1071 88.1561 58.3939 88.302 58.7656C88.4473 59.1358 88.5121 59.5986 88.5168 60.1162C88.5262 61.1518 88.2968 62.4408 87.9524 63.7334C87.6076 65.0275 87.1457 66.3334 86.6868 67.4062C86.4572 67.9428 86.2273 68.4231 86.0129 68.8145C85.7997 69.2036 85.5974 69.5128 85.4211 69.7031C84.5186 70.6774 83.3767 71.6265 82.1428 72.0889C80.9019 72.5539 79.5646 72.5265 78.301 71.54L78.2747 71.5195L78.262 71.4883C78.1706 71.2594 78.1505 70.9307 78.1799 70.5781C78.2097 70.2218 78.2922 69.8254 78.4211 69.4512C78.5499 69.0775 78.7268 68.7197 78.9485 68.4453C79.1609 68.1825 79.4238 67.9855 79.7336 67.9395C80.2066 67.5791 80.7572 67.2801 81.2747 66.9668C81.8063 66.6449 82.3102 66.305 82.7063 65.8584C83.4532 65.0161 84.0426 64.0961 84.5774 63.1084C84.77 62.7526 84.9624 62.3199 85.1643 61.8516C85.3655 61.385 85.5762 60.8832 85.803 60.3965C86.254 59.4282 86.7817 58.4897 87.4622 57.9756L87.5208 57.9316L87.5872 57.96ZM79.4875 70.2461C79.336 70.2281 79.192 70.2326 79.0696 70.2881C78.9563 70.3396 78.8458 70.4432 78.7649 70.6572C78.7838 71.0775 78.9409 71.3317 79.134 71.4678C79.3341 71.6087 79.5908 71.6356 79.8186 71.5684C80.0463 71.5009 80.232 71.343 80.304 71.1279C80.3725 70.923 80.3454 70.6402 80.1047 70.293C80.0408 70.3212 79.9684 70.3209 79.9104 70.3154C79.848 70.3095 79.7764 70.2953 79.7073 70.2822C79.6358 70.2687 79.5625 70.255 79.4875 70.2461ZM79.7805 68.1943C79.699 68.233 79.5847 68.3045 79.4749 68.4033C79.342 68.5229 79.2272 68.6718 79.178 68.832C79.1308 68.9858 79.141 69.1589 79.2727 69.3477C79.3968 69.5255 79.633 69.7208 80.0422 69.9189C80.1366 69.7136 80.2983 69.6018 80.4309 69.498C80.5823 69.3796 80.719 69.2562 80.7883 68.9922C80.606 68.5717 80.2574 68.438 79.7805 68.1943Z" fill="var(--fill-0, #FAF7EF)" stroke="var(--stroke-0, #FAF7EF)" stroke-width="0.248348"/>
<path id="Vector_11" d="M81.3743 70.3516C81.7498 70.1484 82.22 70.2908 82.4202 70.668C82.6201 71.0452 82.4744 71.513 82.095 71.71C81.7201 71.9046 81.2586 71.7605 81.0608 71.3877C80.8632 71.0148 81.0029 70.5523 81.3743 70.3516Z" fill="var(--fill-0, #3E4144)" stroke="var(--stroke-0, #FAF7EF)" stroke-width="0.248348"/>
<path id="Vector_12" d="M64.7369 55.8687C65.2716 55.8391 65.8036 55.8822 66.3287 55.9331C66.8564 55.9843 67.3757 56.0432 67.899 56.0464C67.9421 56.0467 67.9821 56.0618 68.0103 56.0757C68.0412 56.0909 68.0736 56.1113 68.106 56.1343C68.1711 56.1804 68.2467 56.2446 68.3277 56.3188C68.4905 56.4681 68.6846 56.6685 68.8746 56.8755C69.0648 57.0828 69.253 57.2988 69.4039 57.481C69.552 57.6598 69.6706 57.8148 69.7173 57.895L69.7974 58.0308L69.647 58.0757C69.5319 58.1106 69.4057 58.1248 69.2828 58.1323C69.221 58.1361 69.158 58.1389 69.0963 58.1411C69.0339 58.1434 68.9724 58.1452 68.9117 58.1489C68.6641 58.164 68.4536 58.2027 68.2994 58.3325C68.1475 58.4604 68.0884 58.5859 68.0738 58.7046C68.0587 58.828 68.0895 58.9602 68.147 59.1001C68.2054 59.242 68.2823 59.3741 68.3531 59.5112C68.418 59.6371 68.4865 59.7812 68.4849 59.9146L68.483 60.0298L68.3677 60.0366C68.0379 60.0571 67.7932 59.9006 67.565 59.7603C67.338 59.6207 67.1112 59.4855 66.7857 59.4565C66.6234 59.5149 66.511 59.5892 66.4322 59.6743C66.3498 59.7634 66.2977 59.8699 66.2652 59.9937C66.1977 60.2509 66.2197 60.5571 66.2222 60.9146L66.2232 61.1265L66.0377 61.0239C65.4957 60.7246 65.1472 60.4986 64.6402 60.146L64.6021 60.1196L64.5914 60.0747C64.4912 59.6905 64.3821 59.235 64.1744 58.8862C64.0718 58.7142 63.9495 58.5752 63.7984 58.4858C63.6535 58.4003 63.4746 58.3563 63.2466 58.3784C62.8962 58.5601 62.7571 58.8485 62.7261 59.186C62.6939 59.5387 62.7814 59.9361 62.8795 60.2964L62.899 60.3687L62.8433 60.4204C62.2712 60.9478 61.469 61.4311 60.8218 61.8501C58.6905 63.3264 56.908 64.2901 54.2847 64.7632L54.1089 64.7954L54.1402 64.6196C54.2584 63.9445 54.6457 62.9398 54.8765 62.272L54.8941 62.2212L54.9429 62.1997C56.7222 61.4017 58.3539 60.3093 59.7701 58.9692L59.7711 58.9683C60.2618 58.5105 60.6397 58.1193 60.9771 57.7798C61.3135 57.4413 61.6114 57.1526 61.9351 56.9067C62.5888 56.4104 63.3392 56.0981 64.7232 55.8696L64.7359 55.8677L64.7437 55.9927L64.7369 55.8687Z" fill="var(--fill-0, #FAF7EF)" stroke="var(--stroke-0, #FAF7EF)" stroke-width="0.248348"/>
<path id="Vector_13" d="M90.6927 56.2988C91.0978 56.5816 91.3838 56.9981 91.6127 57.4375C91.8399 57.8737 92.0206 58.3541 92.1976 58.7549V58.7559C93.3825 61.4379 93.6337 63.8865 93.3832 66.7822L93.3783 66.835L93.3383 66.8682C92.5783 67.4897 92.254 67.9859 91.7982 68.4922C91.3416 68.9994 90.7772 69.4835 89.5707 70.041L89.5619 70.0449L89.5521 70.0479C89.3307 70.1098 88.943 70.2396 88.5697 70.3076C88.382 70.3418 88.1898 70.362 88.016 70.3496C87.8436 70.3373 87.675 70.2915 87.5492 70.1797L87.4828 70.1221L87.516 70.041C88.0236 68.7875 88.677 67.1829 89.2172 65.5566C89.758 63.9284 90.1817 62.2884 90.2377 60.9629C90.2596 60.4455 90.1371 59.8586 90.0004 59.2529C89.8654 58.6551 89.7159 58.0372 89.7035 57.4854C89.6979 57.2238 89.8443 56.9944 90.0101 56.8066C90.1761 56.6188 90.3871 56.4457 90.5375 56.3086L90.6107 56.2422L90.6927 56.2988Z" fill="var(--fill-0, #FAF7EF)" stroke="var(--stroke-0, #FAF7EF)" stroke-width="0.248348"/>
<path id="Vector_14" d="M71.9127 49.1133C72.2177 49.1457 72.4102 49.302 72.6149 49.4688H72.6158C73.7913 50.4321 74.5607 51.8038 74.7291 53.3154C74.8236 54.1629 74.6027 54.9367 74.1364 55.5156C73.6696 56.095 72.9622 56.4719 72.0973 56.5352C71.1065 56.6076 70.4464 56.1422 69.9225 55.5186C69.6622 55.2087 69.4333 54.8566 69.2125 54.5107C68.9902 54.1625 68.7768 53.8218 68.5446 53.5215C68.4322 53.3762 68.2893 53.2301 68.1373 53.0889L67.6764 52.6826C67.502 52.5323 67.1173 52.1136 66.9528 51.9434L66.8248 51.8115L66.9948 51.7422C67.6168 51.4906 68.3893 51.2346 69.024 51.0078L69.0983 50.9814L69.1539 51.0381C69.3369 51.2251 69.5746 51.5372 69.8326 51.8955C70.0912 52.2545 70.3792 52.6719 70.6588 53.0654C70.9401 53.4614 71.2154 53.8368 71.4557 54.123C71.5759 54.2663 71.6855 54.385 71.7809 54.4717C71.8795 54.5613 71.951 54.6056 71.9948 54.6182C72.2422 54.6892 72.5056 54.6603 72.7174 54.5225C72.8736 54.4207 72.9768 54.289 73.0133 54.1182L73.0299 54.0117C73.0555 53.7589 72.9929 53.4738 72.8639 53.166C72.7169 52.8156 72.4888 52.4474 72.2272 52.082C71.9657 51.7169 71.6742 51.3594 71.4039 51.0283C71.1355 50.6994 70.885 50.3939 70.7115 50.1396L70.6461 50.0439L70.7369 49.9717C71.0911 49.6916 71.4679 49.411 71.8239 49.1377L71.8639 49.1074L71.9127 49.1133Z" fill="var(--fill-0, #FAF7EF)" stroke="var(--stroke-0, #FAF7EF)" stroke-width="0.248348"/>
<path id="Vector_15" d="M64.2467 52.8486C64.3539 52.8118 64.5068 52.8289 64.6998 52.9053C64.8892 52.9802 65.0981 53.1043 65.3053 53.251C65.5844 53.4486 65.8513 53.6826 66.0543 53.875C66.0029 53.8707 65.9515 53.8649 65.9 53.8613H65.899C65.1074 53.8081 64.1731 53.885 63.2838 54.1025C62.3956 54.3199 61.5423 54.6804 60.9205 55.2012C60.7119 55.3759 60.498 55.5751 60.2848 55.7754C60.178 55.8758 60.0711 55.9764 59.9645 56.0752L59.6442 56.3643C59.2292 56.7126 58.9827 56.9733 58.6891 57.3105C58.8058 56.5448 58.8176 56.0304 58.7555 55.1699C59.7864 54.182 60.4312 53.728 61.1627 53.458C61.9135 53.181 62.7586 53.0952 64.2272 52.8535L64.2369 52.8525L64.2467 52.8486Z" fill="var(--fill-0, #FAF7EF)" stroke="var(--stroke-0, #FAF7EF)" stroke-width="0.248348"/>
<path id="Vector_16" d="M78.4072 40.188C79.0246 40.5575 79.2301 41.2012 79.1777 41.9263C79.1256 42.6484 78.8187 43.4724 78.3848 44.2515C77.95 45.032 77.3827 45.7781 76.7998 46.3452C76.2222 46.9073 75.6097 47.3128 75.084 47.3774L75.0752 47.3784L75.0664 47.3774C74.7098 47.3728 74.578 47.3888 74.21 47.27L74.1523 47.2515L74.1309 47.1938C74.0879 47.0742 74.103 46.9519 74.1426 46.8413C74.1819 46.7313 74.2486 46.6234 74.3223 46.5239C74.4664 46.3292 74.6661 46.1317 74.7822 45.9995C76.3698 44.1902 77.3684 42.4895 78.2275 40.2495L78.2803 40.1118L78.4072 40.188Z" fill="var(--fill-0, #FAF7EF)" stroke="var(--stroke-0, #FAF7EF)" stroke-width="0.248348"/>
<path id="Vector_17" d="M75.9415 24.8389C76.531 24.7563 77.0203 24.8862 77.3068 25.165C77.5884 25.4396 77.7027 25.8872 77.4796 26.5078C77.3479 26.8741 77.1765 27.0928 76.9611 27.2607C76.7418 27.4317 76.4748 27.5511 76.132 27.7148C75.898 27.7686 75.6063 27.7004 75.338 27.627C74.9899 27.5315 74.7778 27.2831 74.6788 26.9727C74.5788 26.6584 74.5973 26.2852 74.713 25.9678C74.8365 25.6292 74.9953 25.4218 75.1935 25.2627C75.3929 25.1027 75.6344 24.9882 75.9415 24.8389Z" fill="var(--fill-0, #FAF7EF)" stroke="var(--stroke-0, #FAF7EF)" stroke-width="0.248348"/>
<path id="Vector_18" d="M111.173 56.9434C112.428 58.1114 113.379 59.6569 114.17 61.1582L114.22 61.251L114.136 61.3145L113.974 61.4375L113.907 61.4863L113.836 61.4453C113.664 61.3452 113.369 61.1394 113.098 60.9551C112.96 60.8616 112.828 60.7721 112.715 60.7021C112.598 60.6297 112.515 60.5854 112.472 60.5713V60.5703C112.197 60.48 111.871 60.4325 111.525 60.3711C111.184 60.3108 110.827 60.2385 110.514 60.0967L110.489 60.085L110.471 60.0635C110.089 59.6113 110.049 59.0012 110.184 58.4326C110.319 57.8632 110.634 57.3106 111 56.9463L111.085 56.8623L111.173 56.9434Z" fill="var(--fill-0, #FAF7EF)" stroke="var(--stroke-0, #FAF7EF)" stroke-width="0.248348"/>
<path id="Vector_19" d="M114.715 62.2671C115.681 64.3355 116.612 66.0513 116.568 68.4897C116.563 68.7555 116.562 69.0893 116.535 69.4165C116.509 69.7424 116.455 70.076 116.338 70.3403L116.304 70.4175L116.219 70.4136L116.114 70.4087L116.025 70.4038L116 70.3179C115.84 69.7497 115.767 69.1163 115.681 68.5464C115.384 66.5718 114.967 64.4316 114.312 62.5513L114.287 62.4819L114.337 62.4272L114.511 62.2358L114.637 62.0981L114.715 62.2671Z" fill="var(--fill-0, #FAF7EF)" stroke="var(--stroke-0, #FAF7EF)" stroke-width="0.248348"/>
<path id="Vector_20" d="M67.7448 29.7026C67.9901 29.8431 68.5068 30.2284 68.9743 30.6323C69.209 30.8351 69.4356 31.0449 69.611 31.2349C69.6986 31.3297 69.7754 31.4212 69.8347 31.5054C69.8924 31.5874 69.9393 31.6718 69.9597 31.7505L69.9772 31.8179L69.9294 31.8677L69.7477 32.0571L69.739 32.0659L69.7292 32.0728L68.9274 32.6333L68.8044 32.7192L68.7429 32.5825C68.3358 31.681 67.9439 30.7721 67.5681 29.8569L67.4313 29.522L67.7448 29.7026Z" fill="var(--fill-0, #FAF7EF)" stroke="var(--stroke-0, #FAF7EF)" stroke-width="0.248348"/>
<g id="Vector_21">
<mask id="path-21-inside-1_0_4" fill="white">
<path d="M114.061 61.2153C114.267 61.5389 114.503 61.9457 114.603 62.3195L114.429 62.5102C114.247 61.981 114.19 61.8077 113.899 61.3377L114.061 61.2153Z"/>
</mask>
<path d="M114.061 61.2153C114.267 61.5389 114.503 61.9457 114.603 62.3195L114.429 62.5102C114.247 61.981 114.19 61.8077 113.899 61.3377L114.061 61.2153Z" fill="var(--fill-0, #C7C9CD)"/>
<path d="M114.061 61.2153L114.27 61.0817L114.125 60.8551L113.911 61.0172L114.061 61.2153ZM114.603 62.3195L114.786 62.4868L114.878 62.3866L114.843 62.2556L114.603 62.3195ZM114.429 62.5102L114.194 62.5911L114.331 62.9868L114.613 62.6776L114.429 62.5102ZM113.899 61.3377L113.749 61.1395L113.569 61.276L113.688 61.4684L113.899 61.3377ZM114.061 61.2153L113.851 61.3489C114.057 61.6719 114.274 62.0502 114.363 62.3834L114.603 62.3195L114.843 62.2556C114.733 61.8411 114.477 61.406 114.27 61.0817L114.061 61.2153ZM114.603 62.3195L114.419 62.1521L114.246 62.3429L114.429 62.5102L114.613 62.6776L114.786 62.4868L114.603 62.3195ZM114.429 62.5102L114.664 62.4293C114.479 61.8942 114.416 61.7003 114.11 61.2069L113.899 61.3377L113.688 61.4684C113.964 61.915 114.014 62.0679 114.194 62.5911L114.429 62.5102ZM113.899 61.3377L114.049 61.5358L114.21 61.4134L114.061 61.2153L113.911 61.0172L113.749 61.1395L113.899 61.3377Z" fill="var(--stroke-0, #FAF7EF)" mask="url(#path-21-inside-1_0_4)"/>
</g>
<path id="Vector_22" d="M25.291 6.29297C29.9796 5.76689 34.5043 9.0077 36.2646 13.2637V13.2646C37.5185 16.2229 37.9815 19.5589 37.291 22.4814C36.6017 25.3989 34.7632 27.9089 31.4014 29.2324C28.9529 30.1963 26.6733 30.0777 24.8027 29.1211C22.931 28.1637 21.4546 26.36 20.6279 23.9287C20.1295 22.4628 19.8607 21.3395 19.8564 20.2178C19.8523 19.0971 20.1127 17.9669 20.6885 16.4893C21.4752 14.4704 23.3727 13.2452 25.3359 13.0244C27.297 12.804 29.3058 13.5868 30.3291 15.5664C30.4117 15.7262 30.4724 15.9192 30.5381 16.127C30.6021 16.3295 30.6705 16.5462 30.7695 16.7314L30.7734 16.7383L30.7783 16.7451C31.0323 17.101 31.2456 17.4547 31.3877 17.792C31.5301 18.1301 31.5977 18.4445 31.5693 18.7236C31.5414 18.9982 31.42 19.2478 31.167 19.4629C30.9105 19.6808 30.5139 19.8668 29.9336 19.998L29.8467 20.0176L29.8369 20.1064C29.6996 21.442 29.5746 22.876 29.2578 24.1699C29.222 24.3162 29.16 24.4371 29.085 24.583C29.0105 24.7277 28.9252 24.8926 28.8594 25.1123L28.8379 25.1855L28.8936 25.2373L29.0244 25.3623L29.0654 25.4014L29.1211 25.3955C29.3193 25.3763 29.4696 25.3165 29.5869 25.2061C29.7001 25.0994 29.7717 24.9556 29.835 24.7949L29.8457 24.7666L29.8428 24.7363C29.7592 23.9299 30.0582 23.5428 30.3711 23.4521C30.6905 23.3597 31.1235 23.544 31.377 24.0811C31.5941 24.5413 31.5047 25.1834 31.1963 25.748C30.8888 26.3109 30.3831 26.7593 29.8174 26.8545C29.0145 26.9892 28.4254 26.9877 27.9922 26.7627C27.5725 26.5445 27.2685 26.0993 27.0762 25.2686C27.1572 25.0154 27.3589 24.5406 27.5381 24.0732C27.6299 23.8337 27.7147 23.5977 27.7695 23.4043C27.7968 23.308 27.8181 23.2186 27.8281 23.1426C27.8372 23.0734 27.841 22.9902 27.8115 22.9238L27.7832 22.8594L27.7139 22.8506L27.5938 22.8438C27.315 22.8448 27.0537 22.9658 26.8174 23.0566C26.5445 23.1615 26.2782 23.24 25.9639 23.165C25.7271 22.9475 25.6284 22.5483 25.6592 22.0811C25.6905 21.6064 25.8528 21.0996 26.0889 20.7344C26.3303 20.361 26.6147 20.1804 26.8848 20.2402C27.0242 20.2711 27.1827 20.3688 27.3506 20.5752C27.5185 20.7817 27.6902 21.0908 27.8564 21.5293L28.0957 21.498C28.1521 20.9663 28.2466 20.4176 28.3301 19.8809L28.3398 19.8223L28.2988 19.7783C27.769 19.1988 27.607 18.5623 27.7451 18.001C27.8838 17.438 28.3315 16.9252 29.0703 16.6084L29.2256 16.542L29.1152 16.4131C28.4363 15.6251 27.7151 14.9735 26.8877 14.6729C26.0522 14.3693 25.125 14.4295 24.0518 15.0283C22.3755 15.9637 21.65 17.7013 21.5352 19.5469C21.4204 21.3918 21.9131 23.3665 22.6963 24.8164C23.7132 26.6988 25.1996 27.8039 26.8809 28.1709C28.5597 28.5372 30.4188 28.1642 32.1807 27.1211L32.1797 27.1201C34.3336 25.8555 35.2288 24.0678 35.8633 21.7832L35.8652 21.7773C36.4299 19.2623 35.7465 16.2231 34.8154 13.9014C33.8913 11.5968 32.1938 9.87288 30.0059 8.74609C28.1486 7.78789 26.0027 7.56723 23.9971 8.11816L23.5986 8.23828C22.2054 8.69185 20.4738 9.80623 18.9336 11.1279C17.3936 12.4495 16.027 13.9939 15.374 15.3203C13.5768 18.9707 14.0214 21.9655 15.2158 25.5918L15.2383 25.6621L15.3115 25.6748C15.7248 25.7499 16.1627 25.8702 16.583 25.9785C17.2284 26.875 17.6688 27.7191 17.875 28.6084C18.0835 29.508 18.0552 30.4625 17.7461 31.5732L17.7275 31.6396L17.7734 31.6895C18.0824 32.0322 18.3188 32.3865 18.5498 32.75C18.7797 33.1118 19.0062 33.4873 19.2891 33.8584C19.8454 34.5882 20.5258 35.3163 21.1416 36.0557C21.7626 36.8012 22.3283 37.5695 22.6836 38.4072C23.1331 39.4673 23.3961 40.3159 23.4473 41.1641C23.4983 42.0105 23.3393 42.8675 22.9307 43.9434C22.0869 46.1642 20.0628 47.9549 17.9414 48.9521C17.2789 49.2636 16.4042 49.4471 15.5234 49.4775C14.6423 49.508 13.7678 49.3851 13.1035 49.0928C11.5921 48.4273 10.7839 47.469 10.1592 46.0205C9.25629 43.9268 9.48363 42.3264 10.1416 40.8164C10.4726 40.057 10.9124 39.3203 11.3779 38.5518C11.8422 37.7852 12.3314 36.9876 12.752 36.1152C12.8535 35.9045 12.9966 35.5453 13.1123 35.1787C13.2265 34.8171 13.3203 34.4284 13.3115 34.166C13.2617 32.6926 12.7289 31.6926 12.3887 30.7139C12.2177 30.2219 12.0922 29.7305 12.0869 29.1738C12.0817 28.6176 12.1962 27.9884 12.5146 27.2227L12.5439 27.1533L12.4961 27.0957C12.0167 26.5213 11.5002 25.9978 10.9922 25.4785C10.4831 24.9581 9.98194 24.4407 9.52344 23.873C9.38237 23.6984 9.33498 23.5625 9.33398 23.457C9.33301 23.3535 9.37613 23.2581 9.45996 23.1631C9.54525 23.0665 9.66713 22.9773 9.80859 22.8896C9.92905 22.815 10.0531 22.7475 10.1768 22.6777C11.0701 23.3041 11.4956 23.693 11.8701 24.0889C12.2538 24.4944 12.5995 24.9247 13.332 25.6201L13.5352 25.4902C12.5034 22.442 12.3282 19.5883 13.04 16.9834C13.7518 14.3789 15.3537 12.0123 17.8945 9.94238C20.2611 8.01447 22.1864 6.66069 25.292 6.29395L25.291 6.29297Z" fill="var(--fill-0, #3E4144)" stroke="var(--stroke-0, #FAF7EF)" stroke-width="0.248348"/>
<path id="Vector_23" d="M16.441 32.5107C16.5064 32.5478 16.5703 32.6075 16.6305 32.6748C16.692 32.7436 16.7561 32.8279 16.8209 32.9209C16.9506 33.107 17.0896 33.3374 17.2262 33.5723C17.3644 33.8099 17.4978 34.0482 17.6237 34.2617C17.7495 34.4751 17.861 34.6514 17.9489 34.7607C18.342 35.2496 18.8253 35.7815 19.3033 36.3242C19.6606 36.7298 20.0143 37.1413 20.3199 37.54L20.608 37.9336V37.9346C20.9485 38.4332 21.2286 38.9704 21.442 39.5352L21.5592 39.874C22.0862 41.5626 21.7296 43.1799 20.8649 44.5283C19.944 45.9641 18.4466 47.0981 16.819 47.7021L16.8121 47.7041L16.8043 47.7061C16.5611 47.7636 16.3152 47.8096 16.068 47.8457L16.069 47.8467C13.9762 48.1731 12.0039 47.1169 11.4625 45.001C10.8033 42.4232 11.8506 40.6941 12.9371 38.9658C14.025 37.2354 15.1531 35.5023 14.7877 32.8662L14.7701 32.7422L14.8951 32.7266C15.2707 32.6792 15.7028 32.5959 16.0895 32.5322H16.0924L16.3639 32.4961L16.4049 32.4902L16.441 32.5107Z" fill="var(--fill-0, #FAF7EF)" stroke="var(--stroke-0, #FAF7EF)" stroke-width="0.248348"/>
<path id="Vector_24" d="M15.6731 27.6304C15.8235 27.7452 15.9495 27.9553 16.051 28.1929C16.1545 28.4352 16.2403 28.7256 16.304 29.02C16.3676 29.3146 16.4097 29.6172 16.4221 29.8862C16.4344 30.1517 16.4188 30.3976 16.3596 30.5708L16.3508 30.5972L16.3313 30.6167C16.1031 30.8546 15.8254 30.9736 15.5364 31.0444C15.2529 31.1138 14.9395 31.141 14.6545 31.1821L14.6233 31.186L14.593 31.1753C14.4164 31.1087 14.2846 31.0347 14.1819 30.9233C14.0804 30.8131 14.017 30.6759 13.9563 30.5024C13.7738 29.9807 13.6616 29.5718 13.6282 29.2446C13.5945 28.9153 13.6395 28.6558 13.7854 28.4448C13.9291 28.2372 14.1577 28.095 14.4495 27.9731C14.7413 27.8513 15.115 27.7421 15.5627 27.6099L15.6233 27.5923L15.6731 27.6304Z" fill="var(--fill-0, #FAF7EF)" stroke="var(--stroke-0, #FAF7EF)" stroke-width="0.248348"/>
<path id="Vector_25" d="M118.094 87.0522C120.083 86.8154 121.43 87.6795 122.938 88.9146C123.485 89.3623 124.202 89.9819 124.793 90.6714C125.387 91.3649 125.838 92.1096 125.886 92.8071C125.957 93.872 125.576 94.9377 125.05 95.9829C124.787 96.5047 124.49 97.0175 124.199 97.52C123.909 98.021 123.624 98.513 123.388 98.9878H123.387L123.385 98.9937C122.208 101.687 121.255 103.829 119.795 105.375C118.433 106.818 116.623 107.75 113.752 108.104L113.169 108.167C112.392 108.209 111.497 108.245 110.626 108.181C109.753 108.117 108.913 107.955 108.237 107.608L108.228 107.604L108.087 107.535C107.742 107.346 107.294 106.962 106.903 106.514C106.682 106.261 106.483 105.991 106.334 105.734C106.184 105.475 106.091 105.238 106.071 105.044C106.004 104.397 105.849 103.687 105.688 102.99C105.527 102.289 105.359 101.6 105.263 100.982C104.97 99.1138 105.545 96.6913 106.363 94.9819C107.688 92.2146 110.105 90.8837 112.737 89.6479L113.876 89.1206L113.877 89.1196C114.145 88.991 114.454 88.7902 114.757 88.5864C115.063 88.3803 115.364 88.1707 115.627 88.0151C116.439 87.5351 117.179 87.3391 118.094 87.0522Z" fill="var(--fill-0, #3E4144)" stroke="var(--stroke-0, #FAF7EF)" stroke-width="0.248348"/>
<path id="Vector_26" d="M118.494 88.5815C119.598 88.5834 120.355 88.8427 120.932 89.3481C121.503 89.8486 121.885 90.5788 122.265 91.4878L122.35 91.6909L122.132 91.6587C121.238 91.529 120.35 91.8613 119.847 92.5913C119.339 93.3299 119.058 94.048 119.08 94.7114C119.101 95.368 119.42 95.9921 120.158 96.5474L120.246 96.6138L120.191 96.7085C120.054 96.9472 119.613 97.6504 119.179 98.2925C118.962 98.6135 118.744 98.9212 118.566 99.1499C118.477 99.2636 118.397 99.3608 118.329 99.4302C118.295 99.4646 118.261 99.4961 118.229 99.519C118.204 99.5374 118.156 99.5683 118.098 99.5679C117.416 99.5644 116.51 99.8524 115.929 100.426C115.641 100.711 115.435 101.064 115.371 101.486C115.306 101.908 115.383 102.411 115.68 102.999L115.74 103.117L115.619 103.168C114.91 103.473 114.401 103.658 113.883 103.785C113.366 103.911 112.842 103.98 112.106 104.051L112.01 104.06L111.977 103.971C111.664 103.134 110.958 102.75 110.099 102.559L110.074 102.56C109.645 102.569 109.2 102.691 108.798 102.799C108.6 102.853 108.411 102.903 108.245 102.931C108.082 102.959 107.922 102.969 107.791 102.924L107.768 102.917L107.75 102.903C106.924 102.215 106.718 100.96 106.781 99.7104C106.844 98.4517 107.181 97.1505 107.493 96.3149C108.692 93.0979 111.69 91.8322 114.55 90.605L114.773 90.5093L114.72 90.7456C114.678 90.9361 114.635 91.2023 114.628 91.4565C114.621 91.718 114.653 91.9386 114.735 92.062H114.736C115.179 92.7335 115.68 93.032 116.146 93.0845C116.614 93.137 117.074 92.945 117.44 92.5825C118.174 91.8563 118.508 90.4673 117.726 89.1616L117.673 89.0757L117.625 88.9946L117.69 88.9263C117.808 88.8004 117.923 88.7376 118.051 88.6948C118.113 88.6744 118.177 88.658 118.243 88.6421C118.309 88.6259 118.38 88.6094 118.458 88.5864L118.476 88.5815H118.494Z" fill="var(--fill-0, #FAF7EF)" stroke="var(--stroke-0, #FAF7EF)" stroke-width="0.248348"/>
<path id="Vector_27" d="M110.876 95.5005C110.957 95.4914 111.087 95.5076 111.227 95.5454C111.372 95.5846 111.505 95.6402 111.579 95.6899C112.157 96.0784 112.393 96.6683 112.426 97.3003C112.458 97.9233 112.288 98.5784 112.055 99.0923C111.77 99.2996 111.569 99.4185 111.355 99.5015C111.138 99.5861 110.905 99.6362 110.55 99.7036C109.945 99.612 109.521 99.4081 109.242 99.1421C108.962 98.8742 108.82 98.5356 108.793 98.1616C108.74 97.4156 109.147 96.5276 109.845 95.8354C110.075 95.793 110.224 95.7627 110.368 95.7163C110.516 95.6689 110.656 95.605 110.876 95.5005Z" fill="var(--fill-0, #3E4144)" stroke="var(--stroke-0, #FAF7EF)" stroke-width="0.248348"/>
<path id="Vector_28" d="M119.709 100.503C119.801 100.543 119.968 100.654 120.122 100.761C120.279 100.869 120.446 100.989 120.525 101.044L120.607 101.103L120.568 101.195C119.978 102.571 119.504 103.435 118.851 104.125C118.198 104.815 117.372 105.324 116.096 106.005L116.088 106.009C116.009 106.044 115.948 106.07 115.877 106.071C115.844 106.072 115.812 106.067 115.783 106.062C115.768 106.059 115.751 106.056 115.734 106.053C115.716 106.049 115.697 106.046 115.676 106.042L115.622 106.032L115.593 105.985C115.481 105.807 115.398 105.66 115.351 105.535C115.303 105.409 115.285 105.287 115.329 105.171C115.372 105.058 115.465 104.976 115.575 104.905C115.685 104.834 115.833 104.762 116.01 104.678C117.702 103.872 118.567 102.22 119.552 100.553L119.608 100.458L119.709 100.503Z" fill="var(--fill-0, #FAF7EF)" stroke="var(--stroke-0, #FAF7EF)" stroke-width="0.248348"/>
<path id="Vector_29" d="M107.857 104.894C107.983 104.905 108.214 104.954 108.487 105.019C108.765 105.085 109.097 105.171 109.429 105.26C109.76 105.35 110.093 105.443 110.374 105.523L111.012 105.71L111.054 105.723L111.078 105.759C111.179 105.907 111.223 106.011 111.24 106.131C111.249 106.187 111.251 106.246 111.253 106.306C111.255 106.368 111.257 106.437 111.264 106.524L111.276 106.671L111.129 106.658C110.234 106.575 109.693 106.529 109.226 106.329C108.754 106.126 108.366 105.77 107.754 105.102L107.539 104.868L107.857 104.894Z" fill="var(--fill-0, #FAF7EF)" stroke="var(--stroke-0, #FAF7EF)" stroke-width="0.248348"/>
<path id="Vector_30" d="M124.019 92.3574C124.277 92.5846 124.33 92.9543 124.288 93.3467C124.245 93.7449 124.102 94.2045 123.92 94.6553C123.554 95.558 123.02 96.458 122.766 96.833L122.708 96.9199L122.613 96.877C122.579 96.8618 122.55 96.849 122.531 96.8398C122.509 96.829 122.482 96.814 122.459 96.7871C122.442 96.7676 122.427 96.7414 122.421 96.7305C122.411 96.714 122.397 96.6904 122.372 96.6553L122.328 96.5947L122.361 96.5283C123.136 94.949 123.467 94.1239 123.815 92.4248L123.859 92.2148L124.019 92.3574Z" fill="var(--fill-0, #FAF7EF)" stroke="var(--stroke-0, #FAF7EF)" stroke-width="0.248348"/>
<path id="Vector_31" d="M121.674 93.3677C121.689 93.5892 121.606 93.9117 121.461 94.2319C121.337 94.5036 121.18 94.7512 121.031 94.9136C120.916 94.6694 120.959 94.4128 121.092 94.147C121.232 93.8683 121.46 93.6002 121.672 93.3638L121.674 93.3677Z" fill="var(--fill-0, #FAF7EF)" stroke="var(--stroke-0, #FAF7EF)" stroke-width="0.248348"/>
<path id="Vector_32" d="M121.46 98.1909C121.465 98.1963 121.471 98.2042 121.489 98.2251C121.5 98.2386 121.516 98.2551 121.535 98.2769C121.546 98.4365 121.51 98.6176 121.448 98.811C121.399 98.9637 121.34 99.1116 121.283 99.2573C121.255 99.2349 121.232 99.215 121.212 99.1987C121.161 99.1588 121.139 99.1396 121.123 99.1216C121.096 99.0913 121.083 99.0613 121.019 98.8901C121.066 98.6044 121.219 98.438 121.434 98.1763C121.448 98.1845 121.455 98.1864 121.46 98.1909Z" fill="var(--fill-0, #FAF7EF)" stroke="var(--stroke-0, #FAF7EF)" stroke-width="0.248348"/>
<path id="Vector_33" d="M113.609 105.492C113.741 105.588 113.824 105.698 113.872 105.826C113.918 105.95 113.927 106.083 113.925 106.219L113.924 106.259L113.9 106.291C113.844 106.367 113.801 106.427 113.768 106.467C113.732 106.511 113.696 106.547 113.644 106.574C113.599 106.597 113.546 106.611 113.489 106.626C113.428 106.643 113.347 106.664 113.229 106.702L113.178 106.718L113.131 106.691C112.982 106.606 112.869 106.528 112.809 106.41C112.751 106.293 112.755 106.158 112.765 106L112.768 105.965L112.788 105.937C112.894 105.786 112.984 105.696 113.099 105.629C113.206 105.568 113.335 105.53 113.494 105.474L113.556 105.453L113.609 105.492Z" fill="var(--fill-0, #FAF7EF)" stroke="var(--stroke-0, #FAF7EF)" stroke-width="0.248348"/>
<path id="Vector_34" d="M127.478 37.3413C128.48 37.3274 129.329 37.4925 130.018 37.896C130.706 38.2989 131.249 38.9465 131.626 39.9194L131.678 40.0532L131.803 39.9829C132.626 39.5179 133.397 39.1681 134.296 39.0513C135.215 38.9318 135.953 39.1337 136.513 39.5317C137.075 39.9311 137.469 40.5345 137.684 41.2319C138.116 42.6309 137.825 44.3806 136.787 45.5366C136.22 46.1663 135.661 46.5353 135.052 46.7681C134.44 47.002 133.773 47.1005 132.984 47.1802L132.919 47.187L132.888 47.2437C131.741 49.3156 131.394 51.8752 130.935 54.1646L130.909 54.3003L131.045 54.313C132.019 54.4021 132.62 54.4619 133.388 55.0396C134.539 55.9058 135.081 57.3534 134.968 58.7153C134.855 60.0747 134.092 61.334 132.647 61.8413C132.227 61.989 131.8 62.0219 131.339 62.0698C130.538 61.9699 129.491 61.7393 128.803 61.2925C128.784 61.28 128.749 61.2456 128.699 61.1831C128.651 61.1238 128.598 61.0519 128.541 60.9761C128.486 60.9018 128.427 60.8234 128.37 60.7573C128.315 60.6942 128.252 60.63 128.188 60.5933C128.165 60.5801 128.113 60.5597 128.076 60.5464C128.055 60.5389 128.032 60.5313 128.014 60.5259C128.005 60.5233 127.995 60.5201 127.985 60.5181C127.98 60.5171 127.971 60.5157 127.961 60.5151C127.956 60.5149 127.948 60.5148 127.937 60.5161L127.884 60.5356C127.15 61.0116 126.477 61.4464 125.639 61.6089C124.506 61.8289 123.286 61.7082 122.328 61.0718C121.444 60.4861 120.731 59.3253 120.503 58.2935C120.329 57.4971 120.687 56.6428 121.155 55.9604C121.972 54.7711 123.333 54.564 124.731 54.3286L124.807 54.3159L124.83 54.2417C125.013 53.6315 125.54 51.9662 125.964 50.3306C126.176 49.5128 126.363 48.699 126.468 48.0259C126.521 47.6895 126.553 47.385 126.557 47.1313C126.561 46.8822 126.54 46.6643 126.47 46.5132C126.418 46.4011 126.328 46.2936 126.22 46.189C126.111 46.0833 125.976 45.9732 125.828 45.8579C125.527 45.6246 125.168 45.3668 124.806 45.0542C124.085 44.4312 123.383 43.6136 123.226 42.4448C123.069 41.2579 123.404 40.0583 124.156 39.1255L124.157 39.1245C124.62 38.5403 125.092 38.1383 125.625 37.8608C126.158 37.5839 126.757 37.4275 127.478 37.3413Z" fill="var(--fill-0, #3E4144)" stroke="var(--stroke-0, #FAF7EF)" stroke-width="0.248348"/>
<path id="Vector_35" d="M127.232 39.1919C128.404 39.0446 129.026 39.2904 129.421 39.7681C129.625 40.0141 129.775 40.3308 129.905 40.7104C130.034 41.0903 130.14 41.5245 130.258 42.0054L130.271 42.0591L130.32 42.0854C130.741 42.3108 131.072 42.4277 131.354 42.4546C131.641 42.482 131.87 42.4155 132.081 42.2915C132.286 42.1715 132.479 41.9946 132.691 41.8091C132.906 41.6206 133.152 41.4127 133.475 41.2114C133.963 40.9077 134.392 40.7926 134.749 40.8091C135.104 40.8255 135.397 40.9723 135.616 41.2104C136.032 41.6612 136.199 42.4562 135.979 43.3325L135.929 43.5093L135.927 43.519C135.734 44.4108 134.993 44.8096 134.152 45.0552C133.731 45.1778 133.303 45.2573 132.915 45.3452C132.538 45.4308 132.188 45.5262 131.964 45.686C131.482 46.0307 131.088 46.6745 130.756 47.4507C130.422 48.2311 130.143 49.1651 129.904 50.1128C129.664 51.0609 129.461 52.0276 129.281 52.8716C129.099 53.7186 128.942 54.4375 128.789 54.8999L128.773 54.9507L128.797 54.9966L128.852 55.1011L128.853 55.103C129.005 55.3837 129.14 55.667 129.337 55.8696C129.546 56.0837 129.819 56.2063 130.238 56.1997C131.406 56.181 132.228 56.363 132.692 56.8188C133.147 57.2664 133.293 58.0182 133.008 59.2437C132.959 59.4538 132.825 59.6204 132.639 59.7632C132.454 59.9047 132.229 60.0153 132.007 60.1216C131.171 60.3515 130.631 60.2113 130.229 59.9399C129.812 59.6585 129.536 59.2359 129.231 58.856C128.935 58.4889 128.601 58.1522 128.087 58.1841C127.836 58.1997 127.556 58.3031 127.23 58.5093C126.903 58.7157 126.524 59.0297 126.075 59.4771C125.691 59.86 125 60.0226 124.31 59.9058C123.624 59.7895 122.972 59.4021 122.662 58.7261C122.364 58.0754 122.339 57.6297 122.457 57.314C122.576 56.999 122.85 56.7794 123.229 56.6079C123.609 56.436 124.072 56.3225 124.542 56.2046C125.006 56.0884 125.477 55.9676 125.85 55.7817L125.874 55.77L125.892 55.7485C126.236 55.3199 126.562 54.6562 126.856 53.8784C127.151 53.0979 127.418 52.1922 127.642 51.2729C128.089 49.4375 128.367 47.5318 128.348 46.4399C128.338 45.8603 128.016 45.3871 127.595 44.9683C127.178 44.5532 126.632 44.1629 126.163 43.771C125.685 43.3712 125.276 42.9631 125.077 42.4897C124.883 42.0265 124.884 41.4837 125.264 40.7954C125.52 40.3309 125.764 40.0101 126.065 39.7661C126.364 39.5233 126.727 39.3495 127.232 39.1919Z" fill="var(--fill-0, #FAF7EF)" stroke="var(--stroke-0, #FAF7EF)" stroke-width="0.248348"/>
<path id="Vector_36" d="M99.8372 5.35352C104.143 4.96452 108.085 7.40281 109.9 10.6318C110.807 12.2458 111.18 14.0514 110.807 15.7959C110.435 17.5387 109.315 19.2349 107.213 20.627C105.733 21.6071 105.012 21.9507 103.369 22.6377C99.9889 23.8636 96.2456 22.1454 94.4739 19.1035C92.8001 16.23 92.4681 13.2194 93.386 10.7188C94.3023 8.22277 96.471 6.2161 99.8372 5.35352Z" fill="var(--fill-0, #3E4144)" stroke="var(--stroke-0, #FAF7EF)" stroke-width="0.248348"/>
<path id="Vector_37" d="M104.061 7.60352C104.226 7.66372 104.39 7.72865 104.551 7.79883H104.55C106.223 8.51381 107.696 9.83644 108.554 11.4375C109.412 13.0406 109.654 14.9286 108.852 16.7598L108.848 16.7676L108.844 16.7744C108.773 16.8896 108.726 16.961 108.671 17.0283C108.617 17.0946 108.556 17.1558 108.463 17.251L108.431 17.2832L108.386 17.2881C108.165 17.3091 107.943 17.2351 107.729 17.1035C107.516 16.9718 107.302 16.7772 107.093 16.542C106.674 16.0713 106.257 15.421 105.881 14.7314C105.129 13.3534 104.523 11.7887 104.367 11.1201C104.131 10.109 103.994 8.75543 103.894 7.73145L103.876 7.53516L104.061 7.60352Z" fill="var(--fill-0, #FAF7EF)" stroke="var(--stroke-0, #FAF7EF)" stroke-width="0.248348"/>
<path id="Vector_38" d="M100.606 6.95068C101.147 6.92663 101.677 7.02153 102.196 7.09131L102.301 7.10596L102.304 7.21143C102.349 8.89343 102.749 11.3151 103.543 13.519C104.34 15.7297 105.521 17.6877 107.102 18.4878L107.294 18.5854L107.114 18.7026C106.648 19.006 106.037 19.5316 105.579 19.9028L105.528 19.9429L105.466 19.9253L105.328 19.8862L105.291 19.8765L105.266 19.8462C104.849 19.3422 104.303 18.4735 103.704 17.4214C103.103 16.367 102.446 15.1214 101.804 13.8599C100.521 11.3367 99.3021 8.74421 98.7339 7.47803L98.6753 7.34717L98.813 7.30811C99.3255 7.16207 99.8506 7.06955 100.364 6.97021L100.374 6.96826L100.606 6.95068Z" fill="var(--fill-0, #FAF7EF)" stroke="var(--stroke-0, #FAF7EF)" stroke-width="0.248348"/>
<path id="Vector_39" d="M97.2445 8.25342C97.3062 8.30407 97.3738 8.39859 97.4418 8.50732C97.513 8.62132 97.5949 8.76719 97.682 8.93311C97.8563 9.26514 98.0575 9.68611 98.2572 10.1157C98.6589 10.9799 99.0499 11.8731 99.2064 12.186V12.187C100.625 15.0309 101.997 18.0305 103.872 20.5825L103.962 20.7046L103.825 20.769C103.088 21.1107 102.563 21.2452 101.803 21.4351L101.688 21.4644L101.654 21.3501C100.362 16.9353 98.6039 13.9208 95.1127 10.8579L95.0404 10.7944L95.0844 10.7085C95.3353 10.2159 95.654 9.80847 95.9984 9.42334C96.1704 9.23104 96.3494 9.04272 96.5297 8.85303C96.7103 8.66287 96.8927 8.47086 97.0726 8.26709L97.1517 8.17725L97.2445 8.25342Z" fill="var(--fill-0, #FAF7EF)" stroke="var(--stroke-0, #FAF7EF)" stroke-width="0.248348"/>
<path id="Vector_40" d="M94.6746 12.5957C95.6607 13.3114 96.8768 14.8632 97.8924 16.5273C98.9082 18.1919 99.7409 19.9974 99.9412 21.2314L99.9725 21.4268L99.783 21.3701C96.34 20.3447 94.631 16.9744 94.4451 13.6396C94.4252 13.2885 94.4316 13.0276 94.4783 12.6797L94.5057 12.4736L94.6746 12.5957Z" fill="var(--fill-0, #FAF7EF)" stroke="var(--stroke-0, #FAF7EF)" stroke-width="0.248348"/>
<path id="Vector_41" d="M56.4801 106.347C57.2766 106.336 58.1311 106.355 58.8737 106.484C59.6215 106.615 60.2284 106.854 60.5592 107.261C60.88 107.655 60.967 108.242 60.5924 109.141C60.2339 110.001 59.4683 110.229 58.6168 110.56C57.0312 110.255 55.1821 110.353 53.6022 110.441L53.526 110.446L53.4957 110.516C53.4277 110.671 53.3494 110.811 53.2662 110.952C53.1841 111.091 53.095 111.236 53.0114 111.39C52.6855 111.99 52.4259 112.517 52.1627 112.978C51.9014 113.435 51.646 113.809 51.3424 114.091C50.7528 114.637 49.9525 114.861 48.4703 114.593C48.2178 114.314 47.8916 113.865 47.6422 113.534C47.9126 113.042 48.0677 112.654 48.278 112.134L48.3864 111.866L48.1178 111.972C47.6892 112.14 47.2844 112.328 46.8776 112.514C46.4698 112.7 46.0584 112.885 45.61 113.051L45.609 113.052C41.0848 114.772 36.272 115.609 31.4323 115.519H31.4332C30.6334 115.469 28.628 115.299 26.8385 114.869C25.9427 114.654 25.1104 114.376 24.5114 114.021C23.908 113.663 23.5764 113.25 23.5992 112.773C23.6182 112.379 23.7301 112.089 23.9049 111.876C24.0805 111.662 24.3287 111.514 24.6373 111.418C25.2606 111.224 26.1034 111.252 27.0035 111.348C27.4512 111.395 27.9074 111.459 28.3531 111.52C28.7979 111.58 29.2327 111.635 29.6315 111.666C30.0294 111.697 30.3982 111.703 30.7106 111.66C31.021 111.618 31.2923 111.525 31.4791 111.345L31.527 111.299L31.5153 111.233C31.4885 111.088 31.383 110.95 31.2711 110.83C31.1565 110.707 31.0108 110.578 30.8785 110.454C30.7425 110.327 30.6175 110.203 30.5289 110.08C30.4398 109.957 30.3995 109.85 30.4059 109.756C30.431 109.389 30.6218 109.113 30.9196 108.914C31.2209 108.713 31.6305 108.593 32.0729 108.55C32.514 108.507 32.9796 108.542 33.3873 108.643C33.7977 108.744 34.1366 108.907 34.3375 109.111L34.3385 109.112C34.9874 109.76 35.4063 110.089 35.8815 110.213C36.3507 110.335 36.8617 110.253 37.6656 110.14C39.3609 109.899 40.93 109.345 42.4713 108.744C44.0162 108.141 45.529 107.492 47.1305 107.049C48.8804 106.564 51.2348 106.503 53.0865 106.413C53.5227 106.402 54.039 106.365 54.4528 106.379C54.9471 106.395 55.6909 106.357 56.4801 106.347Z" fill="var(--fill-0, #3E4144)" stroke="var(--stroke-0, #FAF7EF)" stroke-width="0.248348"/>
<path id="Vector_42" d="M57.3435 107.901C57.6778 107.915 58.0112 107.948 58.3054 108.015C58.5611 108.073 58.7966 108.158 58.9783 108.287L59.0525 108.344L59.073 108.361L59.0837 108.384L59.113 108.445L59.1482 108.516L59.0974 108.578C59.0134 108.68 58.9346 108.745 58.8337 108.782C58.7415 108.816 58.6376 108.822 58.5242 108.833C58.2885 108.853 57.8011 108.843 57.2097 108.826C56.6137 108.808 55.9035 108.783 55.2097 108.769C54.5155 108.756 53.842 108.754 53.321 108.787C53.0601 108.803 52.8415 108.827 52.6794 108.861C52.5985 108.878 52.5357 108.896 52.49 108.916C52.4416 108.936 52.4253 108.952 52.4226 108.956C52.2554 109.181 52.1159 109.452 51.9851 109.739C51.8574 110.018 51.7319 110.326 51.6042 110.59C51.1502 111.532 50.6195 112.572 50.0203 113.439L49.7966 113.343C49.9112 112.784 50.0858 112.275 50.2507 111.778C50.4164 111.279 50.5724 110.791 50.657 110.263C50.7037 109.971 50.6497 109.771 50.5378 109.6C50.4327 109.44 50.2725 109.302 50.071 109.137C49.0927 109.879 47.7282 110.543 46.3191 111.109C44.8686 111.692 43.3636 112.177 42.1726 112.545C38.1983 113.776 33.0501 114.217 28.9705 113.631L28.864 113.617V113.509L28.8621 113.28L28.8611 113.128L29.0095 113.157C29.4252 113.237 30.2301 113.23 31.0398 113.143C31.4424 113.1 31.8417 113.037 32.1892 112.957C32.5392 112.875 32.8278 112.777 33.0144 112.668C33.2231 112.547 33.3465 112.392 33.4138 112.216C33.4822 112.038 33.4959 111.832 33.4714 111.609C33.4221 111.159 33.2232 110.676 33.0642 110.279L33.2712 110.15C34.1758 111.155 34.7576 111.627 35.4275 111.806C36.1042 111.987 36.889 111.876 38.2253 111.649H38.2263C40.4665 111.268 42.8136 110.411 44.8787 109.506C48.3981 107.964 51.8421 108.008 55.5691 107.926C55.9838 107.917 56.6773 107.872 57.3435 107.901Z" fill="var(--fill-0, #FAF7EF)" stroke="var(--stroke-0, #FAF7EF)" stroke-width="0.248348"/>
<path id="Vector_43" d="M28.0645 113.256C28.3482 113.297 28.6219 113.341 28.8087 113.374C28.5986 113.357 28.3353 113.314 28.0645 113.256Z" fill="var(--fill-0, #63646A)" stroke="var(--stroke-0, #FAF7EF)" stroke-width="0.248348"/>
<path id="Vector_44" d="M129.942 15.0132C130.326 14.9573 130.572 15.0424 130.734 15.1909C130.901 15.3442 130.999 15.5851 131.043 15.8823C131.128 16.4655 130.994 17.1975 130.871 17.6733C130.731 17.8148 130.47 18.0394 130.144 18.3032C129.803 18.5801 129.399 18.897 129.009 19.2017C128.619 19.5058 128.244 19.7981 127.961 20.0259C127.819 20.1397 127.7 20.2385 127.613 20.3149C127.57 20.353 127.533 20.3874 127.506 20.4155C127.492 20.4295 127.478 20.4432 127.468 20.4565C127.458 20.4677 127.444 20.4864 127.434 20.5093L127.393 20.6069L127.483 20.6626C127.906 20.9271 128.243 21.0066 128.41 21.4771C128.851 22.7222 128.602 23.6673 127.971 24.2661C127.334 24.8717 126.28 25.1489 125.066 24.9917C123.879 24.838 123.237 24.8026 122.03 24.4106L121.951 24.3843L121.897 24.4478C119.996 26.6919 118.55 29.3382 117.208 31.9253C116.735 32.7727 116.193 33.5873 115.638 34.397C115.085 35.2051 114.515 36.0104 113.991 36.8354C113.237 38.0245 112.482 39.1722 111.102 39.5103C110.663 39.6178 110.317 39.6611 109.989 39.6274C109.666 39.5943 109.352 39.485 108.976 39.2759C108.442 38.7424 108.231 38.3439 108.166 37.9194C108.1 37.4876 108.181 37.0203 108.272 36.3276C110.953 34.0798 112.266 32.261 113.687 29.1196C113.768 29.0214 113.814 28.9246 113.812 28.8257C113.811 28.7181 113.755 28.6393 113.7 28.5864C113.647 28.5357 113.581 28.4965 113.544 28.4722C113.53 28.4634 113.521 28.4557 113.514 28.4507C113.432 27.8546 113.282 27.3075 113.127 26.7935C112.968 26.2668 112.808 25.7801 112.707 25.2983C112.606 24.8189 112.565 24.3526 112.645 23.8745C112.724 23.4054 112.919 22.918 113.297 22.3911C113.64 22.2434 113.992 22.149 114.364 22.0415C114.954 22.2122 115.265 22.3709 115.513 22.5981C115.774 22.8363 115.97 23.1503 116.334 23.6616L116.416 23.7759L116.519 23.6812C116.904 23.327 117.335 22.8149 117.775 22.2856C118.218 21.7534 118.673 21.201 119.112 20.7524C121.762 18.0456 126.249 15.7626 129.942 15.0132Z" fill="var(--fill-0, #3E4144)" stroke="var(--stroke-0, #FAF7EF)" stroke-width="0.248348"/>
<path id="Vector_45" d="M129.037 16.8101L129.103 16.8276L129.192 16.8521L129.196 16.9438C129.198 17.0109 129.165 17.0717 129.135 17.1157C129.103 17.164 129.058 17.2155 129.006 17.2681C128.9 17.3739 128.75 17.4989 128.573 17.6343C128.218 17.9059 127.739 18.2324 127.245 18.5591C126.752 18.8849 126.236 19.2158 125.815 19.4927C125.388 19.7735 125.061 19.997 124.927 20.1147C124.764 20.2592 124.634 20.364 124.53 20.4507C124.425 20.5379 124.348 20.6056 124.279 20.6802C124.152 20.8185 124.048 20.9894 123.88 21.3696C124.138 21.6793 124.296 21.8501 124.484 21.9438C124.679 22.0408 124.922 22.0626 125.383 22.022C125.605 22.0024 125.941 22.0018 126.257 22.0562C126.415 22.0834 126.572 22.1247 126.709 22.187C126.845 22.249 126.968 22.3359 127.049 22.4575L127.075 22.4976L127.068 22.5444C127.027 22.8132 126.925 23.0203 126.767 23.1675C126.61 23.3139 126.408 23.3914 126.186 23.4224C125.748 23.4834 125.199 23.3689 124.649 23.2075C124.101 23.0464 123.517 22.8268 123.032 22.6704C122.786 22.591 122.563 22.5267 122.373 22.4897C122.179 22.4523 122.034 22.4464 121.937 22.4702C121.826 22.4976 121.671 22.5874 121.487 22.73C121.307 22.8698 121.11 23.0502 120.919 23.2427C120.631 23.5318 120.357 23.8436 120.168 24.0767L120.008 24.2798C118.843 25.8392 117.791 27.4804 116.861 29.1909V29.1929C115.755 31.1817 114.857 32.998 113.407 34.8521C113.161 35.1671 112.967 35.4742 112.788 35.772C112.61 36.0679 112.443 36.36 112.257 36.6333C111.879 37.187 111.412 37.6745 110.554 38.0542L110.532 38.0649H110.507C110.322 38.0685 110.173 38.0717 110.045 38.0171C109.91 37.9594 109.815 37.8466 109.706 37.6802L109.679 37.6411L109.686 37.5942C109.717 37.3772 109.859 37.145 110.043 36.9175C110.229 36.6861 110.474 36.4422 110.73 36.1987C111.251 35.7048 111.818 35.2201 112.135 34.8218C113.722 32.8341 114.473 31.0912 115.558 28.8403C115.448 28.6432 115.304 28.3121 115.155 27.9185C114.988 27.477 114.808 26.9475 114.649 26.4204C114.491 25.894 114.354 25.367 114.271 24.9302C114.23 24.712 114.202 24.5131 114.192 24.3472C114.183 24.186 114.19 24.038 114.232 23.9321L114.268 23.8394L114.366 23.855C114.436 23.8658 114.498 23.9107 114.545 23.9526C114.595 23.998 114.649 24.0583 114.704 24.1265C114.814 24.2633 114.943 24.4483 115.082 24.6489C115.362 25.0554 115.69 25.535 116.028 25.8862C116.197 26.0617 116.363 26.1988 116.52 26.2788C116.676 26.3581 116.815 26.3772 116.941 26.3354C117.069 26.293 117.209 26.1792 117.348 25.9409C117.488 25.7025 117.621 25.3495 117.739 24.8511C117.753 24.7919 117.786 24.7255 117.824 24.6597C117.863 24.5916 117.914 24.515 117.971 24.4341C118.087 24.272 118.237 24.0852 118.391 23.8999C118.701 23.5293 119.039 23.1566 119.188 22.9878L119.189 22.9868C121.815 20.0637 125.201 17.9257 128.969 16.811L129.003 16.8013L129.037 16.8101Z" fill="var(--fill-0, #FAF7EF)" stroke="var(--stroke-0, #FAF7EF)" stroke-width="0.248348"/>
<path id="Vector_46" d="M142.126 18.8032C142.775 18.8606 143.118 19.2772 143.415 19.853L143.543 20.1138C144.511 22.1836 145.651 23.9425 144.921 26.2056L144.902 26.2651L144.938 26.3169C145.63 27.276 146.13 28.2404 145.625 29.3462C145.365 29.8336 145.579 30.3014 145.836 30.6919C145.964 30.8872 146.119 31.0851 146.241 31.2563C146.368 31.4352 146.463 31.591 146.503 31.729C146.909 33.1628 146.965 34.1776 146.784 34.8569C146.694 35.1941 146.547 35.4463 146.356 35.6284C146.166 35.8105 145.926 35.9284 145.644 35.9878C145.076 36.1075 144.338 35.9882 143.515 35.6792C142.798 35.4098 142.027 35.0007 141.263 34.4995L140.935 34.2788C140.879 34.2399 140.776 34.1899 140.66 34.1382C140.54 34.0847 140.395 34.0247 140.248 33.9653C139.955 33.8472 139.649 33.7304 139.505 33.6753H139.506C138.649 33.3184 137.729 32.9069 136.814 32.606C135.861 32.2925 134.099 31.8297 132.838 31.0786C132.207 30.703 131.724 30.2671 131.524 29.7632C131.329 29.271 131.393 28.6838 131.92 27.9712C132.731 26.8739 134.081 26.5474 135.432 26.3481L135.538 26.3325L135.539 26.2261C135.551 25.0364 135.903 24.3723 136.479 23.9995C137.069 23.6183 137.923 23.5208 138.988 23.5405L139.076 23.5425L139.106 23.4595C139.204 23.1937 139.357 22.8753 139.482 22.5981L140.783 21.7231L140.811 21.7046L140.825 21.6743C140.953 21.4058 141.052 21.1163 141.138 20.8296C141.227 20.5387 141.301 20.2582 141.389 19.9878C141.561 19.4625 141.765 19.038 142.126 18.8032Z" fill="var(--fill-0, #3E4144)" stroke="var(--stroke-0, #FAF7EF)" stroke-width="0.248348"/>
<path id="Vector_47" d="M142.57 22.0015C142.918 22.3618 143.166 22.9181 143.337 23.4868C143.508 24.0591 143.607 24.6601 143.647 25.1226L143.651 25.1655L143.627 25.2017C143.148 25.931 143.1 26.2951 143.226 26.6216C143.293 26.7958 143.413 26.9695 143.578 27.188C143.74 27.4033 143.941 27.6575 144.152 27.981C144.211 28.0709 144.246 28.1998 144.259 28.3188C144.269 28.4069 144.269 28.5065 144.248 28.5942L144.218 28.6772C144.058 29.0124 143.806 29.1658 143.51 29.2056C143.227 29.2435 142.907 29.1774 142.595 29.0962C142.275 29.0125 141.963 28.9128 141.663 28.8628C141.364 28.8131 141.106 28.8179 140.898 28.9243C140.709 29.0213 140.57 29.1953 140.517 29.4019V29.4028C140.478 29.5524 140.486 29.6794 140.526 29.7896C140.566 29.9007 140.642 30.0033 140.752 30.0981C140.974 30.2904 141.321 30.4378 141.723 30.5513C142.126 30.6648 142.568 30.7399 142.967 30.7954L143.964 30.9224L144.008 30.9292L144.039 30.9634C144.383 31.3571 144.794 31.8962 145.052 32.481C145.311 33.0646 145.426 33.7145 145.144 34.311L145.114 34.3745L145.045 34.3813C144.997 34.3863 144.941 34.3776 144.888 34.3657C144.833 34.3532 144.768 34.3343 144.697 34.3101C144.554 34.2615 144.375 34.1899 144.174 34.103C143.769 33.929 143.262 33.6892 142.74 33.438C141.691 32.933 140.59 32.3851 140.113 32.2065L140.11 32.2056C139.157 31.8259 138.205 31.4492 137.247 31.0845C136.874 30.9425 136.497 30.8297 136.122 30.7212C135.748 30.6131 135.373 30.5081 135.009 30.3823C134.281 30.1301 133.587 29.7896 132.996 29.1499L132.905 29.0522L133.008 28.9692C134.158 28.0473 135.357 28.0384 136.128 27.8247C136.516 27.7169 136.797 27.5621 136.965 27.2397C137.137 26.9076 137.203 26.3744 137.092 25.4771L137.08 25.3774L137.174 25.3442C137.572 25.2055 138.018 25.1372 138.415 25.062L138.486 25.0483L138.533 25.104C138.823 25.4496 139.356 26.0396 139.918 26.3862C140.199 26.5598 140.473 26.6634 140.718 26.6577C140.947 26.6523 141.164 26.5508 141.354 26.2827C141.379 25.7545 141.055 25.4281 140.68 24.9458L140.656 24.9146L140.654 24.8755C140.619 24.1547 140.7 23.8304 140.948 23.5854C141.062 23.473 141.21 23.3798 141.368 23.271C141.49 23.1871 141.627 23.0879 141.782 22.9546L141.942 22.8091C141.967 22.7851 142.001 22.7404 142.042 22.6763C142.081 22.6136 142.123 22.5388 142.164 22.4604C142.246 22.3037 142.321 22.1378 142.368 22.0356L142.443 21.8696L142.57 22.0015Z" fill="var(--fill-0, #FAF7EF)" stroke="var(--stroke-0, #FAF7EF)" stroke-width="0.248348"/>
<path id="Vector_48" d="M9.98938 100.335C10.4513 100.281 10.7758 100.372 11.0236 100.542C11.28 100.719 11.4677 100.988 11.6359 101.311C11.7196 101.472 11.7974 101.642 11.8761 101.818C11.9544 101.993 12.0346 102.173 12.1212 102.347C12.2942 102.695 12.5007 103.033 12.799 103.285C13.1056 103.544 13.4082 103.722 13.6837 103.873C13.963 104.025 14.2036 104.144 14.4083 104.293C14.6082 104.439 14.7666 104.608 14.8741 104.853C14.9827 105.1 15.0439 105.434 15.0323 105.915L15.0294 106.017L15.13 106.039C15.5362 106.127 15.8669 106.196 16.1447 106.276C16.4211 106.356 16.6354 106.444 16.8097 106.569C17.1521 106.813 17.3699 107.217 17.5529 108.067L17.5675 108.135L17.6339 108.158C18.4338 108.434 18.8902 108.775 19.1075 109.123C19.3204 109.463 19.3147 109.829 19.1476 110.193C18.9784 110.561 18.6436 110.924 18.2072 111.234C17.772 111.542 17.243 111.792 16.6974 111.938C16.1961 112.073 15.5797 112.31 14.963 112.555C14.4976 112.74 14.0316 112.93 13.6085 113.088L13.2013 113.234C12.7694 113.383 12.2736 113.584 11.7531 113.787C11.2306 113.99 10.6802 114.198 10.132 114.365C9.02774 114.7 7.96415 114.857 7.16614 114.513C6.74185 114.33 6.5069 114.057 6.3927 113.736C6.27665 113.409 6.28138 113.021 6.36047 112.611C6.51918 111.787 6.96696 110.921 7.24133 110.372L7.2804 110.293L7.22083 110.23C7.17113 110.178 7.12197 110.126 7.07434 110.072L7.07336 110.071L6.92493 109.893C6.227 109 6.21619 108.017 6.56848 107.077C6.94678 106.067 7.74264 105.115 8.547 104.412L8.58508 104.377L8.58899 104.328C8.6426 103.636 8.68984 102.819 8.88196 102.076C9.07159 101.342 9.39713 100.704 9.98938 100.335Z" fill="var(--fill-0, #3E4144)" stroke="var(--stroke-0, #FAF7EF)" stroke-width="0.248348"/>
<path id="Vector_49" d="M10.4978 102.858C10.5493 102.892 10.6045 102.957 10.656 103.024C10.7111 103.095 10.7747 103.187 10.8445 103.289C10.9854 103.494 11.1536 103.748 11.3386 104.001C11.5236 104.255 11.7214 104.503 11.9197 104.696C12.0709 104.843 12.2134 104.949 12.3425 105.004L12.4675 105.043L12.4998 105.052C12.5079 105.055 12.518 105.059 12.5291 105.063C12.5514 105.071 12.581 105.083 12.615 105.096C12.6832 105.123 12.7712 105.159 12.8611 105.196L13.2761 105.364L13.3132 105.378L13.3347 105.413C13.4344 105.568 13.4495 105.722 13.4373 105.877C13.4313 105.953 13.4189 106.031 13.406 106.109C13.3929 106.188 13.3788 106.269 13.3689 106.356L13.3601 106.431L13.2898 106.458C13.006 106.568 12.6212 106.725 12.3162 106.93C12.0026 107.141 11.8201 107.371 11.8445 107.616C11.884 108.013 12.0167 108.217 12.1736 108.315C12.3346 108.416 12.5548 108.428 12.8123 108.368C13.3282 108.247 13.9064 107.858 14.1912 107.6L14.2302 107.565L14.283 107.568C14.7074 107.595 15.0045 107.637 15.3601 107.702L15.7419 107.774L15.8171 107.789L15.8376 107.862C16.0177 108.495 16.0682 108.68 16.3718 109.226L17.364 109.793L17.6101 109.935L17.3396 110.02C16.5929 110.256 15.865 110.535 15.1335 110.822C14.4029 111.108 13.6675 111.401 12.9128 111.661L12.9119 111.662C11.8179 112.022 10.7694 112.432 9.69312 112.851V112.852C9.47012 112.939 9.1664 113.07 8.87769 113.117C8.58473 113.164 8.2687 113.129 8.0564 112.84L8.03394 112.81L8.03198 112.773C8.01288 112.414 8.12788 112.087 8.28589 111.786C8.44152 111.488 8.65131 111.195 8.82202 110.922L8.86499 110.853L8.94604 110.866C9.79405 110.997 10.2671 110.648 10.3982 110.258C10.5277 109.873 10.3474 109.379 9.75073 109.135C9.53711 109.144 9.42142 109.221 9.30835 109.307C9.18933 109.398 9.04815 109.526 8.80835 109.53L8.74878 109.531L8.71069 109.485C8.55802 109.301 8.36211 109.092 8.21655 108.873C8.06844 108.649 7.95703 108.394 7.98022 108.101C8.02557 107.532 8.39476 106.902 8.82397 106.336C9.2445 105.783 9.73872 105.27 10.0955 104.91C10.1619 104.255 10.2325 103.601 10.3054 102.948L10.3279 102.745L10.4978 102.858Z" fill="var(--fill-0, #FAF7EF)" stroke="var(--stroke-0, #FAF7EF)" stroke-width="0.248348"/>
<path id="Vector_50" d="M30.8868 89.5171C33.9461 88.7578 37.0423 90.6188 37.8057 93.6753C38.569 96.7321 36.7103 99.8292 33.6524 100.595C30.5902 101.363 27.4863 99.5019 26.7217 96.4409C25.9573 93.3796 27.8226 90.2777 30.8868 89.5171Z" fill="var(--fill-0, #3E4144)" stroke="var(--stroke-0, #FAF7EF)" stroke-width="0.248348"/>
<path id="Vector_51" d="M31.4045 91.1367C32.0278 91.1205 32.2921 91.157 32.8859 91.251C32.6875 93.9857 32.3018 96.0014 33.4758 98.7549C33.0397 98.8773 32.7193 98.9508 32.3967 98.9883C32.0538 99.0281 31.7044 99.0281 31.2072 99.0039C31.1832 98.9667 31.1593 98.9065 31.1398 98.8125C31.1144 98.6895 31.0997 98.5312 31.0861 98.3389C31.0593 97.9588 31.038 97.4605 30.9348 96.915C30.7311 95.8388 30.2079 94.5726 28.7072 93.5674C28.7632 93.4516 28.8199 93.3362 28.8801 93.2227L29.1203 92.7939C29.4454 92.2364 29.7227 91.9054 30.0598 91.6729C30.3965 91.4406 30.8031 91.298 31.4045 91.1367Z" fill="var(--fill-0, #FAF7EF)" stroke="var(--stroke-0, #FAF7EF)" stroke-width="0.248348"/>
<path id="Vector_52" d="M34.8672 92.4048C36.2635 93.616 36.4254 95.6627 35.5782 97.2847C35.5066 97.3639 35.4661 97.4041 35.4239 97.438C35.3869 97.4677 35.3479 97.492 35.2852 97.5347L35.2237 97.5063C35.0702 97.2573 34.9568 96.8944 34.8799 96.4575C34.8005 96.006 34.7614 95.4874 34.7491 94.9595C34.7271 94.0184 34.7934 93.0562 34.8672 92.4048Z" fill="var(--fill-0, #FAF7EF)" stroke="var(--stroke-0, #FAF7EF)" stroke-width="0.248348"/>
<path id="Vector_53" d="M47.6099 4.32031C48.7742 4.21772 49.6506 4.52846 50.2876 5.12793C50.9319 5.73437 51.3445 6.64927 51.5483 7.77148L51.5659 7.86523L51.6606 7.87305C52.1673 7.91452 52.6736 7.96176 53.1792 8.01465L53.2271 8.01953L53.2661 7.99023C53.5702 7.76452 53.8455 7.51709 54.1108 7.2793C54.3778 7.04008 54.6346 6.81118 54.9058 6.61328C55.4432 6.22106 56.0345 5.95572 56.8579 6.01074H56.8589C57.5506 6.05503 58.1942 6.38096 58.6392 6.91211C59.7485 8.2272 59.7217 10.2755 58.3345 11.375L58.2661 11.4297L58.2944 11.5117C58.6196 12.4662 58.7472 13.1862 58.5688 13.7705C58.394 14.3429 57.9133 14.8173 56.9341 15.2529C55.8393 15.4667 55.0535 15.257 54.4624 14.7725C53.8626 14.2807 53.4468 13.4934 53.1265 12.5244L53.1069 12.4648L53.0483 12.4453L52.479 12.2627C51.1763 11.8684 50.0294 11.688 48.6392 11.4385L48.5659 11.4258L48.52 11.4844C47.7665 12.4491 46.9486 12.7377 46.2271 12.6367C45.4975 12.5346 44.8355 12.0302 44.4106 11.3496C43.9863 10.6696 43.8095 9.83093 44.0288 9.07812C44.2464 8.33161 44.8604 7.64688 46.064 7.27832L46.063 7.27734L46.1226 7.26074L46.1831 7.24219L46.2046 7.18262C46.3337 6.81272 46.368 6.49487 46.3794 6.21582C46.3911 5.92859 46.3791 5.71015 46.4116 5.49609C46.4423 5.29435 46.5121 5.11143 46.6851 4.9248C46.8592 4.73693 47.1426 4.5397 47.6099 4.32031Z" fill="var(--fill-0, #3E4144)" stroke="var(--stroke-0, #FAF7EF)" stroke-width="0.248348"/>
<path id="Vector_54" d="M48.1846 5.78174C48.7468 5.93438 49.1153 6.18031 49.3663 6.48389C49.6154 6.78525 49.7405 7.13418 49.8331 7.47607C49.928 7.82693 49.9858 8.15264 50.1016 8.45947C50.2142 8.75741 50.3754 9.01613 50.6622 9.21045C50.705 9.23941 50.7788 9.27091 50.8848 9.30322C50.9892 9.33499 51.1173 9.3649 51.2628 9.39209C51.5536 9.44645 51.9074 9.48982 52.2686 9.52197C52.993 9.58644 53.7334 9.60516 54.043 9.58252C54.2907 9.56441 54.4475 9.47182 54.5801 9.33447C54.7225 9.18706 54.8291 8.99945 54.9883 8.771C55.4187 8.03034 56.0354 7.55031 56.6153 7.54736C56.9128 7.54597 57.1886 7.67201 57.4053 7.93311C57.6192 8.19076 57.7728 8.57536 57.8458 9.09326L57.8467 9.10205V9.27197C57.8349 9.43399 57.7869 9.57233 57.7032 9.69189C57.594 9.8478 57.4323 9.96092 57.2481 10.0571C56.5415 10.4265 56.2546 10.7308 56.168 10.981C56.0853 11.2205 56.174 11.449 56.3477 11.7153C56.4351 11.8492 56.5335 11.9777 56.6348 12.1216C56.7334 12.2615 56.8312 12.4108 56.9014 12.5688C56.972 12.7278 57.0171 12.9 57.0079 13.0854C56.9985 13.2719 56.9342 13.4632 56.8008 13.6606L56.7706 13.7065L56.7159 13.7144C56.2014 13.7889 55.8274 13.7284 55.543 13.5581C55.26 13.3887 55.0851 13.1218 54.9454 12.8276C54.8755 12.6805 54.813 12.5224 54.7501 12.3628C54.6866 12.2019 54.6221 12.0388 54.5489 11.8755C54.4067 11.5582 54.2317 11.2471 53.9669 10.9751C52.3118 10.5254 50.7356 10.1764 49.046 9.91553C48.6067 9.84772 48.3123 9.85603 48.1016 9.90674C47.8955 9.9564 47.7619 10.0484 47.6446 10.1646C47.5843 10.2243 47.5277 10.2907 47.4669 10.3638C47.4072 10.4355 47.3429 10.5143 47.2696 10.5923C47.1204 10.7511 46.9327 10.9099 46.6505 11.0366L46.6241 11.0483L46.5958 11.0474C46.2904 11.0366 46.0306 10.8724 45.8448 10.6577C45.6594 10.4435 45.5369 10.168 45.5098 9.90967V9.90576C45.4854 9.58919 45.611 9.35557 45.8135 9.18115C46.0092 9.01273 46.2773 8.89846 46.546 8.8042C46.8269 8.70565 47.0934 8.63244 47.3438 8.53564C47.5904 8.4403 47.7758 8.33725 47.878 8.20557C48.1213 7.89169 48.0528 7.54468 47.9571 7.12646C47.866 6.72855 47.7479 6.25926 48.0508 5.83057L48.1006 5.75928L48.1846 5.78174Z" fill="var(--fill-0, #FAF7EF)" stroke="var(--stroke-0, #FAF7EF)" stroke-width="0.248348"/>
<path id="Vector_55" d="M15.9059 77.6289C16.0744 77.6505 16.1591 77.6717 16.234 77.707C16.3125 77.744 16.3851 77.7978 16.527 77.9023C16.6664 78.1415 16.6762 78.4467 16.6471 78.8096C16.6183 79.1675 16.5514 79.5854 16.5846 79.9727L16.5905 80.042L16.653 80.0732L16.7789 80.1367L16.859 80.1768L16.9225 80.1133C17.0033 80.0319 17.0564 79.922 17.0944 79.8057C17.1327 79.6883 17.1591 79.5538 17.1803 79.4141C17.2015 79.2744 17.2187 79.1234 17.2369 78.9746C17.2553 78.8244 17.2753 78.6743 17.3024 78.5312C17.3573 78.2411 17.4389 77.9982 17.5797 77.8418C17.7113 77.6958 17.9095 77.6089 18.2448 77.6631C18.4488 77.6961 18.5783 77.7978 18.6637 77.9414C18.7525 78.0908 18.7967 78.2922 18.8092 78.5234C18.8342 78.9877 18.7301 79.5142 18.6783 79.8574L18.6705 79.9131L18.7067 79.9561C19.0733 80.3914 19.1529 80.6283 19.1061 80.8164C19.0817 80.9146 19.0195 81.0166 18.9088 81.1387C18.8033 81.255 18.6614 81.38 18.486 81.5322C16.5869 81.7692 14.7598 81.817 12.8405 81.9082L12.6305 81.9189L12.7408 82.0977C12.9676 82.4645 13.3443 82.8697 13.7487 83.2324C14.1405 83.584 14.5667 83.9011 14.9225 84.1123C16.2846 87.0539 17.7858 90.1775 18.8278 93.2197C19.1209 94.0751 18.8964 94.7694 18.4264 95.5332C17.4508 96.0447 16.744 96.0638 16.1754 95.7568C15.5885 95.4398 15.1163 94.7605 14.6569 93.8027C13.2045 90.7759 11.9981 87.563 10.8785 84.3975C10.8319 84.2655 10.8935 84.0925 11.0348 83.8867C11.102 83.7888 11.1804 83.6923 11.2574 83.6016C11.3323 83.5134 11.4095 83.4262 11.4655 83.3535L11.485 83.3281L11.4899 83.2979C11.5049 83.2057 11.519 83.1331 11.525 83.082C11.5317 83.0249 11.5313 82.9714 11.5104 82.9131C11.4924 82.8633 11.4609 82.8153 11.4274 82.7646C11.3956 82.7167 11.3544 82.6548 11.3004 82.5664C11.3261 82.4429 11.3343 82.3853 11.3434 82.2402L11.3502 82.1328L11.2438 82.1104C11.0652 82.0738 10.8348 82.0668 10.5778 82.0732C10.3189 82.0798 10.0237 82.1005 9.71252 82.125C9.08687 82.1742 8.39371 82.2366 7.76233 82.2256C7.126 82.2145 6.58036 82.1288 6.23596 81.9023C6.06799 81.7918 5.94968 81.6485 5.88928 81.4629C5.82826 81.2752 5.82233 81.032 5.901 80.7168C5.98145 80.3943 6.05733 79.9766 6.2135 79.6221C6.36887 79.2694 6.58456 79.0233 6.92249 78.9941C7.19838 78.9704 7.35559 79.0328 7.45471 79.1221C7.55847 79.2155 7.62048 79.3575 7.66565 79.5381C7.68794 79.6273 7.70455 79.7212 7.72229 79.8184C7.73977 79.9141 7.75864 80.0138 7.78186 80.1084C7.82745 80.2941 7.89872 80.4881 8.05725 80.6133L8.11194 80.6562L8.17737 80.6318C8.42222 80.5407 8.54073 80.3677 8.6012 80.1729C8.65718 79.9922 8.66734 79.7715 8.69006 79.5967C8.71441 79.4094 8.75327 79.2527 8.85022 79.1338C8.94357 79.0194 9.10741 78.9208 9.42346 78.8877C9.65042 78.864 9.79027 78.928 9.88733 79.0273C9.99094 79.1335 10.0592 79.2939 10.109 79.4844C10.1595 79.6775 10.1846 79.87 10.2223 80.0557C10.2403 80.1443 10.2612 80.2314 10.2897 80.3057C10.3175 80.3782 10.3582 80.4537 10.4235 80.5049L10.5143 80.5762L10.5924 80.4902C10.6674 80.4071 10.7129 80.2887 10.7448 80.168C10.7773 80.0443 10.8001 79.9003 10.8209 79.7529C10.8635 79.4509 10.8978 79.1327 10.9801 78.873C11.063 78.6115 11.1795 78.4572 11.3551 78.418C11.5411 78.3765 11.8462 78.4494 12.3434 78.7949C12.3939 78.8655 12.4292 78.9325 12.4596 79.0186L12.484 79.0869L12.5553 79.0996L12.6334 79.1133L12.734 79.1318L12.7711 79.0361C12.8442 78.8488 12.9796 78.6311 13.152 78.4697C13.3253 78.3074 13.5201 78.2162 13.7155 78.2402C13.9411 78.2681 14.0819 78.3469 14.1735 78.4482C14.2668 78.5516 14.3209 78.6912 14.3473 78.8604C14.3737 79.03 14.371 79.2201 14.36 79.415C14.3494 79.6037 14.3303 79.8081 14.3268 79.9795L14.3248 80.0586L14.3951 80.0938L14.4762 80.1338L14.5787 80.1836L14.6373 80.0859C14.7646 79.8751 14.8438 79.6189 14.9088 79.3613C14.9759 79.0957 15.0264 78.8384 15.0992 78.5869C15.2414 78.0963 15.4437 77.7288 15.9059 77.6289Z" fill="var(--fill-0, #3E4144)" stroke="var(--stroke-0, #FAF7EF)" stroke-width="0.248348"/>
<path id="Vector_56" d="M12.5419 79.0967C12.5611 79.2553 12.5846 79.4109 12.5947 79.5713C12.6008 79.6696 12.6003 79.7618 12.5917 79.8467C12.518 79.6055 12.5171 79.3653 12.5331 79.0947L12.5419 79.0967Z" fill="var(--fill-0, #C7C9CD)" stroke="var(--stroke-0, #FAF7EF)" stroke-width="0.248348"/>
<path id="Vector_57" d="M12.7245 84.4873C12.7759 84.4982 12.8935 84.5245 13.0057 84.5605C13.0616 84.5785 13.1203 84.5994 13.1698 84.624C13.1945 84.6363 13.2195 84.6512 13.2421 84.668C13.2635 84.684 13.2901 84.7075 13.3085 84.7402C14.7324 87.2801 15.996 90.2838 17.119 92.9766C17.3059 93.4245 17.3583 93.9658 17.3846 94.2949L17.3973 94.457L17.2372 94.4268C17.2254 94.4245 17.1835 94.4183 17.1512 94.4082H17.1503C17.0511 94.3767 16.955 94.3101 16.8632 94.2256C16.7704 94.1401 16.6755 94.0295 16.579 93.8994C16.3856 93.639 16.1777 93.29 15.9637 92.8828C15.5355 92.068 15.0721 91.0045 14.6268 89.9102C14.1812 88.8149 13.7526 87.6847 13.3944 86.7373C13.0354 85.7877 12.749 85.0261 12.5858 84.6592L12.4862 84.4365L12.7245 84.4873Z" fill="var(--fill-0, #FAF7EF)" stroke="var(--stroke-0, #FAF7EF)" stroke-width="0.248348"/>
<path id="Vector_58" d="M136.008 89.6812C137.344 89.5711 138.338 89.9643 139.027 90.6382C139.718 91.315 140.113 92.2864 140.223 93.3491C140.444 95.4814 139.517 97.9258 137.651 98.9937C136.749 99.5095 135.782 99.7939 134.903 99.7134C134.03 99.6334 133.232 99.1927 132.653 98.2319L132.545 98.0542L132.44 98.2329C132.191 98.6536 132.129 98.7748 131.796 99.1128C131.118 99.5785 130.31 99.8514 129.491 99.8042C128.099 99.7242 127.218 98.7831 126.934 97.644C126.649 96.501 126.969 95.1734 127.972 94.3433C128.922 93.5567 130.036 93.322 131.265 93.4097L131.352 93.4155L131.387 93.3364C131.862 92.2749 132.43 91.4399 133.169 90.8315C133.907 90.2251 134.823 89.8371 136.008 89.6812Z" fill="var(--fill-0, #3E4144)" stroke="var(--stroke-0, #FAF7EF)" stroke-width="0.248348"/>
<path id="Vector_59" d="M135.745 91.2856C136.374 91.2243 136.945 91.1533 137.54 91.5142L137.659 91.5923V91.5933C138.408 92.1225 138.702 93.0468 138.703 93.978C138.703 94.9104 138.41 95.8792 137.946 96.5308V96.5317C137.576 97.0497 137.23 97.4009 136.816 97.6479C136.403 97.8943 135.932 98.0311 135.325 98.1372L135.303 98.1411L135.283 98.1382C134.996 98.0913 134.813 98.0504 134.635 97.9878C134.46 97.926 134.29 97.8434 134.03 97.7183L134.001 97.7046L133.982 97.6782C133.35 96.7801 132.874 95.5237 132.522 94.5142L132.496 94.438L132.554 94.3823C132.637 94.3051 132.724 94.1845 132.806 94.0474C132.887 93.912 132.959 93.7681 133.015 93.6489C133.321 92.9953 133.644 92.5252 134.072 92.1577C134.499 91.7911 135.022 91.5332 135.716 91.2915L135.73 91.2866L135.745 91.2856Z" fill="var(--fill-0, #FAF7EF)" stroke="var(--stroke-0, #FAF7EF)" stroke-width="0.248348"/>
<path id="Vector_60" d="M136.729 92.3003C137.135 92.3014 137.432 92.4572 137.644 92.7017C137.868 92.9606 138.003 93.3247 138.056 93.7222C138.109 94.1187 138.078 94.5385 137.982 94.8989C137.888 95.2496 137.735 95.5263 137.554 95.6792C137.522 95.6852 137.488 95.6912 137.454 95.6968C137.194 95.7353 137.006 95.6877 136.866 95.5942C136.723 95.4992 136.616 95.3479 136.537 95.1548C136.377 94.764 136.347 94.2436 136.341 93.8198C136.337 93.4381 136.321 93.1897 136.367 92.9595C136.408 92.7513 136.504 92.5554 136.729 92.3003Z" fill="var(--fill-0, #3E4144)" stroke="var(--stroke-0, #FAF7EF)" stroke-width="0.248348"/>
<path id="Vector_61" d="M130.163 95.2144C130.314 95.2255 130.453 95.2361 130.566 95.2769C130.639 95.3034 130.693 95.3417 130.73 95.3999C130.633 95.432 130.537 95.4642 130.438 95.4976C130.301 95.5432 130.164 95.5947 130.041 95.6616C129.917 95.729 129.802 95.8143 129.714 95.9321C129.625 96.0509 129.567 96.1968 129.545 96.3755L129.542 96.4038L129.552 96.4321C129.623 96.6291 129.681 96.7525 129.761 96.8647C129.838 96.9732 129.935 97.0687 130.07 97.2085L130.091 97.231L130.12 97.2407C130.292 97.2971 130.429 97.321 130.547 97.3188C130.668 97.3166 130.762 97.2865 130.846 97.2437C130.922 97.2048 131.001 97.1492 131.067 97.1079C131.091 97.0925 131.117 97.0778 131.145 97.063C131.12 97.1778 131.069 97.2939 131.012 97.438C130.944 97.4804 130.876 97.5223 130.807 97.561H130.805C130.24 97.8886 129.754 97.9616 129.39 97.8853C129.027 97.8092 128.776 97.585 128.667 97.2954C128.454 96.7266 128.778 95.8057 130.163 95.2144Z" fill="var(--fill-0, #FAF7EF)" stroke="var(--stroke-0, #FAF7EF)" stroke-width="0.248348"/>
<path id="Vector_62" d="M6.92773 54.3442C8.05747 54.2656 8.92669 54.4512 9.5791 54.9126C10.2328 55.375 10.6882 56.1279 10.9609 57.2231C11.278 58.4969 11.0582 59.6875 10.6055 60.8364C10.1508 61.9901 9.46861 63.0871 8.86523 64.187C8.61727 64.6391 8.35652 64.8896 8.09863 65.0103C7.84307 65.1297 7.57293 65.1293 7.28711 65.0464C6.99856 64.9627 6.69913 64.7963 6.39551 64.5913C6.0918 64.3862 5.79329 64.1496 5.49902 63.9272L5.49805 63.9263L4.85645 63.4712C4.64093 63.3232 4.42391 63.1781 4.20801 63.0337C3.77555 62.7444 3.34635 62.4581 2.93066 62.1558C2.09967 61.5513 1.32902 60.8863 0.713867 60.019C0.27562 59.401 0.0684257 58.7073 0.137695 58.0718C0.206595 57.4402 0.549612 56.8539 1.23633 56.4419C2.31188 55.7969 3.55072 56.0093 4.74805 56.2915L4.85645 56.3169L4.89355 56.2124C5.12495 55.561 5.31066 55.1821 5.5918 54.9214C5.8708 54.6627 6.258 54.5072 6.92773 54.3442Z" fill="var(--fill-0, #3E4144)" stroke="var(--stroke-0, #FAF7EF)" stroke-width="0.248348"/>
<path id="Vector_63" d="M108.251 109.189C110.537 109.158 112.812 110.902 113.287 113.19C113.546 114.443 113.293 115.747 112.585 116.812C111.782 118.008 110.788 118.424 109.412 118.69C107.279 118.907 105.135 117.923 104.408 115.797C103.982 114.55 104.228 112.924 104.841 111.75C105.246 110.973 105.694 110.459 106.239 110.076C106.783 109.695 107.431 109.438 108.251 109.189Z" fill="var(--fill-0, #3E4144)" stroke="var(--stroke-0, #FAF7EF)" stroke-width="0.248348"/>
<path id="Vector_64" d="M108.227 110.888C109.186 110.823 109.936 111.259 110.627 111.778L111.305 112.309L111.331 112.331L111.344 112.364C111.751 113.45 111.901 114.464 111.617 115.298C111.33 116.143 110.609 116.774 109.346 117.112L109.337 117.114L109.327 117.115C108.225 117.243 107.375 116.989 106.781 116.504C106.187 116.021 105.861 115.319 105.783 114.575C105.627 113.091 106.46 111.407 108.201 110.893L108.213 110.889L108.227 110.888Z" fill="var(--fill-0, #FAF7EF)" stroke="var(--stroke-0, #FAF7EF)" stroke-width="0.248348"/>
<path id="Vector_65" d="M109.26 111.653C109.908 111.732 110.405 112.13 110.615 112.598C110.722 112.838 110.753 113.094 110.694 113.337C110.637 113.571 110.495 113.8 110.244 113.996C109.035 114.034 108.338 112.518 109.26 111.653Z" fill="var(--fill-0, #3E4144)" stroke="var(--stroke-0, #FAF7EF)" stroke-width="0.248348"/>
<path id="Vector_66" d="M126.829 79.0649C127.095 79.0482 127.819 79.0997 128.54 79.1851C128.901 79.2278 129.257 79.2789 129.548 79.3325C129.693 79.3593 129.821 79.3866 129.924 79.4136C130.029 79.4412 130.1 79.4664 130.139 79.4868C131.164 80.0354 131.828 81.1892 132.086 82.4683C132.343 83.7469 132.187 85.1221 131.602 86.0913C131.218 86.7292 130.791 87.1486 130.287 87.4556C129.781 87.764 129.193 87.9621 128.48 88.1519C126.899 88.4705 125.654 88.1407 124.762 87.4585C123.865 86.7734 123.311 85.7235 123.136 84.5864C122.785 82.3138 123.945 79.7287 126.829 79.0649Z" fill="var(--fill-0, #3E4144)" stroke="var(--stroke-0, #FAF7EF)" stroke-width="0.248348"/>
<path id="Vector_67" d="M126.713 80.6738C127.115 80.6334 127.353 80.6578 127.573 80.6934C127.789 80.7282 127.972 80.7706 128.286 80.7744C128.861 80.7814 129.327 80.9471 129.688 81.2236C130.047 81.4994 130.296 81.8801 130.448 82.3086C130.751 83.1625 130.677 84.2195 130.327 85.0713C130.162 85.474 129.932 85.7587 129.63 85.9785C129.331 86.1959 128.966 86.3471 128.539 86.4912L128.528 86.4941C127.434 86.7586 126.556 86.6381 125.909 86.2666C125.262 85.895 124.86 85.2803 124.702 84.5869C124.388 83.2041 125.042 81.4927 126.671 80.6865L126.69 80.6768L126.713 80.6738Z" fill="var(--fill-0, #FAF7EF)" stroke="var(--stroke-0, #FAF7EF)" stroke-width="0.248348"/>
<path id="Vector_68" d="M128.403 81.4243C128.948 81.4962 129.442 81.8952 129.67 82.3882C129.787 82.6411 129.832 82.9127 129.782 83.1714C129.734 83.4171 129.598 83.6585 129.343 83.8687C128.683 83.8261 128.221 83.4501 128.036 82.9722C127.852 82.4976 127.936 81.9095 128.403 81.4243Z" fill="var(--fill-0, #3E4144)" stroke="var(--stroke-0, #FAF7EF)" stroke-width="0.248348"/>
<path id="Vector_69" d="M84.1711 0.137695C84.7807 0.0887979 85.3113 0.171927 85.7678 0.392578C86.2286 0.615314 86.6222 0.982498 86.9485 1.51172L87.011 1.6123L87.1145 1.55566C87.5509 1.31682 87.8171 1.20566 88.2805 1.02539C88.7665 1.09473 89.1554 1.15241 89.5042 1.28711C89.8545 1.42246 90.168 1.63777 90.4885 2.03223C90.9208 2.56433 91.081 3.05889 91.0657 3.51562C91.0502 3.97473 90.857 4.41286 90.551 4.83008C89.9355 5.66937 88.8934 6.3875 88.0549 6.97656L88.0491 6.98047C87.2953 7.5702 86.706 7.95308 86.2229 8.15039C85.7433 8.34618 85.3815 8.35443 85.0696 8.2168C84.7508 8.07611 84.461 7.77258 84.1497 7.29102C83.8393 6.81087 83.5179 6.17185 83.1301 5.37891C82.5949 4.28483 82.2174 3.24539 82.2922 2.3457C82.3293 1.89998 82.4774 1.48796 82.7756 1.11816C83.072 0.750768 83.5214 0.418533 84.1711 0.137695Z" fill="var(--fill-0, #3E4144)" stroke="var(--stroke-0, #FAF7EF)" stroke-width="0.248348"/>
<path id="Vector_70" d="M130.768 66.4307C131.656 66.4829 132.296 66.6982 133.007 67.2451L133.073 67.2949L133.145 67.2549C134.078 66.7232 135.086 66.5399 135.869 66.791C136.259 66.9159 136.595 67.1481 136.845 67.5029C137.095 67.8586 137.263 68.3438 137.304 68.9795C137.362 69.8835 137.109 70.5386 136.668 71.0752C136.222 71.6177 135.581 72.0443 134.854 72.4805L134.847 72.4854C134.249 72.9017 133.801 73.2276 133.43 73.4482C133.058 73.6693 132.788 73.7691 132.546 73.7559C132.309 73.7429 132.072 73.6193 131.773 73.3252C131.472 73.0303 131.123 72.5793 130.661 71.9385C130.079 71.1298 129.255 69.8637 129.012 68.7383C128.891 68.1777 128.919 67.6717 129.17 67.2754C129.419 66.8829 129.907 66.57 130.768 66.4307Z" fill="var(--fill-0, #3E4144)" stroke="var(--stroke-0, #FAF7EF)" stroke-width="0.248348"/>
<path id="Vector_71" d="M130.658 68.0317C131.291 68.0183 131.664 68.2385 132.018 68.522C132.354 68.791 132.658 69.0998 133.17 69.353C133.473 69.0836 133.841 68.7379 134.236 68.5269C134.449 68.4127 134.678 68.3331 134.918 68.3276C135.131 68.3229 135.345 68.3759 135.557 68.5044L135.648 68.564L135.673 68.5825L135.687 68.6108C135.837 68.9191 135.812 69.2573 135.709 69.563C135.606 69.8688 135.421 70.1548 135.23 70.3716L135.219 70.3833L135.205 70.3921C134.339 70.9685 133.68 71.3654 132.812 71.9849L132.721 72.0493L132.647 71.9663C132.368 71.652 131.829 70.9094 131.368 70.1489C131.138 69.7681 130.924 69.3787 130.772 69.0337C130.695 68.8613 130.633 68.6979 130.592 68.5503C130.551 68.4042 130.529 68.2657 130.537 68.147L130.545 68.0347L130.658 68.0317Z" fill="var(--fill-0, #FAF7EF)" stroke="var(--stroke-0, #FAF7EF)" stroke-width="0.248348"/>
<path id="Vector_72" d="M21.6389 57.1792C21.7226 57.1834 21.8024 57.2063 21.9045 57.2847V57.2856C23.3001 58.3882 23.9836 59.8885 24.5002 61.5718C24.7054 62.2407 24.7447 62.7845 24.6603 63.2261C24.5763 63.6656 24.3686 64.011 24.0676 64.2837C23.4609 64.8331 22.4665 65.0936 21.3185 65.1938C21.1114 65.174 20.8603 65.1486 20.6174 65.1021C20.3674 65.0541 20.1379 64.987 19.9767 64.8901C19.117 64.3734 18.374 63.3707 17.9826 62.2593C17.5911 61.1474 17.5601 59.9533 18.0842 59.0483C18.3849 58.5292 18.8981 58.1425 19.4875 57.8472C20.0736 57.5535 20.7245 57.3552 21.2932 57.2095C21.4486 57.192 21.5436 57.1744 21.6389 57.1792Z" fill="var(--fill-0, #3E4144)" stroke="var(--stroke-0, #FAF7EF)" stroke-width="0.248348"/>
<path id="Vector_73" d="M18.0219 65.311C19.1374 65.2511 20.071 65.4519 20.8071 65.9272C21.5353 66.3977 22.0819 67.1468 22.4194 68.2144C22.3057 68.6257 22.2191 69.0373 22.1264 69.4214C22.03 69.8206 21.9269 70.1952 21.7787 70.5356C21.4862 71.2076 21.0168 71.7506 20.0629 72.063C18.7001 72.3549 17.6608 72.1153 16.9243 71.5952C16.184 71.0725 15.7354 70.2572 15.5766 69.3774C15.2577 67.6098 16.1103 65.6494 18.0219 65.311Z" fill="var(--fill-0, #3E4144)" stroke="var(--stroke-0, #FAF7EF)" stroke-width="0.248348"/>
<path id="Vector_74" d="M28.5867 63.3789C29.7471 64.0166 30.5123 65.0742 30.7214 66.1885C30.9315 67.3082 30.582 68.4924 29.491 69.3818C29.0766 69.7197 28.8189 69.9006 28.5398 70.0273C28.263 70.153 27.9597 70.2277 27.45 70.3418C27.0024 70.2815 26.6999 70.2094 26.4236 70.0859C26.1418 69.96 25.8795 69.7788 25.5144 69.4932C24.2313 68.4892 23.8466 67.0439 24.1873 65.8252C24.5275 64.6084 25.5944 63.6032 27.2507 63.4834L27.2595 63.4824C27.6724 63.4246 28.1517 63.4051 28.5867 63.3789Z" fill="var(--fill-0, #3E4144)" stroke="var(--stroke-0, #FAF7EF)" stroke-width="0.248348"/>
<path id="Vector_75" d="M76.7867 112.345C77.4118 112.296 77.9917 112.262 78.4625 112.421C78.6946 112.5 78.8985 112.626 79.067 112.821C79.1936 112.967 79.3036 113.156 79.3892 113.401L79.4664 113.665C79.7366 114.774 79.5111 115.681 78.9693 116.377C78.4273 117.074 77.559 117.571 76.5211 117.843C75.6381 117.788 75.0462 117.446 74.6216 116.934C74.1941 116.418 73.9301 115.722 73.7222 114.947C73.9133 114.101 74.2642 113.535 74.7632 113.14C75.2701 112.739 75.9416 112.505 76.7867 112.345Z" fill="var(--fill-0, #3E4144)" stroke="var(--stroke-0, #FAF7EF)" stroke-width="0.248348"/>
<path id="Vector_76" d="M74.4965 5.1543C75.4329 5.07291 76.4051 5.49344 77.0844 6.18555C77.7725 6.88683 78.1452 7.85093 77.89 8.82617C77.6827 9.62081 77.1499 9.91075 76.4252 10.2998C75.1743 10.7378 74.0297 10.0676 73.5248 8.96777C73.0243 7.87762 73.1614 6.37057 74.4965 5.1543Z" fill="var(--fill-0, #3E4144)" stroke="var(--stroke-0, #FAF7EF)" stroke-width="0.248348"/>
<path id="Vector_77" d="M85.1074 109.518C86.4214 109.202 87.7405 110.019 88.0449 111.334C88.3492 112.65 87.5222 113.962 86.2021 114.254C84.9801 114.526 83.7671 113.827 83.373 112.667L83.3057 112.429C83.0048 111.128 83.8093 109.829 85.1074 109.518Z" fill="var(--fill-0, #3E4144)" stroke="var(--stroke-0, #FAF7EF)" stroke-width="0.248348"/>
<path id="Vector_78" d="M78.685 105C79.1628 104.961 79.5165 104.973 79.8549 105.041C80.1889 105.107 80.5145 105.229 80.936 105.417C81.4713 106.165 81.7989 106.975 81.7309 107.649C81.6969 107.986 81.5642 108.29 81.3071 108.542C81.0484 108.795 80.6559 109.003 80.0912 109.13L79.8178 109.199C79.211 109.344 78.7426 109.382 78.1694 109.045C77.2393 108.499 76.8356 107.617 76.9252 106.815C77.0144 106.018 77.5936 105.275 78.685 105Z" fill="var(--fill-0, #3E4144)" stroke="var(--stroke-0, #FAF7EF)" stroke-width="0.248348"/>
<path id="Vector_79" d="M83.7941 115.024C84.475 114.994 84.9149 115.282 85.1847 115.716C85.4611 116.162 85.5633 116.769 85.5333 117.361C85.4942 118.137 85.3438 118.775 85.0089 119.212C84.6834 119.637 84.1682 119.89 83.3488 119.874C82.6163 119.604 82.0056 119.092 81.6769 118.463C81.3473 117.833 81.2983 117.085 81.6954 116.338C82.1379 115.505 82.8974 115.281 83.7941 115.024Z" fill="var(--fill-0, #3E4144)" stroke="var(--stroke-0, #FAF7EF)" stroke-width="0.248348"/>
<path id="Vector_80" d="M70.9357 10.1924C71.9762 10.1807 72.655 10.7731 72.9425 11.5566C73.2331 12.3489 73.1214 13.3347 72.5646 14.082C72.3395 14.3839 72.1216 14.5423 71.8781 14.6377C71.6324 14.7338 71.3547 14.7685 70.9943 14.8096C70.582 14.7345 70.2482 14.6802 69.92 14.4609H69.921C69.4159 14.1162 69.0482 13.6087 68.8771 13.0273L68.8165 12.7744C68.6854 12.0479 68.8802 11.4591 69.2697 11.0244C69.6609 10.5878 70.2563 10.2984 70.9357 10.1924Z" fill="var(--fill-0, #3E4144)" stroke="var(--stroke-0, #FAF7EF)" stroke-width="0.248348"/>
<path id="Vector_81" d="M86.1043 103.329C86.8242 103.269 87.3361 103.439 87.6619 103.725C87.9886 104.011 88.1456 104.43 88.1258 104.901C88.0861 105.841 87.3405 106.977 85.8856 107.552C85.7279 107.528 85.6502 107.514 85.5789 107.49C85.5032 107.465 85.4309 107.426 85.2762 107.339C84.0383 106.648 83.6613 105.76 83.8533 105.013C84.0485 104.254 84.8449 103.57 86.1043 103.329Z" fill="var(--fill-0, #3E4144)" stroke="var(--stroke-0, #FAF7EF)" stroke-width="0.248348"/>
<path id="Vector_82" d="M77.0966 11.8506C77.5578 11.8432 77.9017 11.9113 78.1591 12.0332C78.4141 12.154 78.5904 12.3304 78.7147 12.5508C78.9648 12.9943 79.0057 13.6193 79.0096 14.3438C78.4693 15.1846 78.0667 15.7754 77.1132 15.9727C75.9731 15.743 75.135 14.8592 74.9677 13.9688C74.8842 13.5241 74.9675 13.0798 75.2606 12.707C75.5537 12.3344 76.0665 12.0194 76.8671 11.8574C76.9435 11.8538 77.0201 11.8519 77.0966 11.8506Z" fill="var(--fill-0, #3E4144)" stroke="var(--stroke-0, #FAF7EF)" stroke-width="0.248348"/>
</g>
</svg>
