<svg preserveAspectRatio="none" width="100%" height="100%" overflow="visible" style="display: block;" viewBox="0 0 201.493 201.094" fill="none" xmlns="http://www.w3.org/2000/svg">
<g id="Vector Container">
<path id="Vector" d="M98.8427 0.0467022C105.067 -0.590864 100.711 5.46552 99.3373 8.08135C103.754 6.50669 116.155 1.29174 120.276 2.66925C120.846 2.85986 121.331 3.20912 121.573 3.77375C121.805 4.31626 121.825 5.03611 121.568 5.57554C120.798 7.19985 119.262 8.67205 118.073 10.0182C115.568 12.8516 113.95 15.3725 112.592 18.9228C114.933 18.3277 127.994 13.7705 124.494 20.4671C123.253 22.8402 121.949 23.7876 121.037 26.7741C123.201 27.1297 127.335 26.9308 129.041 28.172C131.786 30.1692 125.997 35.005 124.576 36.7417C124.984 37.1532 125.413 37.606 125.446 38.2176C125.555 40.2341 118.653 52.9002 117.058 54.5887C121.405 59.0413 118.857 62.8206 113.69 64.1807C112.628 64.4602 112.568 65.9896 112.194 66.881C109.943 72.2322 106.342 76.9742 101.816 80.6026C98.8548 82.9011 92.8033 85.2721 89.1457 86.0511C85.1233 86.9079 76.6951 87.4324 72.7381 85.9916L71.2397 88.0003C72.8163 89.6266 73.8165 91.1439 75.0412 93.0163C75.8309 93.8983 76.3208 96.5346 77.254 97.1456C82.9699 100.888 90.6048 100.303 96.7539 97.99C99.9295 96.7955 101.503 95.9736 103.508 93.2476C102.278 92.3327 102.193 91.1021 102.395 89.6758C102.736 87.2702 103.59 86.0771 106.064 86.4158C106.073 83.3073 104.476 78.8671 109.445 79.2984C110.036 75.7727 110.378 68.9743 115.043 68.3653C115.784 68.2684 116.993 68.7152 117.531 69.231C121.559 73.1016 118.962 81.1042 116.339 85.0802C115.641 86.1346 114.628 87.2509 113.825 88.1701C115.278 89.5528 115.361 91.0659 115.002 92.9509C114.916 93.4719 114.394 94.5696 113.81 94.7122C112.941 94.9249 112.26 95.396 111.457 95.7047C108.676 102.451 103.484 108.333 96.2683 110.114C89.473 111.79 81.8735 112.138 75.5887 108.642C75.3024 109.912 74.8126 111.073 74.4173 112.309C72.991 116.77 71.2508 120.862 71.65 125.661C71.7396 126.679 71.9149 127.689 72.1743 128.679C72.549 130.103 75.476 139.026 76.2041 139.638L76.6065 139.576L76.7233 139.723C76.6885 140 76.5981 140.436 76.9359 140.557C77.6554 140.816 78.3962 140.998 79.1262 141.251C85.715 143.534 93.8441 142.084 98.8967 147.874C101.352 150.659 102.136 154.146 101.813 157.748C101.057 166.195 95.1352 174.457 88.906 179.794L88.7356 181.074C87.0528 183.059 85.1142 183.779 82.5817 184.187C81.9597 184.288 81.4867 184.089 80.9746 184.24C80.2003 185.147 80.2712 185.067 79.1012 185.191C79.6472 189.686 79.3653 198.591 74.1035 200.921C73.4696 201.201 71.9235 201.14 71.3511 200.74C68.2423 198.569 69.4526 193.352 69.394 190.141C69.2166 186.458 68.2044 182.152 70.0572 178.754C71.368 176.35 74.0738 176.934 75.9645 178.19C76.0918 174.645 78.2972 173.711 80.0001 171.378C82.8593 167.46 86.7629 162.955 88.1249 158.313C88.8554 155.824 83.4586 155.017 81.9134 154.818C76.6893 154.234 73.1849 153.637 67.9189 153.495C67.843 155.03 67.6716 158.627 67.425 160.081C66.3087 166.66 64.7101 174.682 60.931 180.26C60.4063 181.035 58.9122 183.014 58.3063 183.552C54.0907 187.296 48.2933 191.125 42.8119 192.499C39.9215 193.224 37.3659 193.376 34.4334 193.668C33.6381 193.747 32.7971 194.142 32.1104 194.25C31.1115 194.407 29.7032 194.064 28.6666 194.211C28.1712 194.326 27.8308 195.439 27.4887 195.849C26.1583 197.441 22.3691 197.533 20.7725 196.349C19.8328 195.651 19.6131 194.824 19.4531 193.776C14.583 196.866 8.79292 200.017 2.83031 198.479C1.04225 198.019 -0.602838 195.953 0.216425 194.156C1.92854 190.4 7.00735 189.431 10.1882 187.344C11.9323 186.2 13.0043 184.376 14.9352 183.522C17.2564 182.507 19.2735 183.483 20.1395 185.801C20.665 184.647 21.3622 183.646 22.4518 182.995C25.1472 181.385 26.372 182.267 27.8198 184.51C32.7662 183.498 37.335 183.593 41.7906 180.721C44.6976 178.848 47.5924 176.194 49.0842 173.037C51.0283 168.922 51.1895 155.333 49.7644 150.826C49.1409 148.854 47.7181 146.914 46.7675 145.079C45.1383 141.934 44.0764 138.484 43.2989 135.041C41.6319 127.658 41.8094 116.003 43.3717 108.656C41.3891 110.069 36.8753 111.216 34.3396 112.448C33.3619 112.916 32.4531 113.515 31.6384 114.23C28.9 116.636 24.9865 121.753 22.7203 124.752C22.2178 125.416 21.8875 127.258 21.2132 128.156C20.6267 128.936 19.4467 129.334 19.2406 129.839C18.9534 130.544 19.5299 131.784 19.106 132.745C18.5519 134 17.695 134.385 16.5431 134.881C16.4068 136.192 16.3406 139.341 15.5819 140.117C12.1125 143.665 8.05236 139.127 7.6648 135.654C7.18965 131.396 8.56932 129.24 10.8005 126.165C8.78743 122.88 12.1075 118.998 15.6216 118.932C17.368 116.206 19.4304 112.07 21.4388 109.71C23.9001 106.819 29.0246 103.336 32.2021 101.182C34.3824 99.7355 37.0081 98.6139 39.1668 97.1739C42.6343 94.8607 46.047 92.5566 49.6234 90.4042C50.7438 89.73 52.8022 88.7152 53.7045 87.8797C55.1316 86.5581 56.4137 86.2883 58.1675 85.4753C59.636 84.8091 60.9524 83.8835 62.5674 83.5986L63.8705 81.9135C61.2824 80.5115 59.5014 79.3613 57.0791 77.7616C53.4673 75.4898 50.122 73.0725 47.7535 69.4775C45.5821 66.1817 45.1137 64.0991 44.7827 60.2889C44.745 59.8547 43.8016 57.7531 43.6004 57.0074C42.5489 53.1101 42.1499 48.1662 42.9732 44.1737C40.7584 40.9748 40.5328 37.7471 42.0449 34.0773C43.1265 31.4528 45.1853 30.0228 47.7712 29.0261L47.771 28.9343C47.8133 23.07 55.3123 13.8044 59.98 10.3164C65.3903 6.2736 71.7101 2.35516 78.4693 1.19408C80.2475 0.888637 82.8571 -0.0427828 84.1729 1.70147C84.9139 2.70678 84.4617 4.30791 84.2304 5.44067C89.0705 3.59241 93.6469 1.0964 98.8427 0.0467022Z" fill="var(--fill-0, #3D3E40)"/>
<path id="Vector_2" d="M70.3118 18.6359C70.5729 18.9942 71.2261 19.8469 71.6432 19.9784C74.1236 20.7716 76.8341 20.8775 79.3426 21.5701C81.8027 22.2492 84.2151 23.3623 86.6198 24.229C89.9764 25.4389 93.1059 27.1385 96.2779 28.7541C99.3015 30.294 102.545 31.579 105.23 33.6879C106.624 34.7973 107.951 36.1279 109.236 37.3593C110.241 38.3216 111.143 39.4234 112.268 40.2506C113.312 41.0158 113.989 40.8524 115.164 40.6415C115.157 42.6464 114.998 44.648 114.689 46.6289C114.31 49.1426 113.189 52.4413 113.425 54.9188C113.517 55.8854 115.577 57.2674 115.934 58.4394C116.525 60.8658 112.389 60.6822 111.163 61.9421C110.561 62.4819 110.18 63.2178 109.82 63.9467C107.896 67.8392 105.575 72.6608 102.612 75.8198C99.2366 79.4187 93.3509 81.7007 88.6071 82.9261C86.6874 83.3383 84.717 83.68 82.7562 83.8412C80.5374 84.0238 77.1462 83.9879 75.0319 83.3504C68.4382 81.3619 59.6172 76.2863 54.2604 71.9324C49.3242 67.9204 47.5428 64.3272 48.0848 58.1372C48.2526 56.219 48.2743 54.5372 48.8236 52.6318C49.2214 51.252 50.4072 48.9127 49.9933 47.595C48.9112 44.1494 44.474 43.4346 44.2675 39.1936C44.1745 37.2842 44.7983 34.9234 46.1123 33.4677C47.8462 31.547 52.2691 31.183 54.691 31.2182C55.944 31.2366 57.2667 31.51 58.6522 31.4725L58.8216 31.4668C61.0346 30.0558 62.5011 25.1984 64.7569 22.9126C66.7668 20.8758 67.9923 20.2006 70.3118 18.6359Z" fill="var(--fill-0, #FAF7EF)"/>
<path id="Vector_3" d="M79.4489 58.7949C81.3356 58.5631 81.3413 60.5647 82.5086 61.7096C84.4212 63.6539 86.9356 63.1059 89.3267 63.1064C91.1208 63.1066 91.3685 64.9053 89.7216 65.8919C86.3979 66.8745 81.6137 65.8535 79.5247 62.9274C78.4813 61.4658 77.7749 60.1 79.4489 58.7949Z" fill="var(--fill-0, #3D3E40)"/>
<path id="Vector_4" d="M81.1436 40.1948C82.7973 40.2517 83.382 41.0679 82.9259 42.6732C82.3013 44.7887 81.5299 46.8508 80.9053 48.9706C80.4599 50.4816 80.438 51.3115 79.0374 52.1752C76.648 52.2561 77.0915 50.0384 77.7473 48.5933C78.6866 46.5235 79.6988 41.72 81.1436 40.1948Z" fill="var(--fill-0, #3D3E40)"/>
<path id="Vector_5" d="M102.68 50.9206C105.476 51.2689 104.091 53.9358 103.386 55.5955C102.662 57.2974 101.853 61.1778 100.104 61.9965C96.8398 61.6541 98.9558 58.435 99.7247 56.5319C100.351 54.981 101.442 51.8267 102.68 50.9206Z" fill="var(--fill-0, #3D3E40)"/>
<path id="Vector_6" d="M56.8621 89.3294L57.0298 89.4607C57.0885 89.9125 57.1039 90.7931 57.267 91.1544C59.0109 94.5983 58.806 98.6487 59.9009 102.178C61.7857 108.254 64.9821 104.833 66.6815 101.171C66.8111 104.744 66.4162 108.787 65.1905 112.179C62.8854 118.56 60.7976 121.217 61.2649 128.43C59.9808 125.672 57.8989 127.993 58.7692 129.459C58.9071 129.693 59.1348 129.861 59.3992 129.922C60.829 130.259 61.0649 129.108 61.2734 128.08C61.4677 132.035 63.0325 136.067 64.2629 139.798C64.2959 139.899 64.2121 140.556 64.1937 140.689C60.1894 141.219 54.6563 144.77 51.3949 147.034C50.1737 145.052 49.1811 143.403 48.3588 141.189C44.3054 130.272 44.8738 118.849 46.7477 107.507C46.717 107.311 46.6185 107.033 46.7197 106.856C47.71 105.117 55.6177 101.209 56.0751 98.7848C56.1441 98.4185 56.1621 97.9594 55.8981 97.6577C55.61 97.3287 55.0781 97.2924 54.674 97.3256C52.3348 97.5177 49.8736 101.156 47.8699 102.486C46.8581 103.158 45.7262 103.676 44.6744 104.285C43.2125 105.131 41.8606 106.118 40.306 106.798C36.9901 108.249 33.2903 108.883 30.3939 111.166C28.0917 112.981 26.4336 115.302 24.5666 117.524C23.2537 119.086 21.8821 120.586 20.6053 122.181C20.0055 121.635 18.8986 120.87 18.2142 120.367C20.3586 117.79 21.2371 115.639 22.9735 112.993C25.5866 109.011 32.1763 104.836 36.3486 102.421C36.5353 102.439 36.6754 102.479 36.8497 102.548C38.1014 101.681 39.3354 100.894 40.6004 100.056C41.5408 99.4245 42.4481 98.5636 43.4132 97.9918C46.7086 96.0403 49.8133 93.8064 53.205 92.0167C54.7798 91.1856 55.6796 90.6532 56.8621 89.3294Z" fill="var(--fill-0, #FAF7EF)"/>
<path id="Vector_7" d="M62.2428 111.165C62.9837 111.029 63.702 111.495 63.8808 112.227C64.0596 112.959 63.637 113.703 62.917 113.924C62.4124 114.079 61.8634 113.942 61.4911 113.568C61.1187 113.193 60.9845 112.644 61.1421 112.14C61.2998 111.636 61.7235 111.261 62.2428 111.165Z" fill="var(--fill-0, #3D3E40)"/>
<path id="Vector_8" d="M60.2364 133.63C60.7034 133.416 61.2496 133.472 61.6627 133.777C62.0758 134.083 62.2908 134.588 62.2242 135.097C62.1576 135.606 61.8198 136.04 61.342 136.228C60.6302 136.509 59.8242 136.171 59.5245 135.467C59.2249 134.763 59.5406 133.948 60.2364 133.63Z" fill="var(--fill-0, #3D3E40)"/>
<path id="Vector_9" d="M59.4912 119.081C61.4657 119.004 62.3762 120.177 60.8609 121.711C60.3829 121.826 59.8556 121.922 59.4456 121.576C59.1389 121.318 58.9557 120.943 58.9418 120.543C58.917 119.968 59.116 119.497 59.4912 119.081Z" fill="var(--fill-0, #3D3E40)"/>
<path id="Vector_10" d="M63.7487 106.384C64.4494 106.155 65.2058 106.524 65.4561 107.218C65.7063 107.911 65.3598 108.678 64.6739 108.949C64.2117 109.132 63.687 109.048 63.3042 108.732C62.9214 108.415 62.7411 107.915 62.8336 107.427C62.926 106.938 63.2767 106.539 63.7487 106.384Z" fill="var(--fill-0, #3D3E40)"/>
<path id="Vector_11" d="M74.2356 142.231L74.4316 142.174C74.963 142.345 75.4633 143.145 75.9891 143.409C77.8701 144.302 80.927 145.24 82.9877 145.467C90.762 146.323 99.5912 147.508 98.6415 157.661C98.1086 163.359 94.7364 168.803 91.2336 173.244C90.2032 174.549 88.1743 176.255 86.8646 177.359C86.0172 176.443 83.3297 173.869 82.3034 173.253C85.1001 170.462 91.3411 161.718 91.3424 157.802C91.3446 151.986 82.8371 151.886 78.9038 151.495C75.0394 151.111 72.129 150.542 68.0722 150.617C68.1145 148.711 68.2741 147.812 67.8187 145.949C66.6402 146.412 65.9133 146.712 64.8892 147.453C64.5238 150.723 64.6899 153.006 64.5795 156.083C64.499 158.33 64.2276 160.566 63.7683 162.767C62.4776 168.114 61.352 173.996 58.3732 178.675C56.0056 182.395 51.7143 184.801 48.0225 186.996C43.8063 189.503 38.8325 190.245 34.0049 190.472C33.3743 190.502 32.7619 190.924 32.1482 191.051C30.9476 191.218 29.5331 191.052 28.3153 190.967L28.3228 187.664C37.6749 185.517 43.6058 185.947 50.1461 177.135C50.8198 176.227 52.5458 173.672 52.7627 172.647C54.1037 166.318 53.2532 156.644 52.4052 150.368C53.647 149.22 55.0345 148.357 56.4375 147.449C62.2131 143.715 67.5045 142.873 74.2356 142.231Z" fill="var(--fill-0, #FAF7EF)"/>
<path id="Vector_12" d="M106.613 94.3213L108.404 94.826C106.279 99.552 102.378 104.816 97.3818 106.597C91.4389 108.716 83.7457 109.093 77.9453 106.52L76.5477 105.683C77.0551 104.133 77.2844 102.508 77.3754 100.886C80.8766 102.454 83.803 103.075 87.6479 102.991C94.4797 102.843 102.68 100.222 106.613 94.3213Z" fill="var(--fill-0, #FAF7EF)"/>
<path id="Vector_13" d="M73.637 97.5712C74.2454 98.123 74.2149 101.009 74.135 101.838C73.8522 104.768 72.5978 107.39 71.7462 110.144C70.2093 115.112 68.2223 120.838 68.7025 126.071C68.8793 127.997 69.3925 129.757 69.8985 131.598C70.6197 134.3 71.5098 136.954 72.5633 139.545C71.0196 139.48 69.7775 139.748 68.2574 139.992C67.9927 140.021 68.1286 140.033 67.8532 139.857C67.2958 138.743 66.8284 136.674 66.2978 135.421C64.1583 130.365 63.6172 125.077 65.5473 119.851C66.3502 117.677 67.4238 115.54 68.1807 113.236C69.4583 109.347 69.8446 106.352 69.8674 102.268C72.6682 104.07 73.1611 99.2635 73.637 97.5712Z" fill="var(--fill-0, #FAF7EF)"/>
<path id="Vector_14" d="M72.7444 180.284C72.8628 180.319 72.8833 180.32 73.0084 180.389C74.3375 181.118 75.3093 182.36 75.6961 183.826C76.6886 187.72 76.2939 193.329 74.1947 196.889C73.842 197.342 73.4495 197.933 72.8391 197.82C71.3517 196.294 72.8693 188.904 72.4324 186.371L72.1614 186.291C71.789 184.579 71.7299 181.747 72.7444 180.284Z" fill="var(--fill-0, #FAF7EF)"/>
<path id="Vector_15" d="M16.2263 186.044C16.57 186.073 16.5519 186.091 16.8458 186.286C17.6627 187.51 17.3506 190.021 17.1269 191.424C13.5127 194.205 9.19182 196.122 4.5274 195.628C4.0893 195.545 3.55426 195.388 3.11417 195.272C5.24224 192.519 9.29875 191.88 12.1428 189.858C13.8146 188.67 14.8028 187.473 16.2263 186.044Z" fill="var(--fill-0, #FAF7EF)"/>
<path id="Vector_16" d="M66.6507 83.368C67.7553 83.9404 68.7931 84.4033 69.9268 84.9086C68.7106 86.7552 65.9744 88.8524 69.0245 90.3744C68.9681 91.2825 68.8084 92.1812 68.5485 93.0531C68.3308 93.795 68.0917 94.3693 67.4038 94.7397C66.8738 94.7711 67.0079 94.7404 66.4616 94.4655C65.225 93.4031 60.7584 88.9364 61.5444 87.232C61.9996 86.8753 62.5825 86.97 63.2001 86.8586C64.6897 86.5898 65.8805 84.5922 66.6507 83.368Z" fill="var(--fill-0, #FAF7EF)"/>
<path id="Vector_17" d="M114.935 71.6064C117.366 71.5511 116.187 77.4018 115.811 78.7063C115.212 80.7807 112.827 85.7306 111.08 86.8969L110.75 86.8104C110.196 86.6715 109.756 86.6268 109.194 86.5564C109.212 85.1782 109.124 83.9722 108.99 82.6068C114.928 83.4405 111.421 74.0139 114.935 71.6064Z" fill="var(--fill-0, #FAF7EF)"/>
<path id="Vector_18" d="M13.2689 128.12C13.7022 128.248 15.2135 128.937 15.858 129.174C15.9752 129.961 16.0543 130.753 16.1401 131.545C12.8502 133.5 13.7929 134.803 13.2498 138.021C13.0454 138.288 13.1733 138.185 12.8301 138.31C11.1219 137.738 10.4066 134.573 10.7763 132.923C11.2234 130.927 12.1303 129.753 13.2689 128.12Z" fill="var(--fill-0, #FAF7EF)"/>
<path id="Vector_19" d="M24.6023 185.201C24.7307 185.269 24.8459 185.349 24.9506 185.45C25.7827 186.253 25.3256 192.58 25.301 193.945C24.6539 194.061 24.0683 194.072 23.414 194.104C23.0737 194.1 23.0294 194.139 22.7507 193.966C22.4645 193.106 22.902 188.441 23.1587 187.321C23.4239 186.162 23.6282 185.792 24.6023 185.201Z" fill="var(--fill-0, #FAF7EF)"/>
<path id="Vector_20" d="M15.2566 121.92C15.5503 122.004 15.914 122.41 16.1043 122.669C17.0116 123.902 20.0812 124.403 18.4878 126.381C17.9973 126.604 18.1918 126.549 17.6156 126.492C15.9563 125.996 14.6408 125.264 13.2468 124.252C13.7369 123.036 14.2176 122.608 15.2566 121.92Z" fill="var(--fill-0, #FAF7EF)"/>
<path id="Vector_21" d="M105.719 89.1808C107.896 89.6334 110.146 90.0377 112.226 90.8095C112.176 91.5369 112.086 91.9282 111.933 92.6383C110.98 92.2862 105.838 90.8738 105.45 90.5269C105.382 90.0565 105.571 89.648 105.719 89.1808Z" fill="var(--fill-0, #FAF7EF)"/>
<path id="Vector_22" d="M61.2545 93.816C61.8076 94.1516 63.5128 96.2605 64.9749 97.2682C64.5693 98.2674 64.1731 99.1428 63.7189 100.115L62.99 101.55C62.4916 99 61.8412 96.3562 61.2545 93.816Z" fill="var(--fill-0, #FAF7EF)"/>
<path id="Vector_23" d="M80.5325 175.685C80.9504 175.992 83.7477 178.759 84.2112 179.238C84.0176 179.625 83.7825 179.691 83.3856 179.96C83.1356 180.138 83.2713 180.1 82.9661 180.085C81.8725 179.353 80.7365 177.867 79.8652 176.833L80.5325 175.685Z" fill="var(--fill-0, #FAF7EF)"/>
<path id="Vector_24" d="M133.677 55.5698C136.432 55.2348 138.209 57.2513 138.127 59.9106C138.073 61.6461 137.624 62.5164 136.417 63.7129L137.216 64.9934C141.79 62.7402 144.561 61.5196 149.741 60.8395C154.063 60.2719 153.191 60.36 157.242 61.7992C161.758 63.4035 164.674 65.1599 167.857 68.85C168.726 69.8568 169.881 70.7902 170.609 71.9552C172.195 74.6128 173.004 76.5351 175.273 78.8349C178.536 82.2407 183.678 84.4008 186.202 88.4203C189.452 93.9513 186.227 97.4971 181.624 100.408C173.664 105.442 167.83 98.6425 163.989 91.8824C162.785 94.1275 162.531 94.6104 161.995 97.0524C162.542 97.3225 163.227 97.6233 163.448 98.1793C164.426 100.632 163.337 102.539 162.016 104.554C161.648 105.115 162.769 105.672 163.173 105.986C166.155 108.301 169.804 108.896 173.098 110.529C175.237 111.62 177.913 114.175 177.06 116.825C175.625 121.285 167.695 118.344 164.819 117.318C166.179 121.547 170.182 127.876 172.962 131.348C175.056 133.692 177.423 138.685 179.671 140.634C185.254 145.471 192.24 148.363 199.282 150.272C200.115 150.526 201.847 151.84 201.429 152.841C199.412 157.665 188.535 153.556 184.977 152.674C180.852 151.426 180.567 151.373 176.921 149.099C176.006 151.599 175.013 152.358 173.087 154.15C174.016 156.692 177.347 161.505 176.429 164.007C176.119 164.881 175.456 165.585 174.603 165.948C170.549 167.716 166.919 159.63 165.816 156.803C165.394 156.723 164.184 156.485 163.821 156.479C162.192 156.45 161.321 156.564 159.681 156.227C158.531 159.412 154.323 166.571 151.388 168.443C150.344 169.083 148.84 169.5 147.641 169.107C143.571 167.776 145.583 162.894 146.696 160.172C147.227 158.873 147.615 157.704 148.016 156.486C147.273 156.132 146.921 155.907 146.23 155.454C144.485 151.376 146.621 145.632 146.116 141.309C146.016 140.463 145.546 139.675 145.149 138.934C143.366 135.604 141.476 132.327 139.67 129.009C138.376 126.634 137.873 123.957 137.318 121.343C135.896 115.522 135.391 109.686 135.168 103.708C126.702 100.213 120.721 88.883 120.126 80.0395C119.96 77.5936 121.416 73.4007 124.339 73.334C127.393 73.2644 128 78.5927 128.594 80.6895C129.814 85.452 132.49 88.0989 135.98 91.4296C135.43 85.8611 134.976 87.7119 132.604 83.4372C129.981 78.7131 127.609 71.6598 127.367 66.2822C127.288 64.5239 128.743 62.9036 130.019 61.8306C130.236 59.0385 130.732 56.599 133.677 55.5698Z" fill="var(--fill-0, #3D3E40)"/>
<path id="Vector_25" d="M139.224 100.215C140.345 100.631 141.483 101.001 142.634 101.326C143.142 101.468 149.141 102.806 149.25 103.082C149.409 103.491 149.153 104.094 149.744 104.916C151.909 107.932 154.636 110.421 157.385 112.88C158.325 113.72 159.486 114.245 160.395 115.144C161.083 117.787 161.963 119.524 163.23 121.914C165.75 126.674 168.745 131.005 171.907 135.346C172.875 136.676 173.612 138.271 174.621 139.582C175.808 140.933 178.198 143.434 179.565 144.574C182.39 146.928 186.222 148.756 189.524 150.322L189.242 150.7C188.668 150.517 187.863 150.328 187.26 150.192C182.772 149.177 178.99 146.804 175.065 144.453C173.796 147.67 174.435 148.31 171.958 151.049C171.057 148.186 170.987 145.148 170.881 142.187C170.856 141.509 170.737 140.713 170.176 140.275C169.784 139.973 169.281 139.851 168.795 139.94C167.441 140.196 167.737 142.77 167.821 143.872C167.92 145.132 167.624 149.321 168.097 150.402C168.996 152.455 169.85 154.415 170.578 156.57C171.436 158.8 172.451 160.645 173.099 162.992C170.311 160.223 168.853 156.891 167.929 153.142C167.63 152.263 167.617 149.743 166.414 149.648C163.581 149.424 164.57 154.261 160.931 153.248C156.328 151.966 156.26 145.808 157.134 142.041C157.405 140.872 157.858 139.545 158.719 138.688C159.949 137.409 162.445 138.475 162.848 136.262C162.896 135.997 162.834 135.724 162.677 135.505C162.344 135.046 161.62 134.81 161.081 134.747C157.435 134.317 155.127 137.672 154.239 140.771C153.838 142.177 153.639 143.807 153.483 145.254C151.075 142.29 148.899 139.145 146.975 135.846C146.264 134.617 145.626 133.26 144.922 131.987C143.746 129.859 142.433 127.507 141.561 125.239C141.011 123.809 140.719 121.879 140.352 120.364C138.692 113.525 138.455 107.219 139.224 100.215Z" fill="var(--fill-0, #FAF7EF)"/>
<path id="Vector_26" d="M130.823 65.2357C134.542 62.0268 133.905 65.8365 135.512 67.9873C136.887 69.8257 141.374 74.5848 143.506 75.206C145.705 75.8462 146.872 73.2066 142.934 71.3815C144.71 68.9667 148.652 64.804 151.873 64.4029C156.273 63.8546 158.349 65.5874 161.805 67.9945C162.641 68.5767 163.298 69.3334 164.117 69.8737C163.68 70.3188 162.853 71.1377 162.541 71.6336C160.968 74.1288 160.246 77.7151 160.283 80.6254C160.325 83.9076 161.059 85.8298 162.363 88.6929C160.335 91.5884 159.681 92.9579 158.922 96.327L158.752 96.3151C157.172 96.2139 156.723 96.6459 154.683 96.326C152.554 95.9924 150.35 95.7365 148.212 95.3274C147.344 95.1614 145.891 94.626 145.195 94.5369L145.344 94.2023C147.222 94.8271 149.894 93.9428 151.772 93.4421C153.714 96.2113 155.626 93.5385 154.366 91.0873C153.884 90.1511 153.612 88.1785 152.026 88.0376C150.656 88.0165 150.5 89.3689 150.622 90.3532L150.641 90.4933C147.555 91.2364 146.195 91.8406 143.283 90.009C141.209 88.705 137.581 85.6446 136.319 83.6233C133.693 79.412 131.956 73.9552 130.818 69.141C130.47 67.6634 130.366 66.6666 130.823 65.2357Z" fill="var(--fill-0, #FAF7EF)"/>
<path id="Vector_27" d="M156.685 69.9163C158.511 70.1943 158.425 71.814 157.478 72.8957C156.322 74.2174 154.574 77.2593 153.012 77.7815C148.97 76.6651 155.087 70.4552 156.685 69.9163Z" fill="var(--fill-0, #3D3E40)"/>
<path id="Vector_28" d="M150.467 66.2866C154.929 65.7728 150.998 70.7867 149.455 71.7863C146.445 72.1467 147.351 69.352 148.665 67.9683C149.347 67.2491 149.622 66.8725 150.467 66.2866Z" fill="var(--fill-0, #3D3E40)"/>
<path id="Vector_29" d="M165.757 72.9574C166.398 73.0912 167.036 73.1966 167.681 73.3075C168.219 75.065 168.915 75.4886 169.711 76.8582C171.947 80.7039 175.045 82.9593 178.569 85.5038C179.97 86.5519 181.432 87.3681 182.55 88.7461C185.358 92.2093 184.592 94.3301 181.449 96.9192C180.921 97.2874 178.871 98.297 178.147 98.6857C177.136 98.3017 175.447 97.8852 174.595 97.2848C167.852 92.5374 163.611 84.5844 164.861 76.229C165.005 75.2695 165.48 73.9211 165.757 72.9574Z" fill="var(--fill-0, #FAF7EF)"/>
<path id="Vector_30" d="M149.109 145.09C149.426 145.322 151.112 147.41 151.497 147.901C152.567 149.26 153.802 150.454 154.871 151.779C155.502 152.557 156.331 153.798 156.98 154.664C156.218 157.761 153.236 161.672 151.332 164.182C150.728 164.976 149.645 166.189 148.54 166.011C146.881 164.488 153.801 156.03 149.985 153.912C149.481 153.632 149.093 153.421 148.559 153.186C148.409 150.426 148.765 147.821 149.109 145.09Z" fill="var(--fill-0, #FAF7EF)"/>
<path id="Vector_31" d="M124.065 76.582C124.206 76.6854 124.309 76.7752 124.36 76.959C125.154 79.8735 125.643 82.7162 127.028 85.4471C128.864 88.9959 131.553 92.0327 134.853 94.2839C134.834 96.3175 135.741 98.2412 135.275 100.165L135.054 100.229C128.746 96.5498 120.774 83.7571 124.065 76.582Z" fill="var(--fill-0, #FAF7EF)"/>
<path id="Vector_32" d="M153.024 103.889L156.46 104.381C158.472 107.246 164.052 110.185 167.332 111.626C169.106 112.406 173.915 113.547 174.029 116.076C172.678 116.43 169.914 115.671 168.577 115.27C163.477 113.74 158.671 110.402 155.093 106.483C154.547 105.886 153.387 104.566 153.024 103.889Z" fill="var(--fill-0, #FAF7EF)"/>
<path id="Vector_33" d="M135.208 57.5328C137.614 57.6529 137.671 59.7203 136.526 61.3867C136.029 61.7456 135.793 61.9879 135.278 61.5733C134.871 60.6491 134.947 58.4596 135.208 57.5328Z" fill="var(--fill-0, #FAF7EF)"/>
<path id="Vector_34" d="M144.318 65.0512L144.396 65.1179C144.3 65.3968 142.955 66.3935 142.617 66.7393C142.062 67.306 141.227 68.8034 140.477 68.8542L140.037 68.4403L139.058 67.4364C140.84 66.5302 142.459 65.7711 144.318 65.0512Z" fill="var(--fill-0, #FAF7EF)"/>
<path id="Vector_35" d="M145.194 94.5369C144.426 94.3526 143.159 93.7831 142.519 93.32C142.999 93.3445 144.809 94.0182 145.344 94.2023L145.194 94.5369Z" fill="var(--fill-0, #707177)"/>
<path id="Vector_36" d="M127.874 53.0468C131.794 52.8368 128.484 59.5375 127.38 60.3047C124.482 60.5356 125.417 57.7834 126.035 56.0815C126.505 54.7862 126.711 53.8805 127.874 53.0468Z" fill="var(--fill-0, #3D3E40)"/>
<path id="Vector_37" d="M118.275 101.462C120.328 101.546 120.317 103.581 120.412 105.245C120.484 106.521 120.662 107.929 119.222 108.369C116.882 108.345 117.256 106.92 117.072 105.015C116.933 103.585 116.867 102.14 118.275 101.462Z" fill="var(--fill-0, #3D3E40)"/>
<path id="Vector_38" d="M112.376 101.606C112.685 101.588 112.996 101.556 113.282 101.685C113.638 101.849 113.909 102.156 114.026 102.53C114.407 103.772 113.433 106.436 112.892 107.655C112.701 108.085 112.356 108.208 111.931 108.334C111.752 108.324 111.574 108.31 111.396 108.292C108.671 107.994 111.129 102.403 112.376 101.606Z" fill="var(--fill-0, #3D3E40)"/>
<path id="Vector_39" d="M123.233 102.35C124.512 102.222 125.083 103.24 125.484 104.317C126.005 105.712 126.992 107.691 125.205 108.411C125.025 108.422 124.844 108.417 124.666 108.395C123.136 108.22 122.183 104.822 122.329 103.49C122.387 102.959 122.838 102.633 123.233 102.35Z" fill="var(--fill-0, #3D3E40)"/>
<path id="Vector_40" d="M122.279 52.5459C124.543 52.7033 125.051 56.0307 122.931 57.0151C120.674 57.0486 120.08 53.6075 122.279 52.5459Z" fill="var(--fill-0, #3D3E40)"/>
</g>
</svg>
