<svg preserveAspectRatio="none" width="100%" height="100%" overflow="visible" style="display: block;" viewBox="0 0 268 209" fill="none" xmlns="http://www.w3.org/2000/svg">
<g id="telegram-cloud-photo-size-4-5828210289726393803-y 2 [Vectorized]">
<path id="Vector 1" d="M115.107 36.2129L90.3307 42.4208L84.6528 41.3861L71.7484 37.7649L64.0058 41.3861V46.0421L67.619 50.1807L73.2969 57.4233L75.8778 65.1832L81.5557 73.4604L88.7822 77.599L87.2337 81.2203L81.5557 83.2896L77.9425 91.5668L74.3293 103.983V126.745H99.6219L98.0734 109.156V101.396L99.6219 93.6361L96.5248 85.8762V81.2203H108.913L115.107 77.599L120.269 68.2871L126.463 61.5619L120.269 53.802L115.107 36.2129Z" fill="var(--fill-0, #FAF7EF)"/>
<path id="Vector" d="M65.1841 38.8911C62.1505 40.2541 58.6423 41.5408 55.9513 43.5216C52.3857 46.1792 49.6735 49.8808 46.3161 52.7584C45.236 53.5709 43.2557 55.6899 42.0666 53.9481C41.0331 52.4339 40.6806 50.2431 40.4155 48.4462C39.9593 45.3548 39.3333 42.3786 39.2021 39.2485C39.0753 36.653 39.1752 34.0513 39.5011 31.4733C40.7959 21.9519 44.2245 15.7527 51.9238 9.56773C59.4991 3.4823 70.4144 1.20896 77.3312 9.77424C79.9835 13.0587 80.3145 16.9739 79.7007 21.1327C80.3281 20.5561 80.8515 20.2167 81.5472 19.7681C88.5029 15.2835 95.2457 13.4744 103.443 15.5173C111.281 17.4707 121.055 22.4689 125.45 29.5366C129.964 36.7942 128.494 48.5596 126.618 56.4886C130.993 61.7379 129.066 65.3111 123.382 66.8978C123 67.0045 121.149 71.2145 120.785 71.9429C118.126 77.2588 113.135 81.0551 107.428 82.5001C105.337 83.0401 98.8808 81.7876 97.5703 83.1308L97.6322 83.3871C99.7516 84.5703 100.804 86.1092 101.524 88.416C102.756 92.3666 105.418 96.1673 102.615 99.9647C104.955 102.698 107.164 105.7 109.541 108.498C113.896 113.624 118.001 117.064 123.402 121.01C127.691 120.031 129.267 121.114 131.027 125.001C134.762 127.305 136.932 131.013 138.039 135.285C138.402 136.689 138.053 138.596 138.716 140.256C141.857 148.125 144.671 154.661 150.853 160.542C150.492 158.245 148.108 150.337 151.926 149.897C153.715 149.691 156.602 156.113 157.595 157.603C158.391 158.789 159.334 159.868 160.402 160.815C163.098 163.192 168.065 163.592 171.559 164.147C177.594 165.107 184.797 166.273 190.904 166.243C195.656 166.22 201.396 165.353 206.262 165.038C208.425 164.899 211.133 164.245 213.769 164.066C215.872 160.848 218.463 156.564 221.868 154.661C225.085 152.863 227.49 154.78 230.543 155.657C233.582 156.531 235.881 155.821 238.518 154.414C238.575 149.961 242.495 149.441 243.137 151.542C245.509 159.334 240.212 168.186 233.734 172.422C231.535 173.86 228.918 175.098 226.647 176.464C224.996 177.533 223.937 178.611 222.253 179.614C223.092 181.548 225.428 185.831 226.977 186.942C230.342 189.352 237.239 192.795 230.394 196.785C235.488 197.095 239.644 196.493 244.746 197.926C247.208 198.618 259.064 197.328 260.054 199.759C259.799 200.968 258.429 201.095 257.359 201.05C249.299 200.664 241.178 200.104 233.129 199.481C230.305 199.262 220.854 199.842 219.41 197.894C219.334 197.216 219.265 197.454 219.599 196.96C221.391 196.106 225.884 196.818 228.692 196.682C224.307 195.022 217.015 190.856 213.844 187.458C210.875 190.561 204.083 195.2 199.821 195.952C198.095 196.257 194.14 196.71 193.942 194.233C193.585 189.762 198.237 189.88 201.094 188.353C202.818 187.431 203.996 185.75 205.114 184.259C201.84 184.112 198.185 184.236 194.964 184.067C188.85 183.746 179.999 182.396 174.386 179.78C175.752 185.68 178.03 186.585 182.229 190.275C183.422 191.323 182.741 192.732 182.655 194.033L180.67 194.594L178.82 194.551C175.479 193.881 172.757 193.445 170.723 190.286C169.625 188.582 168.189 185.713 167.573 183.785C165.006 185.756 160.057 187.218 156.876 188.23C150.252 190.338 153.718 189.963 152.162 194.774C154.269 194.437 157.849 194.607 160.089 194.643C166.292 194.743 172.309 195.168 178.539 195.135L180.854 195.11L182.307 195.088C183.501 195.09 187.685 194.896 187.647 196.826C186.912 197.701 185.32 197.723 184.27 197.758C175.853 198.04 167.592 197.328 159.21 196.969C150.974 196.616 142.508 197.245 134.274 196.65C133.98 196.629 133.788 196.093 133.677 195.87C134.156 193.729 144.61 194.587 146.742 194.685C142.425 184.262 153.265 182.689 157.404 175.763C156.751 173.901 152.585 165.021 151.513 164.194C143.694 158.161 140.027 150.822 136.564 141.442C132.555 142.383 129.988 142.002 126.428 139.868C124.09 138.466 121.448 135.829 121.395 132.937C121.382 132.193 122.084 130.811 121.985 129.971C121.62 128.589 121.172 127.097 120.829 125.695C114.039 121.311 109.274 116.411 103.966 110.403C102.561 108.812 99.5905 105.325 98.1856 104.065C98.579 107.054 98.6118 110.309 98.8521 113.877C99.2172 119.297 101.549 127.003 100.751 132.235C100.556 133.512 98.9272 135.41 98.0416 136.314C100.32 144.205 105.078 153.85 108.997 161.028C109.919 162.716 112.007 166.704 113.109 168.043C116.466 172.121 118.288 171.952 121.227 176.879C120.929 177.397 119.977 178.814 120.348 179.235C123.667 183.003 128.615 173.509 131.141 171.985C131.459 171.793 131.94 171.772 132.226 171.886C133.823 172.52 136.063 172.649 136.989 174.277C138.039 176.37 136.727 179.605 135.85 181.552C134.011 185.631 131.668 189.418 127.564 191.486C125.217 192.669 123.513 193.394 120.879 192.598C120.701 192.392 120.528 192.181 120.359 191.967C119.57 190.957 117.263 187.706 116.953 186.639C116.155 183.886 117.696 185.093 115.329 182.295C115.065 182.487 114.796 182.67 114.52 182.844C111.734 184.586 108.892 180.315 108.04 178.088C107.739 177.3 108.036 176.398 108.234 175.609C105.155 172.426 92.9274 154.143 91.1062 149.924C91.5316 148.555 92.9783 144.694 92.1543 143.496L91.7309 143.431C91.2644 143.875 90.7076 147.072 90.4207 148.025C86.7577 160.189 80.3988 172.534 72.4635 182.414C72.6144 184.836 71.9562 188.203 69.3637 189.212C68.1891 189.669 67.1511 189.056 66.0899 188.552C64.8648 189.381 64.3595 189.761 63.2802 190.769C68.5799 195.936 75.41 189.559 74.5337 199.636C76.3863 199.365 91.3817 198.141 92.605 198.573C93.1066 198.751 93.2275 199.067 93.4615 199.503C92.8834 201.679 85.6688 201.125 83.6482 201.334C65.4559 203.217 47.065 202.701 28.8114 202.229C26.3829 202.166 16.5234 202.22 15.3858 200.57C15.5525 199.603 16.6922 199.093 17.5697 199.174C31.0065 200.41 44.4721 199.991 57.9735 200.046C55.4363 197.517 53.7872 194.946 52.5121 191.611C53.2167 189.568 54.9734 185.911 57.4414 185.821C58.3287 185.789 59.4429 186.109 60.2344 185.606C61.5905 184.745 57.9481 183.088 61.6651 179.673C62.9152 178.525 64.3674 177.993 65.5425 176.655C72.5158 168.711 79.7082 151.705 77.4149 141.038C76.8712 138.509 76.2238 135.535 75.2339 133.152C74.2327 130.742 72.8207 129.045 72.3639 126.361C71.0662 118.734 72.1792 107.065 74.0344 99.5556C73.1324 100.883 72.3193 102.418 71.5839 103.856C66.653 113.496 61.6838 121.891 62.8904 133.133C64.519 135.258 65.283 135.901 66.1412 138.505C65.4452 139.736 64.877 140.185 63.8496 141.106L62.9676 144.183C61.3239 145.472 59.2266 146.026 57.542 144.338C52.6404 139.911 56.558 134.968 56.7551 131.291C57.5025 117.346 64.1021 105.875 70.6308 93.9863C71.1298 93.0777 70.0286 89.9143 72.4661 87.8029C73.4797 86.925 75.1129 84.2682 76.9702 83.6029C78.4599 82.4319 87.7185 80.0654 87.5763 78.7436C86.7059 77.9258 85.2287 77.3069 84.1756 76.6165C78.7873 73.0833 75.6074 68.9124 74.1761 62.5977C69.7584 58.7408 69.1572 57.3813 67.5731 51.8522C66.8074 51.1636 65.8119 50.6376 65.0462 49.893C61.1887 46.1433 61.6669 42.5272 65.1841 38.8911ZM74.6075 51.3138C75.2683 50.4535 76.01 49.2128 77.164 49.9122C77.7958 51.3848 76.907 54.4574 76.6625 56.0887C75.0803 66.6492 81.9713 73.8156 91.2516 77.5092C99.6127 80.8369 108.544 81.9723 115.466 75.1649C119.79 69.8676 120.11 66.991 122.753 61.2299C115.048 53.6385 113.737 50.1102 114.062 39.4245C104.985 45.62 97.2675 46.2827 86.5748 44.8158C80.2744 43.9514 77.284 38.5211 70.8357 39.4436C68.7638 39.8502 66.946 40.348 65.651 42.2188C63.7034 45.0324 65.9962 47.9077 68.4477 49.3646C70.5097 50.6427 72.5166 50.5251 74.6075 51.3138ZM90.8329 108.204C92.2625 106.024 91.9621 105.72 92.7492 103.276C92.9241 102.805 94.4219 101.81 94.4621 101.432C94.7268 98.9448 90.1906 98.2139 89.4426 100.756C89.7045 102.183 90.9487 101.628 91.0671 103.824L91.0732 103.953C91.1369 105.123 90.517 106.712 90.1472 107.866C88.6441 107.674 85.7926 107.651 85.2448 106.05C82.721 98.6754 91.777 93.5097 95.5196 101.478C95.5084 102.476 95.4972 103.292 95.4007 104.293C94.5107 107.131 93.4937 107.376 90.8329 108.204ZM76.3464 99.237C74.5631 107.47 72.6209 123.013 76.5731 130.428C80.2418 137.311 96.2155 137.824 98.4448 130.899C98.4322 130.939 96.0831 109.005 95.8623 106.879C95.909 105.131 95.9328 103.383 95.9336 101.635C95.9949 99.9922 96.8698 89.5608 96.5012 89.0914C91.5515 90.1178 87.4588 86.187 84.2628 82.9344L84.0272 83.2098C84.186 83.9015 85.0605 85.9331 85.033 86.3823C84.8314 89.6763 82.052 93.2663 80.4641 96.068C79.3376 98.0557 78.5602 98.9244 76.3464 99.237ZM63.5651 137.873C62.3931 136.504 61.6634 135.694 60.3442 134.479C60.1357 131.635 60.1927 128.728 60.4513 125.884C60.5859 124.403 61.0466 122.453 61.1392 121.067C61.4942 120.441 62.1693 118.387 62.4796 117.611C63.5097 114.972 64.623 112.367 65.8184 109.799C67.7639 105.582 71.2171 100.029 72.7365 95.9659C69.3984 100.001 61.9011 115.877 60.9333 121.088C59.4938 124.21 59.7852 128.203 59.241 131.56C58.7804 134.4 56.9129 137.618 58.0226 140.495C58.3717 141.4 58.8148 142.35 59.7308 142.783C61.2977 142.666 61.1468 141.323 61.2759 140.036C62.141 139.098 62.5851 138.684 63.5651 137.873ZM169.858 176.158C173.895 176.852 176.463 178.055 180.399 179.279C185.853 180.976 189.908 181.059 195.531 181.686C200.917 182.483 206.722 181.235 211.968 182.315C212.714 182.468 216.265 186.571 217.196 187.131C219.829 188.713 228.413 196.36 231.024 193.178C229.657 191.248 227.574 190.777 225.81 189.215C221.418 185.326 219.664 179.56 217.188 174.411C208.598 175.472 200.993 176.433 192.3 175.995C188.198 175.788 183.939 176.193 179.823 175.774C176.483 175.645 172.101 173.988 169.702 173.835C169.759 174.59 169.836 175.407 169.858 176.158ZM169.469 181.733C170.564 184.486 172.084 188.268 173.975 190.553C176.186 191.532 177.554 191.294 179.729 192.494L180.301 192.302L180.334 191.956C178.73 190.037 176.524 189.224 174.709 186.871C173.254 184.984 171.955 179.705 170.659 178.869L169.469 181.733ZM199.772 193.561C204.871 191.858 208.008 189.044 212.135 185.682C210.429 184.231 210.447 184.092 208.225 184.129C206.006 186.485 204.816 189.977 201.338 190.996C200.343 191.288 196.648 192.461 196.455 193.49C197.387 194.032 198.761 193.751 199.772 193.561ZM129.969 133.862C129.188 133.911 128.381 133.978 127.594 133.915C126.511 133.829 124.585 132.506 123.77 133.189C123.911 134.293 125.62 136.118 126.502 136.803C126.937 137.144 127.387 137.465 127.85 137.765C131.148 139.719 137.281 141.614 135.499 134.988C135.182 133.811 133.207 130.113 132.293 129.49C131.959 131.777 131.768 132.275 129.969 133.862ZM125.503 130.412C126.386 130.95 127.598 131.784 128.633 131.744C130.441 130.139 129.959 129.053 129.305 126.986C127.547 121.436 125.406 124.024 122.01 123.234C123.245 124.638 122.977 126.605 124.053 127.888C124.846 127.886 125.915 127.653 126.435 128.011C126.775 129.045 126.132 129.595 125.503 130.412ZM94.7516 81.5037C93.3218 80.9177 91.4016 80.0684 89.9606 79.6645C89.7311 80.3425 89.3367 81.8021 88.8817 82.2376C88.415 82.2782 87.9948 82.3162 87.5285 82.3848C87.8213 83.9876 92.5575 86.4078 94.1218 86.7281C95.006 86.6807 94.7626 86.827 95.2791 86.2747C95.4333 85.6212 95.363 85.5012 95.1192 84.8936C94.2034 84.4944 94.3252 85.2734 93.8045 84.6368C93.9855 83.5473 94.5042 82.7736 94.7516 81.5037ZM119.442 182.723C119.35 181.621 118.434 180.465 117.392 180.153C117.352 181.426 118.311 182.324 119.442 182.723ZM225.149 174.289C228.482 172.973 233.854 169.721 236.239 167.086C233.84 167.883 232.651 168.515 230.311 167.328C230.173 167.259 230.036 167.186 229.904 167.108C229.193 166.46 228.399 165.597 228.951 164.632C230.36 164.012 231.244 164.836 232.354 165.609C235.95 164.953 241.165 161.156 241.353 157.131L241.137 156.783C239.567 156.495 235.347 158.986 232.229 158.505C229.258 158.046 227.788 157.262 224.994 156.275C224.817 158.158 224.886 159.893 224.684 161.791C224.371 164.753 223.36 167.18 222.517 169.93C223.415 171.37 224.293 172.823 225.149 174.289ZM72.8376 29.9221C74.4743 26.8373 75.5037 25.1616 77.9369 22.5306C76.8879 22.4665 75.5503 22.334 74.5319 22.464C72.6109 23.4151 68.0036 27.698 71.7841 29.8431C72.1421 30.0462 72.4614 30.0544 72.8376 29.9221ZM62.7395 187.093C61.8876 187.506 61.5716 187.596 61.1341 188.412L61.1496 188.841C61.5952 188.99 61.3783 188.99 61.8215 188.847C62.3182 188.434 63.2075 187.814 63.38 187.257C63.0902 187.109 63.067 187.064 62.7395 187.093ZM60.5057 199.086C64.208 199.764 66.8198 200.281 70.6433 199.834C71.9484 199.489 72.5565 198.77 72.4936 197.33C71.6301 195.087 66.087 195.809 63.795 194.423C62.2589 193.493 58.1792 188.649 57.3088 188.52C56.2662 189.686 55.9159 190.229 55.1813 191.646C56.2961 194.259 58.3342 197.239 60.5057 199.086ZM122.304 190.565C124.198 191.045 127.816 188.574 129.195 187.293C131.343 185.296 135.299 178.364 134.928 175.631C134.43 174.906 133.789 174.849 132.894 174.685C132.665 174.642 132.435 174.601 132.205 174.563C131.407 174.972 129.353 177.735 128.464 178.629C126.469 180.633 121.611 184.65 119.163 185.787C120.191 187.31 121.383 188.996 122.304 190.565ZM99.9135 101.225C99.9599 103.351 110.626 113.85 112.749 116.179C113.986 117.536 120.112 122.734 121.993 123.313C121.555 122.564 115.1 117.561 113.711 116.262C110.656 113.408 107.818 110.329 105.223 107.049C104.232 105.792 101.293 101.532 99.9135 101.225ZM167.409 172.85C165.341 172.044 157.596 167.897 156.564 167.685C157.506 170.942 161.062 174.286 159.156 177.822C156.457 182.829 146.46 185.458 148.567 192.447C148.716 192.895 148.807 193.077 149.212 193.352L149.616 193.355C150.481 191.647 149.248 190.194 150.607 188.371C155.195 184.779 166.741 184.694 167.433 179.101C167.542 178.219 167.379 174.135 167.409 172.85ZM222 157.463C219.481 159.58 212.667 168.638 214.73 171.972L215.42 172.455C217.876 171.718 218.732 170.822 220.045 168.528C221.505 165.977 222.849 160.617 222.43 157.738C222.257 157.603 222.194 157.518 222 157.463ZM154.264 163.111C159.053 166.261 167.396 170.949 173.052 172.094C184.165 174.344 197.324 174.263 208.57 172.888C209.368 172.791 211.539 172.755 212.089 172.362L212.07 172.008C212.044 170.428 212.068 168.224 212.526 166.707C198.388 168.708 186.755 169.511 172.692 166.923C165.786 165.652 159.43 165.751 155.302 158.67C154.768 157.76 153.027 154.063 152.421 153.597C152.107 156.383 153.708 160.432 154.264 163.111Z" fill="var(--fill-0, #414344)"/>
<path id="Vector_2" d="M96.5042 66.8296C98.6792 66.7561 100.379 70.8071 103.073 71.3627C104.944 71.7482 108.05 70.9514 109.133 72.1407C109.169 72.8561 109.143 72.6691 108.766 73.3735C106.555 74.2644 103.49 74.0705 101.336 73.1339C98.9653 72.1028 95.2211 69.897 96.5042 66.8296Z" fill="var(--fill-0, #414344)"/>
<path id="Vector_3" d="M116.498 55.814C119.632 56.1559 116.003 63.4042 114.938 64.6131C114.26 64.4016 113.634 63.913 113.681 63.1562C113.803 61.165 115.24 57.1719 116.498 55.814Z" fill="var(--fill-0, #414344)"/>
<path id="Vector_4" d="M97.1649 49.6553C97.2991 49.7134 97.7532 49.9157 97.8642 50.0004C99.4781 51.2334 97.6565 56.2735 96.7704 57.4862C96.2132 57.3546 96.1422 57.3103 95.6636 56.9921C94.5539 55.2244 96.0322 51.1848 97.1649 49.6553Z" fill="var(--fill-0, #414344)"/>
<path id="Vector_5" d="M87.5977 92.5386C89.9403 93.0524 89.588 95.4114 88.4587 96.9195L87.6596 96.788C86.0475 95.7287 86.8371 93.8582 87.5977 92.5386Z" fill="var(--fill-0, #414344)"/>
<path id="Vector_6" d="M91.1742 93.9498C91.554 94.1167 92.1081 94.4688 92.3421 94.8221C92.584 95.1842 92.6606 95.6322 92.5525 96.0543C92.3716 96.7741 91.967 97.0784 91.3695 97.4195C89.2827 96.8917 89.9841 95.1203 91.1742 93.9498Z" fill="var(--fill-0, #414344)"/>
<path id="Vector_7" d="M227.8 158.389C229.342 158.245 232.301 159.479 231.405 161.076C229.313 162.28 229.466 160.535 227.886 160.982C227.898 161.669 227.977 162.293 227.674 162.901C227.057 163.457 227.348 163.318 226.578 163.479C225.474 163.116 225.218 161.991 225.464 160.951C225.792 159.573 226.664 159.071 227.8 158.389Z" fill="var(--fill-0, #414344)"/>
<path id="Vector_8" d="M90.1472 107.866C88.6441 107.674 85.7926 107.651 85.2448 106.05C82.721 98.6754 91.777 93.5098 95.5196 101.478C95.5084 102.476 95.4972 103.292 95.4007 104.293C94.5107 107.131 93.4937 107.376 90.8329 108.204C92.2625 106.024 91.9621 105.72 92.7492 103.276C92.9241 102.805 94.4219 101.81 94.4621 101.432C94.7268 98.9448 90.1906 98.2139 89.4426 100.756C89.7045 102.183 90.9487 101.628 91.0671 103.824L91.0732 103.953C91.1369 105.123 90.517 106.712 90.1472 107.866Z" fill="var(--fill-0, #414344)"/>
<path id="Vector_9" d="M99.9135 101.225C101.293 101.532 104.232 105.792 105.223 107.049C107.818 110.329 110.656 113.408 113.711 116.262C115.1 117.561 121.555 122.564 121.993 123.313C120.112 122.734 113.986 117.536 112.749 116.179C110.626 113.85 99.9599 103.351 99.9135 101.225Z" fill="var(--fill-0, #42444A)" fill-opacity="0.0470588"/>
<path id="Vector_10" d="M72.7365 95.9659C71.2171 100.029 67.7639 105.582 65.8184 109.799C64.623 112.367 63.5097 114.972 62.4796 117.611C62.1693 118.387 61.4942 120.441 61.1392 121.067L60.9333 121.088C61.9011 115.877 69.3984 100.001 72.7365 95.9659Z" fill="var(--fill-0, #42444A)" fill-opacity="0.0470588"/>
<path id="Vector_11" d="M95.5196 101.478L95.9336 101.635C95.9328 103.383 95.909 105.131 95.8623 106.879C95.6387 106.582 95.6952 104.915 95.6391 104.273L95.4007 104.293C95.4972 103.292 95.5084 102.476 95.5196 101.478Z" fill="var(--fill-0, #42444A)" fill-opacity="0.364706"/>
<path id="Vector_12" d="M229.358 136.756C231.682 136.615 232.423 137.441 234.109 138.926C238.52 138.403 240.424 139.4 239.416 143.974C238.182 145.408 236.954 146.469 235.502 147.667C234.355 148.551 232.51 149.836 231.042 149.715C229.669 149.03 228.879 146.63 228.409 145.227C227.328 142 226.045 138.976 229.358 136.756Z" fill="var(--fill-0, #414344)"/>
<path id="Vector_13" d="M180.67 194.594L182.655 194.033L182.858 194.524L182.339 194.867L182.307 195.088L180.854 195.11L180.67 194.594Z" fill="var(--fill-0, #414344)" fill-opacity="0.0117647"/>
<path id="Vector_14" d="M178.82 194.551L180.67 194.594L180.854 195.11L178.539 195.135L178.876 194.88L178.82 194.551Z" fill="var(--fill-0, #42444A)" fill-opacity="0.352941"/>
</g>
</svg>
