<svg preserveAspectRatio="none" width="100%" height="100%" overflow="visible" style="display: block;" viewBox="0 0 345 186.985" fill="none" xmlns="http://www.w3.org/2000/svg">
<g id="Icon Group">
<path id="Vector 2" d="M50.025 137.425V127.65L56.35 126.5H63.25L76.475 130.525L77.625 140.3L78.2 151.225L79.35 158.125H39.1L40.25 156.4V150.075L43.7 146.05L44.85 140.875L50.025 137.425Z" fill="var(--fill-0, #FAF7EF)"/>
<path id="Vector" d="M149.058 11.0905C147.988 8.54559 146.033 6.14223 144.742 3.6939C144.095 2.46762 144.003 1.14968 145.57 0.613932C148.513 -0.39275 152.365 -0.081314 155.267 0.968243C157.203 1.66852 157.994 2.71953 158.781 4.50459C164.62 4.33745 173.536 6.12102 178.394 9.38088C180.93 7.2883 182.591 6.75122 186.135 6.90167C188.04 6.98101 192.734 8.38862 193.889 9.8611C196.303 12.9415 187.431 17.5543 185.502 18.9347C185.516 19.6529 185.311 22.2441 185.622 22.6032L186.362 22.2576C186.365 22.76 185.302 23.5503 185.226 24.0469C184.671 27.6476 184.274 30.919 182.73 34.2593C183.887 34.8942 189.666 37.386 189.03 39.0591C187.534 42.9945 181.949 36.0956 179.991 37.3951C180.083 38.8836 183.321 40.6025 183.083 41.8308C182.184 46.4564 177.893 40.5867 177.067 39.6613L175.721 40.5517C178.561 43.2303 179.749 46.2974 178.34 50.041C177.191 53.1015 179.116 54.0626 180.172 57.0147C182.493 63.5019 182.481 69.569 181.537 76.4164C190.626 79.6337 189.943 89.0579 180.826 91.5184C180.022 91.7355 179.069 91.8076 178.232 91.8951C175.425 100.834 168.231 106.304 159.492 108.918C158.469 109.225 153.285 110.345 153.076 110.459C152.72 110.985 152.832 111.562 152.854 112.233L154.48 113.066C159.09 113.048 162.421 111.461 166.105 108.916C167.092 109.335 167.891 109.607 168.901 109.942C174.945 104.877 180.118 99.9629 185.316 94.0546C188.099 90.892 191.588 87.8121 193.823 84.2034C196.12 80.4975 196.581 74.2864 202.008 73.7428C202.547 73.6893 202.801 74.3059 203.663 74.0549C204.079 73.3796 204.204 71.9624 204.335 71.1287C205.194 65.6105 206.796 59.572 211.49 56.0494C214.556 53.7473 218.529 54.7464 221.971 55.3736C224.016 54.4631 225.927 53.7304 228.044 53.1241C232.201 51.9333 244.805 51.0661 248.28 53.122C251.132 52.1558 252.799 50.9459 255.981 52.1045C261.483 54.066 263.144 60.0964 264.912 65.0941C268.667 75.7083 277.562 88.5449 273.499 100.121C273.716 100.072 273.93 100.043 274.151 100.029C275.861 99.9203 293.58 106.302 296.215 107.346C298.379 108.203 300.598 109.161 302.638 110.274C304.562 111.323 306.202 112.913 307.831 114.359C317.548 116.433 329.89 107.652 336.882 101.674C338.026 100.919 342.221 94.3953 343.766 96.5217C346.194 99.8625 344.43 108.189 343.616 112.139C343.393 113.214 342.722 114.527 342.19 115.512C341.849 116.142 339.186 116.953 339.153 117.008C337.591 119.651 335.052 128.597 330.657 125.603C330.372 125.408 329.928 126.098 329.681 126.44C327.46 129.5 325.319 133.1 322.022 135.119C319.644 136.508 318.222 134.267 317.371 132.475C316.423 133.712 315.456 134.481 314.282 135.486C313.336 139.93 314.04 145.455 314.564 150.021C315.006 153.634 317.698 159.626 316.006 163.023C313.67 167.716 304.748 169.013 300.323 166.815C298.586 165.951 296.646 163.957 297.805 161.924C298.808 160.165 300.829 159.665 302.607 159.116C301.313 156.023 299.264 153.214 297.431 150.425C296.514 149.03 295.968 146.283 294.643 145.67C293.105 146.599 290.356 163.202 286.787 164.218C284.555 164.853 275.838 165.75 273.899 164.571C267.573 160.721 273.786 157.665 277.537 156.057C278.398 153.893 279.138 149.013 279.421 146.597C268.732 146.576 263.156 145.22 253.479 140.356C252.6 142.112 252.143 145.801 251.656 147.809C251.094 150.125 250.235 152.696 249.939 155.024C249.544 158.147 249.922 162.101 248.198 164.984C246.603 166.239 245.176 165.771 243.28 166.334C240.005 167.305 230.785 170.306 229.938 164.76C229.048 160.219 236.568 157.012 237.855 154.882C239.732 151.779 235.815 138.385 235.194 135.082C232.747 136.54 229.882 138.337 227.241 139.323C223.284 140.8 219.313 142.084 215.355 143.615C216.069 144.115 216.763 144.618 217.466 145.141C224.379 150.293 225.842 161.668 219.951 168.111C219.13 169.008 218.264 169.683 217.29 170.436C217.548 170.422 217.805 170.412 218.063 170.403C219.426 170.361 223.172 170.69 224.254 171.626C224.708 172.019 224.656 172.649 224.606 173.2L224.63 173.612C222.966 174.637 221.612 174.31 219.731 174.346C218.19 174.376 216.65 174.48 215.113 174.383C213.888 173.184 206.358 173.673 204.337 173.085C202.034 172.417 201.189 171.871 199.26 170.547L199.221 170.629C199.054 170.975 198.905 171.433 198.668 171.732C198.329 172.165 197.877 172.205 197.364 172.233C195.508 172.336 193.635 172.21 191.774 172.301C188.487 172.461 172.768 173.927 171.016 172.245C170.674 171.916 170.561 171.551 170.55 171.087C170.541 170.669 170.642 170.252 170.955 169.956C171.352 169.58 171.961 169.474 172.488 169.445C173.46 169.389 174.469 169.589 175.443 169.629C177.06 169.695 178.716 169.627 180.333 169.573C185.934 169.38 191.456 168.765 197.072 168.886C195.31 166.706 194.082 165.625 192.75 162.981C190.819 159.146 190.821 154.267 192.167 150.254C193.305 146.865 194.941 144.757 198.161 143.178C198.03 142.984 197.905 142.789 197.781 142.59C195.058 138.149 202.634 131.913 206.77 131.556C208.319 131.321 210.33 131.76 211.8 131.232C216.224 129.643 221.157 127.634 225.181 125.26C224.694 123.127 224.482 121.13 224.211 118.964C217.892 121.963 220.819 111.782 221.334 109.105C217.659 108.013 216.127 106.486 213.84 103.66C211.208 105.289 208.392 106.46 205.284 105.721C197.86 103.957 197.973 99.0235 199.242 93.0569C195.442 95.9428 192.845 98.6166 189.567 102.005C187.548 104.175 184.904 106.335 183.008 108.562C179.079 113.177 175.422 117.176 170.475 120.721C169.842 121.175 168.436 123.274 167.774 124.013C166.501 125.433 165.187 126.77 163.843 128.137C163.242 132.148 162.374 136.727 161.919 140.681C161.106 147.746 162.649 151.6 159.262 158.183C161.584 157.865 164.108 157.721 165.955 156.077C171.328 151.027 181.688 155.194 178.058 162.933C175.126 169.184 163.713 173.179 157.639 175.366C160.321 176.162 168.061 176.814 168.469 180.801C168.733 183.375 164.853 184.883 162.558 184.873C158.337 184.852 153.196 183.109 150.076 180.152C148.948 180.42 146.731 180.765 145.62 180.636C141.912 183.038 136.481 185.711 131.962 184.304C130.523 183.857 129.447 181.937 130.171 180.504C131.209 178.448 134.186 177.782 136.217 177.06C132.174 175.78 128.202 174.637 124.126 173.489C120.04 172.339 112.999 170.454 111.203 166.281C109.724 168.083 111.155 168.213 110.324 169.794C109.906 170.591 105.667 170.335 104.651 170.354C102.165 170.421 99.6806 170.521 97.1977 170.655C92.4443 170.888 87.6131 171.405 82.8721 171.358C82.397 171.353 82.1625 171.153 81.8035 170.855C81.4072 170.285 81.4609 169.782 81.439 169.083C80.5525 168.987 79.6177 168.932 78.7251 168.864C77.4916 170.513 73.4625 173.891 71.9699 170.883C71.879 168.478 75.0833 168.832 75.8585 166.961C77.125 163.906 73.2483 161.775 71.1944 160.726C70.6231 159.065 70.2227 157.35 69.9999 155.607C69.6964 153.32 68.7205 138.332 69.3073 137.055C69.4875 136.663 69.8032 136.344 70.2169 136.205C70.6441 136.062 71.1203 136.155 71.5088 136.367C72.0485 136.663 72.2117 137.099 72.3313 137.662C72.6839 139.326 72.6136 141.214 72.6712 142.917C72.8407 147.937 72.6421 153.55 73.9867 158.418C77.2549 159.995 78.8533 161.926 79.3204 165.558C80.7223 165.572 86.3685 166.713 85.7278 164.004C85.0778 161.256 83.1605 161.317 80.9174 160.683C80.7365 160.632 79.2698 159.141 78.572 158.735C75.675 151.073 74.5205 144.338 75.6411 136.086C69.8705 134.26 64.741 131.892 60.1736 127.879C58.7596 128.212 57.9421 128.302 56.4991 128.196C54.381 129.514 53.6841 130.01 51.1642 130.109C50.5318 133.418 52.3369 136.932 49.53 138.899C47.2679 140.483 44.8855 141.298 46.0463 144.322C46.8848 146.507 43.2059 147.504 42.2534 149.284C40.8764 151.857 42.105 153.07 43.1764 155.377C43.4411 156.588 41.2057 158.117 40.4486 158.972C38.3848 161.301 43.5072 165.469 39.2483 165.952C35.7316 166.35 31.6635 161.677 30.2815 158.854C29.7465 157.762 29.2404 156.197 28.6115 155.096C24.9885 150.143 23.9792 146.186 24.3737 140.083C24.5149 137.898 23.3149 129.681 25.3089 127.954C29.6328 124.208 30.9337 135.322 31.5649 137.625C33.3448 142.741 34.32 148.891 38.3163 152.739C38.1905 145.92 42.2537 145.811 42.465 144.154C42.561 143.4 42.1887 142.881 42.4793 141.754C43.212 138.913 45.4631 137.428 47.8386 136.025C47.4949 133.892 47.5119 132.577 47.6467 130.432C44.7001 132.194 42.417 131.961 40.5722 128.91C32.1822 127.22 33.2088 116.53 35.4608 110.471C36.5212 107.618 38.1582 105.853 40.5907 104.14C39.2854 98.8836 41.4509 95.1549 46.5258 93.3289C49.7489 84.5324 57.4649 84.9877 65.3848 84.3643C67.1721 84.2236 69.0736 83.233 71.0525 83.6561C72.9355 84.0587 74.795 84.5993 76.6378 85.155C77.0339 85.2759 77.1387 85.876 77.7511 86.0769C79.3474 85.6289 84.583 86.0098 86.3703 86.5415C88.7069 87.2367 89.6694 88.6707 90.7463 90.6414C92.9766 91.4627 93.1849 91.9755 94.8551 93.5675C97.0905 95.3902 97.6601 96.1399 98.8835 98.6043C99.9557 100.764 102.199 107.297 98.1977 107.93C95.8562 107.328 97.2278 105.109 97.0658 103.715C96.8823 102.479 95.5534 98.9854 94.6598 98.1592C93.4194 97.0126 91.3504 94.7086 90.0463 93.6472C93.3966 99.4303 93.3241 100.735 93.5642 106.954C94.2107 107.065 94.6351 107.172 95.2362 107.457C96.3486 107.991 97.2027 108.946 97.6099 110.111C98.483 112.616 97.3446 114.584 94.889 115.384C94.6012 118.829 94.8294 120.671 93.18 123.65C90.2552 128.933 85.7281 130.481 80.1854 131.351C79.4481 131.466 80.3095 133.09 80.1709 133.341C79.075 135.326 78.7536 136.928 78.7166 139.227C78.1854 146.021 79.3897 151.296 81.7401 157.557C83.3628 157.591 84.9369 158.116 86.2553 159.063C89.3358 161.295 90.0461 164.808 87.7401 167.886L91.92 167.634C91.7314 166.373 91.7414 165.741 92.2233 164.498C93.1018 162.234 95.0431 160.828 97.2674 159.87C98.6565 159.272 101.064 158.421 102.578 157.844C102.744 157.91 102.885 157.967 103.003 158.013C103.84 157.739 105.841 156.202 106.606 155.616C112.707 150.943 117.757 143.54 121.605 136.929C122.952 134.614 124.359 130.9 125.578 128.352C126.247 126.953 127.502 124.464 127.874 123.029C127.926 122.73 128.08 121.62 128.216 121.409C130.92 117.234 136.671 114.443 141.089 112.375C141.796 112.045 142.187 112.396 142.8 112.096L142.798 111.701C142.398 111.487 139.498 111.588 138.764 111.559C136.535 111.487 134.322 111.149 132.174 110.55C126.038 108.834 122.089 106.157 118.955 100.607C117.49 104.077 117.115 104.131 113.362 103.985C112.739 103.592 112.266 103.205 111.915 102.564C110.986 100.872 110.422 91.7786 110.937 90.296C108.532 87.3004 108.157 86.1658 108.328 82.3682C107.887 82.1012 107.089 77.8658 106.397 76.4453C102.893 69.2502 96.7726 62.1956 94.4464 54.5707C92.5233 48.2674 93.0378 40.3268 96.2821 34.5054C98.7823 29.8074 102.428 26.923 107.448 25.3139C114.503 23.0525 125.073 25.6075 127.333 33.6255C129.944 34.5688 131.254 35.4329 132.662 37.9339C135.144 36.6644 137.017 36.1151 139.723 35.5452C141.184 32.0567 143.014 30.6327 146.713 30.3209L146.327 28.7751C144.793 28.4886 138.812 27.9699 138.837 25.9341C138.875 22.7815 143.686 25.2914 145.538 25.1119L145.884 24.6912C145.766 22.7652 140.092 21.8598 139.756 20.4466C138.665 15.8565 144.938 19.6025 145.732 19.9794C146.322 16.7991 147.615 13.9591 149.058 11.0905Z" fill="var(--fill-0, #3D4143)"/>
<path id="Vector_2" d="M272.724 101.685C272.884 102.109 273.069 102.666 273.486 102.848C275.469 103.71 277.779 104.4 279.81 105.116L289.172 108.448C295.981 110.824 300.775 112.043 305.937 117.302C307.363 117.702 309.72 118.229 311.151 118.152C321.889 117.575 334.455 109.12 341.537 101.664C341.431 105.058 341.175 109.52 339.895 112.667C339.081 114.012 337.398 112.764 336.565 114.431C335.121 117.317 334.135 119.964 332.417 122.739C331.063 121.421 329.917 120.979 328.55 122.581C325.863 125.729 323.96 129.116 320.872 132.005C318.784 127.134 317.922 128.298 314.233 130.739C313.621 128.826 313.255 126.675 312.327 124.909C311.855 124.013 310.3 123.712 309.699 124.531C308.434 126.248 310.697 129.046 310.805 131.254C310.937 133.998 310.793 136.209 310.596 138.918C310.443 141.829 310.714 144.916 310.867 147.812C311.116 152.557 313.212 156.659 313.198 161.377C310.445 164.948 304.542 165.244 300.735 163.308C302.303 162.769 305.119 162.077 305.665 160.306C306.526 157.522 303.801 154.23 302.46 151.924C301.99 150.94 300.069 148.709 299.764 147.814C298.608 144.416 298.202 143.903 295.367 141.714C292.085 139.043 289.849 134.421 289.063 130.329C288.642 128.132 290.329 126.079 287.231 125.188C286.452 125.697 286.309 125.994 285.767 126.776C285.163 132.586 287.169 136.087 289.979 140.918C278.94 145.618 264.894 142.924 254.762 137.118C255.789 134.891 258.007 129.028 255.325 127.41C253.904 127.248 253.398 128.537 253.302 129.754C253.109 133.749 250.579 137.118 249.772 140.836C248.846 145.102 247.721 149.357 246.7 153.578C246.031 156.351 246.526 159.499 245.77 162.594C243.695 162.82 242.086 163.195 240.074 163.748C238.769 164.107 234.277 165.431 233.39 164.289C233.026 161.475 241.366 158.678 241.667 154.247C242.056 148.515 240.536 144.28 239.376 138.831C238.891 136.575 238.536 134.294 238.317 131.998C238.025 129.078 238.014 125.99 238.249 123.052C238.301 122.383 236.743 121.659 235.847 121.982C234.953 122.608 234.973 124.133 234.642 125.354C234.266 125.348 234.303 125.262 233.926 124.945C233.826 125.399 234.15 125.945 234.352 126.412C233.689 126.808 232.978 127.367 232.35 127.834C231.76 125.719 231.581 123.21 230.428 121.312C229.957 120.537 228.045 120.603 227.95 120.377C226.779 117.61 228.16 114.519 223.687 115.273C223.777 114.526 223.935 113.687 224.059 112.936C231.007 112.781 240.846 108.934 246.552 105.038C248.959 107.01 256.275 108.782 259.402 108.898C260.932 108.942 262.461 108.777 263.946 108.408C268.053 107.389 270.582 105.255 272.724 101.685Z" fill="var(--fill-0, #FAF7EF)"/>
<path id="Vector_3" d="M150.971 56.6106C151.678 57.2803 153.374 61.0293 154.064 62.1236C159.253 70.3522 167.596 77.2452 177.749 77.6439L178.392 78.9303C180.707 79.7468 184.367 80.6553 184.633 83.5939C184.989 87.2953 180.526 88.201 177.707 88.5065C174.773 88.8246 174.806 92.143 173.602 94.3878C167.94 104.954 155.895 106.973 145.048 107.964C133.443 108.887 123.826 106.574 119.988 94.7148C119.235 92.3865 118.767 90.091 116.161 89.2349C113.09 88.2259 110.455 85.6661 112.13 82.2616C113.052 80.4674 116.425 80.0799 118.329 79.6101C118.614 79.3126 118.985 78.851 119.264 78.5266C133.155 77.5503 144.116 68.2234 150.971 56.6106Z" fill="var(--fill-0, #FAF7EF)"/>
<path id="Vector_4" d="M153.019 97.1956C153.709 97.2196 154.834 97.4901 154.911 98.3229C155.144 100.842 151.513 102.405 149.547 102.827C147.145 103.343 145.236 103.062 143.189 101.747C142.46 101.038 141.222 99.5968 141.642 98.6253C142.772 96.0081 146.022 99.7794 146.922 99.8114C149.285 99.8954 151.367 98.3918 153.019 97.1956Z" fill="var(--fill-0, #3D4143)"/>
<path id="Vector_5" d="M135.739 81.5461C136.378 81.5304 137.024 81.4683 137.516 81.9597C138.534 82.976 138.566 90.6484 138.577 92.5134C138.583 93.5726 138.203 94.0308 137.483 94.7436C134.609 94.9614 135.143 90.4285 135.041 88.3639C134.947 86.4455 134.335 82.8544 135.739 81.5461Z" fill="var(--fill-0, #3D4143)"/>
<path id="Vector_6" d="M160.115 81.3707C160.298 81.3706 160.482 81.3756 160.663 81.4052C161.173 81.4883 161.696 81.6584 161.984 82.1174C162.451 82.8643 161.327 90.3144 161.082 91.6712C160.885 92.7586 160.7 93.3921 159.769 94.0438C156.624 93.9492 157.846 90.5713 158.037 88.2451C158.219 86.0246 158.327 82.7941 160.115 81.3707Z" fill="var(--fill-0, #3D4143)"/>
<path id="Vector_7" d="M68.5905 87.0001C70.807 86.7324 71.6154 86.8351 73.2642 88.3594L76.8575 88.1382C79.6239 90.115 82.0171 88.9227 84.9896 92.4009C89.6167 97.8152 90.3303 102.243 90.1543 108.9C88.9547 108.874 83.1337 108.5 82.4919 109.376C79.6724 113.223 87.7693 112.13 89.6617 112.29C90.5552 113.209 91.3112 114.191 91.4611 115.474C92.2394 122.141 87.8176 126.481 81.7725 127.64C73.8338 129.163 71.804 125.465 66.3081 121.817C66.6094 118.727 66.4102 116.994 65.9667 113.94C66.188 113.502 66.4026 113.061 66.6108 112.617C68.4316 108.705 67.715 106.729 68.302 102.884C68.9372 98.7227 70.4216 98.5352 68.6566 93.7171C68.2013 92.9954 67.1207 91.7114 66.1441 92.2922C64.1103 93.344 66.4603 96.7478 66.0925 98.0504C65.1479 101.395 64.6574 103.347 64.7874 106.807C64.85 108.472 63.0537 112.289 62.5152 114.057C63.2248 116.877 63.2007 118.399 63.0867 121.289C61.9082 122.169 59.2286 124.819 58.0259 124.86C55.7566 124.936 55.7265 123.994 53.6787 125.995C52.6136 127.035 49.5924 126.268 47.9264 126.183C46.8689 126.654 45.173 128.283 43.9959 127.979C42.4603 124.107 38.8898 126.721 37.8527 122.73C36.8033 118.69 37.4464 112.554 39.992 109.095C40.8859 107.881 43.1701 106.874 43.7705 105.352C44.3232 103.493 42.7186 100.321 44.3022 98.6835C46.9823 95.9115 48.8217 97.2259 50.4321 92.9655C52.4915 87.5172 61.4002 88.2316 66.1591 87.7307C66.7774 87.6656 67.9352 87.2254 68.5905 87.0001Z" fill="var(--fill-0, #FAF7EF)"/>
<path id="Vector_8" d="M75.9839 117.714C77.8285 117.805 78.2767 119.27 79.5547 120.348C81.1056 121.713 83.9546 121.428 85.39 122.934C86.1167 123.697 84.9611 124.734 84.3954 125.128C80.8423 125.765 71.9068 120.942 75.9839 117.714Z" fill="var(--fill-0, #3D4143)"/>
<path id="Vector_9" d="M75.4697 98.2425C78.3657 98.9021 77.6451 103.552 77.9785 105.91C78.1784 107.324 77.7966 108.81 76.7745 109.85C76.5498 109.859 76.3245 109.859 76.0998 109.848C75.6535 109.826 75.0874 109.623 74.9505 109.322C74.4079 108.133 74.1399 100.062 74.2684 99.2836C74.5284 98.7344 74.9511 98.5509 75.4697 98.2425Z" fill="var(--fill-0, #3D4143)"/>
<path id="Vector_10" d="M84.1053 100.682C86.8836 100.724 86.6296 104.18 86.9669 106.366C86.5938 107.129 86.4474 107.307 85.9073 107.972C85.3014 107.982 84.5704 108.014 84.1756 107.459C83.2051 106.094 83.1028 104.256 83.1263 102.639C83.1414 101.595 83.3858 101.355 84.1053 100.682Z" fill="var(--fill-0, #3D4143)"/>
<path id="Vector_11" d="M234.658 55.3691C236.738 55.0527 242.904 55.2339 245.111 55.5146C238.736 64.4401 242.582 72.5644 243.907 82.0094C244.438 85.7899 243.926 92.7676 243.886 96.9563C242.549 97.4474 241.956 97.7307 240.703 98.4099C241.377 95.3782 241.484 92.2033 240.923 89.1479C240.453 86.601 238.529 78.8279 235.061 79.4977C233.247 80.8314 235.653 83.7345 236.334 85.3049C237.74 88.5386 238.672 94.5887 237.23 97.8827C234.606 103.876 227.242 107.938 220.859 105.417C218.043 104.056 217.599 102.53 215.525 100.487C213.552 98.4588 211.7 101.475 210.152 101.925C201.044 104.577 200.708 97.5872 203.541 91.2701C205.475 86.9582 205.526 85.0393 208.769 81.622C208.103 89.0703 223.297 87.7879 218.335 79.1733C219.862 79.4775 223.01 80.2408 223.598 78.1932C222.972 75.3101 216.312 75.6916 214.06 76.0003C214.86 71.4546 216.735 65.6248 219.589 61.9128C223.156 57.2752 229.138 56.0196 234.658 55.3691Z" fill="var(--fill-0, #FAF7EF)"/>
<path id="Vector_12" d="M231.527 63.6333C234.671 63.1489 233.763 67.5098 233.6 69.4504C233.45 71.2192 233.666 73.8946 232.441 75.105C229.125 75.4882 230.048 71.9832 230.071 69.7774C230.083 68.5712 230.295 67.1938 230.413 65.9835C230.523 64.8446 230.591 64.341 231.527 63.6333Z" fill="var(--fill-0, #3D4143)"/>
<path id="Vector_13" d="M220.977 65.026C222.488 65.0041 222.612 65.2704 223.398 66.4634C222.846 68.5411 222.848 71.9635 221.399 73.0562C217.745 73.4486 219.359 68.8232 219.872 66.8097C220.079 65.9997 220.356 65.5723 220.977 65.026Z" fill="var(--fill-0, #3D4143)"/>
<path id="Vector_14" d="M252.75 54.9673C255.545 54.9322 257.568 56.5796 258.849 58.9795C260.528 62.1217 261.418 65.6607 262.78 68.955C265.222 74.8601 268.314 80.5454 270.038 86.7223C271.156 91.1859 272.101 96.2172 269.593 100.415C267.871 103.297 265.796 104.409 262.697 105.215C260.479 105.753 259.952 105.714 257.884 105.392C245.261 103.426 247.004 100.524 247.478 89.3724C247.551 87.6608 247.487 84.8707 247.358 82.9543C246.838 75.2697 242.873 67.5035 246.353 59.9616C247.804 56.7858 249.725 56.1482 252.75 54.9673Z" fill="var(--fill-0, #FAF7EF)"/>
<path id="Vector_15" d="M148.573 3.46212C148.92 3.4258 149.269 3.40422 149.618 3.39738C154.476 3.29714 155.364 4.74996 158.556 7.78974C164.066 7.83589 169.024 8.73619 174.089 10.952C176.081 11.8229 177.5 12.8193 179.639 13.5362C180.189 12.685 180.376 12.2797 180.787 11.3436C184.231 9.68753 186.829 9.94763 190.163 11.5653C188.132 13.4947 184.257 15.0617 182.808 16.848C181.836 18.0454 181.523 29.3703 179.975 32.0853C179.436 33.0312 177.639 31.6087 176.594 31.9726C175.959 32.1935 175.733 32.6925 175.46 33.2512C175.839 34.5843 176.049 34.6243 177.265 35.3539C175.592 36.6506 173.903 37.6369 172.24 39.0642C170.134 38.6615 169.138 38.9181 167.26 39.8231C163.424 37.2631 160.862 36.1608 156.248 35.5428C156.104 35.1915 155.949 34.8453 155.781 34.5048C154.675 32.3091 152.494 31.272 150.28 30.5665C149.896 28.7652 149.42 27.4356 149.079 25.4562C150.14 26.091 152.822 28.004 153.842 26.596C154.149 26.1667 154.255 25.6261 154.135 25.1125C153.823 23.8276 150.528 22.4839 149.189 21.7287C149.36 20.2156 151.043 14.0928 151.995 13.1868C152.287 12.9081 152.674 12.5246 152.765 12.124C153.178 10.3003 149.547 5.07703 148.573 3.46212Z" fill="var(--fill-0, #FAF7EF)"/>
<path id="Vector_16" d="M161.163 26.9712C164.986 27.1928 169.797 28.9181 164.69 32.5515C160.34 34.5034 157.495 28.5745 161.163 26.9712Z" fill="var(--fill-0, #3D4143)"/>
<path id="Vector_17" d="M175.078 21.3425C175.236 21.3468 175.395 21.3557 175.553 21.3691C178.929 21.6702 175.937 26.4783 174.375 27.5307C170.342 27.2497 173.588 22.3092 175.078 21.3425Z" fill="var(--fill-0, #3D4143)"/>
<path id="Vector_18" d="M157.709 19.4685C161.152 19.2081 160.311 23.7397 158.72 25.1747C155.322 25.5203 156.107 21.1089 157.709 19.4685Z" fill="var(--fill-0, #3D4143)"/>
<path id="Vector_19" d="M139.713 118.207C140.373 118.803 141.064 119.887 141.743 120.571C146.585 125.458 151.376 123.281 155.772 119.068C160.494 123.221 161.347 125.656 159.83 132.03C158.167 139.021 158.604 145.96 157.812 152.938C157.398 155.092 156.465 156.108 155.143 157.767C148.374 156.551 145.882 156.256 139.163 156.872C138.138 150.196 138.481 145.484 138.401 138.834C138.378 136.857 137.764 131.506 137.502 129.495C139.478 125.458 138.711 122.633 139.713 118.207Z" fill="var(--fill-0, #FAF7EF)"/>
<path id="Vector_20" d="M150.153 130.638C150.279 130.634 150.406 130.633 150.532 130.634C152.013 130.653 154.361 132.086 155.382 133.129C157.868 135.602 157.82 139.8 155.332 142.238C154.569 142.986 152.78 143.86 151.914 142.877C151.679 141.882 152.475 138.646 152.981 137.744C153.774 136.332 155.866 135.356 152.511 133.973C151.891 134.04 150.99 134.373 150.372 134.575C150.303 134.662 150.234 134.749 150.167 134.836C148.711 136.713 149.824 137.122 151.352 138.285C151.071 139.93 150.813 141.435 150.588 143.094C149.856 143.345 149.054 143.491 148.292 143.65C142.705 140.931 143.804 132.185 150.153 130.638Z" fill="var(--fill-0, #3D4143)"/>
<path id="Vector_21" d="M145.447 125.726C147.83 125.754 148.773 128.774 146.897 130.558C144.649 130.784 144.082 129.168 144.326 127.235C144.433 126.383 144.791 126.204 145.447 125.726Z" fill="var(--fill-0, #3D4143)"/>
<path id="Vector_22" d="M150.175 126.422C151.132 126.167 152.116 126.73 152.379 127.685C152.643 128.64 152.089 129.629 151.136 129.901C150.172 130.177 149.168 129.614 148.901 128.647C148.633 127.68 149.206 126.681 150.175 126.422Z" fill="var(--fill-0, #3D4143)"/>
<path id="Vector_23" d="M134.267 132.732C135.122 133.769 135.118 149.179 135.224 151.551C135.305 153.534 135.499 155.51 135.805 157.47C127.945 157.492 120.514 154.06 113.762 159.856C113.03 160.651 112.489 161.146 111.692 161.854C113.167 159.181 116.272 155.891 118.346 153.498C121.568 150.094 123.888 146.023 126.608 142.309C129.264 138.683 129.812 137.765 131.38 133.597C132.712 133.483 133.145 133.449 134.267 132.732Z" fill="var(--fill-0, #FAF7EF)"/>
<path id="Vector_24" d="M204.089 143.208C204.437 143.303 204.455 143.349 204.731 143.57C205.423 144.969 205.731 146.261 206.22 147.707C208.599 154.745 208.65 162.804 207.679 170.161C201.962 169.57 197.499 165.764 195.35 160.441C193.927 156.918 194.598 152.905 196.143 149.512C196.877 148.076 197.242 147.723 198.51 146.713C201.381 151.533 202.507 156.355 202.736 161.931C202.804 163.572 202.783 166.394 203.234 167.846C204.239 169.16 205.655 168.575 206.025 167.097C206.418 165.531 206.218 164.049 206.175 162.472C206.004 156.238 204.731 151.096 201.788 145.606C202.105 145.476 202.42 145.339 202.731 145.194C203.672 144.751 203.743 144.196 204.089 143.208Z" fill="var(--fill-0, #FAF7EF)"/>
<path id="Vector_25" d="M118.369 161.088C123.726 160.564 132.503 165.941 137.272 168.514C139.687 169.817 142.131 171.064 144.604 172.254C144.206 173.739 143.929 174.484 143.334 175.907C142.709 175.672 142.069 175.449 141.441 175.221C139.721 174.726 137.827 174.117 136.112 173.511C129.551 171.158 122.264 170.128 116.08 166.853C112.403 164.905 115.411 161.73 118.369 161.088Z" fill="var(--fill-0, #FAF7EF)"/>
<path id="Vector_26" d="M228.402 127.295C229.099 127.437 229.661 130.769 230.583 131.4C232.849 132.955 234 130.567 234.818 130.512C234.978 130.904 234.891 131.066 234.795 131.504C234.477 131.746 233.385 132.191 232.978 132.433C231.256 133.4 229.487 134.683 227.687 135.484C223.746 137.238 219.54 138.257 215.566 139.95C214.808 140.273 213.613 140.676 212.815 140.705L212.686 140.709C211.442 140.755 210.035 140.417 208.804 140.171C205.983 139.723 203.251 140.13 200.459 140.508C201.435 138.19 202.745 136.915 204.899 135.728C207.378 134.364 210.601 135.003 212.436 134.478C216.82 133.222 224.621 129.781 228.402 127.295Z" fill="var(--fill-0, #FAF7EF)"/>
<path id="Vector_27" d="M171.228 157.24C172.026 157.175 173.182 157.332 173.908 157.697C174.633 158.061 175.061 158.585 175.327 159.354C175.59 160.119 175.313 161.163 174.915 161.825C172.115 166.469 160.836 170.896 155.714 172.412L153.377 173.101C152.857 172.522 152.061 171.845 151.469 171.31C156.308 167.312 161.536 162.972 166.938 159.769C168.601 158.782 169.245 157.794 171.228 157.24Z" fill="var(--fill-0, #FAF7EF)"/>
<path id="Vector_28" d="M144.187 159.916C146.435 159.963 152.795 160.412 154.742 161.236C154.686 161.485 154.681 161.499 154.686 161.753C155.84 161.673 156.995 161.628 158.152 161.616C155.021 164.541 150.943 167.118 147.891 169.914C146.692 169.422 145.504 168.902 144.328 168.356C140.698 166.599 137.15 164.646 133.604 162.723C132.031 161.871 130.334 161.142 128.828 160.257C130.551 160.415 134.485 161.136 136.004 160.921C138.944 160.505 141.091 160.041 144.187 159.916Z" fill="var(--fill-0, #FAF7EF)"/>
<path id="Vector_29" d="M291.133 144.079L291.254 144.206C291.033 146.497 288.73 151.372 288.201 153.786C287.982 154.791 286.135 160.714 285.596 160.971C283.623 161.913 277.442 161.802 275.308 161.519C275.039 161.38 275.153 161.478 274.993 161.175C275.595 160.242 278.334 159.606 279.423 158.744C281.684 156.954 282.524 149.309 282.801 146.43C285.987 145.925 288.205 145.385 291.133 144.079Z" fill="var(--fill-0, #FAF7EF)"/>
<path id="Vector_30" d="M201.65 77.1486C202.395 77.4242 202.506 77.8987 202.95 78.6727C202.193 81.0247 200.548 83.0959 202.515 85.099C201.089 88.3567 195.311 91.4228 192.706 94.09C190.778 95.6533 189.128 98.0003 187.274 99.5645C181.967 104.043 177.492 110.554 172.386 114.93L171.047 115.945C170.963 114.738 170.942 114.022 170.629 112.843C179.708 105.52 187.627 96.8272 195.281 88.0213C197.81 85.1112 199.019 78.7654 201.65 77.1486Z" fill="var(--fill-0, #FAF7EF)"/>
<path id="Vector_31" d="M215.591 57.9785C216.41 57.9602 217.588 58.0735 218.431 58.1295C214.376 62.0229 210.935 71.5173 210.518 76.9628C209.487 77.4087 208.893 77.7283 207.926 78.2769L206.13 79.5092C207.552 73.4786 208.238 59.4166 215.591 57.9785Z" fill="var(--fill-0, #FAF7EF)"/>
<path id="Vector_32" d="M208.225 143.481L211.215 143.936C211.531 146.104 212.796 146.284 214.613 147.11C214.544 147.173 214.472 147.235 214.405 147.299C212.039 149.545 214.152 159.521 214.883 162.601C215.206 163.964 216.012 165.807 215.977 167.173L215.617 167.467C213.947 168.539 213.034 168.897 211.192 169.518C212.281 161.336 211.582 151.052 208.225 143.481Z" fill="var(--fill-0, #FAF7EF)"/>
<path id="Vector_33" d="M170.342 42.1222C173.108 42.3546 175.238 43.6955 175.426 46.6241C175.555 48.6421 174.65 49.9306 175.075 51.9542C174.379 52.1047 173.621 52.2327 172.916 52.3661C168.274 52.404 166.403 47.5578 167.695 43.5245C168.64 43.0169 169.275 42.4224 170.342 42.1222Z" fill="var(--fill-0, #FAF7EF)"/>
<path id="Vector_34" d="M145.63 33.7891C151.853 32.9507 156.337 37.007 149.626 41.3192C146.328 42.6152 143.776 40.4372 142.522 37.4668C143.39 35.6734 143.771 34.6223 145.63 33.7891Z" fill="var(--fill-0, #FAF7EF)"/>
<path id="Vector_35" d="M27.4887 135.282C28.0778 135.817 28.2065 138.821 28.526 139.831C28.8665 140.883 29.4793 142.126 29.8005 143.157C31.0385 147.131 32.3895 151.482 35.2365 154.608C35.4779 154.873 37.3709 157.477 37.298 157.66C36.9265 158.591 36.6639 159.413 36.5174 160.458C36.4666 160.865 36.5418 160.85 36.3071 161.049C34.1887 160.081 32.6495 155.608 31.7368 153.681C31.1147 152.367 29.9588 151.176 29.2615 149.837C27.6258 146.697 27.4831 143.617 27.6002 140.157C27.6148 138.637 27.4725 136.902 27.4887 135.282Z" fill="var(--fill-0, #FAF7EF)"/>
<path id="Vector_36" d="M111.444 155.919L111.619 156.249C108.234 159.519 109.611 160.85 107.906 164.635C107.771 164.934 107.21 165.283 106.829 165.264C105.125 165.183 103.401 164.879 101.69 164.834C99.772 164.979 97.3821 165.575 95.3835 165.856L95.3199 165.562C96.4916 162.897 103.365 161.564 105.934 160.077C108.281 158.718 109.389 157.743 111.444 155.919Z" fill="var(--fill-0, #FAF7EF)"/>
<path id="Vector_37" d="M148.593 111.047L149.106 110.993C150.225 111.925 148.64 115.921 150.383 117.141C151.604 117.55 151.913 116.72 153.072 116.356L153.131 116.692C152.673 117.789 149.274 119.522 148.196 120.117C146.647 120.58 143.162 117.431 143.007 115.998L143.14 115.863C146.42 118.165 146.202 112.859 146.209 111.238L148.593 111.047Z" fill="var(--fill-0, #FAF7EF)"/>
<path id="Vector_38" d="M120.755 46.8879L121.01 47.1021C121.032 47.5036 120.279 48.3416 119.977 48.7593C114.758 55.9937 113.574 65.2833 113.459 73.971C113.444 75.0442 114.15 75.9388 114.1 76.8824L113.619 77.3031C113.008 77.4477 112.945 77.5852 112.526 77.3275C112.386 75.4596 112.582 73.3907 112.492 71.5066C112.126 63.9172 114.424 51.9418 120.755 46.8879Z" fill="var(--fill-0, #FAF7EF)"/>
<path id="Vector_39" d="M125.17 36.8751C127.585 36.8102 128.357 37.593 129.74 39.5037C127.823 40.721 126.299 41.9748 124.62 43.4879L123.309 44.7754C122.345 43.6446 121.217 42.5879 121.568 40.9684C121.915 39.3675 123.866 37.7114 125.17 36.8751Z" fill="var(--fill-0, #FAF7EF)"/>
<path id="Vector_40" d="M216.921 149.292C220.737 152.238 220.652 159.185 219.179 163.325L218.878 163.859L218.685 163.794C217.49 160.034 216.624 153.267 216.921 149.292Z" fill="var(--fill-0, #FAF7EF)"/>
<path id="Vector_41" d="M153.036 176.832C154.727 177.787 155.919 178.231 157.757 178.78C158.896 179.121 164.463 180.085 164.673 181.057L164.421 181.33C162.146 181.643 160.136 181.487 157.906 180.727C156.489 180.245 153.599 179.22 152.785 177.831C152.613 177.535 152.875 177.178 153.036 176.832Z" fill="var(--fill-0, #FAF7EF)"/>
<path id="Vector_42" d="M123.886 139.653C125.29 137.152 126.551 134.765 127.608 132.092C127.806 131.592 128.513 129.827 128.829 129.495C129.974 130.895 125.097 138.315 124.288 139.801L123.886 139.653Z" fill="var(--fill-0, #FAF7EF)"/>
<path id="Vector_43" d="M123.885 139.653L124.288 139.801C122.917 142.351 120.609 145.257 118.89 147.618C118.379 148.32 117.231 149.625 116.824 150.258L116.563 150.122C118.425 148.641 122.267 141.637 123.885 139.653Z" fill="var(--fill-0, #878D8F)"/>
<path id="Vector_44" d="M140.376 178.378C140.83 178.511 140.954 178.578 141.37 178.805C141.427 179.926 137.241 181.102 136.312 181.231C135.815 181.276 135.298 181.429 134.974 181.201C136.743 179.944 139.156 180.768 140.376 178.378Z" fill="var(--fill-0, #FAF7EF)"/>
<path id="Vector_45" d="M116.564 150.122L116.824 150.258C116.536 150.861 114.074 153.709 113.419 153.995C114.015 153.012 115.742 150.98 116.564 150.122Z" fill="var(--fill-0, #494A4C)"/>
<path id="Vector_46" d="M111.444 155.919C111.846 155.441 112.198 154.893 112.758 154.7C112.705 155.264 112.038 155.84 111.619 156.249L111.444 155.919Z" fill="var(--fill-0, #878D8F)"/>
<path id="Vector_47" d="M12.2194 149.39C13.1955 149.315 13.9465 149.371 14.535 150.226C16.8245 153.55 17.9561 158.248 19.5995 161.91C20.9366 161.232 22.8602 159.716 24.5003 160.175C24.8549 160.274 25.1529 160.516 25.3247 160.842C26.1009 162.288 24.7071 165.793 24.1862 167.404C29.7658 167.596 35.4634 167.648 40.9959 168.059C42.248 168.151 42.4494 171.082 40.7726 171.109C38.518 171.146 20.4988 170.991 19.7911 170.502C20.0246 169.805 20.2677 170.142 20.3461 169.241C20.4418 168.142 20.7423 167.024 21.0804 165.971L21.2676 165.272C20.9156 164.877 19.1264 165.543 18.2465 165.121C16.281 164.18 15.099 159.586 14.1353 157.473C14.0499 161.34 14.2421 165.745 9.13272 164.818C9.52426 166.413 10.3473 169 9.77742 170.508C8.68115 171.676 1.72997 173.397 0.696342 172.353C-2.23514 169.393 4.93906 168.786 6.50655 168.457C5.6221 164.166 4.0507 159.571 10.4951 161.562C10.7348 158.301 10.7301 154.982 11.0247 151.732C11.1126 150.762 11.5186 150.053 12.2194 149.39Z" fill="var(--fill-0, #3D4143)"/>
<path id="Vector_48" d="M56.1432 144.739C61.0597 144.271 65.0224 147.411 64.603 152.58C64.5225 153.571 64.1872 154.457 63.871 155.394C63.903 155.416 63.935 155.439 63.9668 155.462L64.1239 155.579C66.6972 157.469 66.5071 160.304 65.6613 163.068C68.7749 163.695 73.4348 164.805 72.3184 169.052C71.9355 170.509 69.6176 171.202 68.3897 171.527C64.4738 172.562 60.6164 171.358 56.7008 171.149C54.6144 171.038 52.3806 171.245 50.2803 171.179C48.1078 171.196 46.4701 171.266 44.9561 169.443C43.7068 167.937 44.2338 165.806 46.503 166.524C46.9383 166.662 47.9095 167.488 48.3161 167.817L50.6493 167.829C52.7974 167.805 55.4334 167.761 57.5492 167.871C61.8954 168.097 64.957 169.384 69.1909 167.678C67.6465 166.93 65.9841 166.455 64.2776 166.274C62.6813 166.105 56.9852 166.692 56.2834 165.765C53.5043 162.096 61.0632 162.94 61.8877 162.953C64.6201 157.882 61.955 159.687 60.4663 156.689C59.4298 154.602 64.0522 150.386 58.7265 148.242C55.6287 146.995 53.2067 150.961 51.1709 150.293C50.3582 149.719 50.2069 148.589 50.7773 147.823C52.0638 146.096 54.1382 145.181 56.1432 144.739Z" fill="var(--fill-0, #3D4143)"/>
<path id="Vector_49" d="M77.3972 59.7111C79.0176 59.8737 80.226 60.3705 81.1624 61.8274C83.1046 64.849 81.9159 68.9741 80.8666 72.1094C80.4758 73.3153 79.5876 75.8694 78.3024 76.3547C76.7396 76.945 73.0414 75.0574 71.5728 74.4325C68.8467 73.1735 62.1415 69.8075 65.9321 65.2872C67.2799 63.68 70.5192 63.755 72.5477 63.8632C73.4093 61.336 74.7523 60.0819 77.3972 59.7111Z" fill="var(--fill-0, #3D4143)"/>
<path id="Vector_50" d="M257.517 157.893C257.83 157.901 258.186 157.894 258.491 157.966C260.186 158.367 264.113 166.999 265.428 168.895C268.333 167.778 273.246 165.565 271.733 171.402C273.224 171.445 275.471 171.375 276.323 172.882C276.493 175.461 271.87 174.946 270.314 174.8C269.483 174.722 268.488 174.652 267.822 174.127C266.799 173.324 267.564 172.661 267.463 171.774C262.98 173.009 262.209 170.4 260.306 166.851L260.124 166.673C259.781 167.053 259.892 168.993 259.038 170.24C257.612 172.322 256.313 170.681 254.289 171.275C253.956 171.497 254.282 172.186 253.953 172.699C252.367 175.181 251.201 175.192 248.448 175.061C246.726 174.979 244.208 175.117 243.399 173.129C243.674 170.948 248.636 171.565 250.245 171.656C249.493 170.821 246.919 168.019 248.933 167.024C250.742 166.131 254.462 167.592 256.419 168.126C256.847 164.728 256.157 162.731 256.365 159.471C256.414 158.712 256.943 158.294 257.517 157.893Z" fill="var(--fill-0, #3D4143)"/>
<path id="Vector_51" d="M216.635 23.6819C218.995 23.5434 219.821 24.2334 221.331 25.9829C224.887 25.4872 228.441 26.6197 227.776 31.0441C227.402 33.5363 225.105 35.4896 223.099 36.8439C221.179 37.9823 216.793 41.4152 215.774 37.7668C214.939 34.777 214.208 31.2852 213.913 28.1846C213.716 26.1241 214.777 24.466 216.635 23.6819Z" fill="var(--fill-0, #3D4143)"/>
<path id="Vector_52" d="M40.2961 174.277C43.2765 174.134 46.3507 179.151 48.0493 181.337C50.8994 177.65 52.8657 177.884 55.2224 181.817C62.0204 175.26 62.4514 181.139 58.4576 186.623C57.8808 186.924 57.7826 186.987 57.1102 186.985C56.5578 186.693 56.5327 186.593 56.2331 186.035C55.7202 185.078 55.0721 185.07 54.0997 184.929C53.1353 184.79 52.1088 183.083 51.5645 182.309C47.8656 187.385 45.1855 183.346 42.682 179.907C42.7961 180.883 43.2793 184.181 40.8989 183.579C38.9834 183.096 38.6226 177.617 38.8879 176.034C39.0282 175.195 39.5563 174.733 40.2961 174.277Z" fill="var(--fill-0, #3D4143)"/>
<path id="Vector_53" d="M96.8076 114.756C98.7205 114.805 99.1674 115.908 99.4204 117.706C99.9871 121.728 99.1738 127.479 95.1977 129.506C94.3846 129.92 93.2037 130.082 92.2864 130.211C91.1286 130.182 90.0964 129.835 90.15 128.434C90.2162 126.707 93.5256 126.912 94.5457 125.728C95.9439 124.105 95.2901 121.766 95.6821 119.813C95.7421 119.21 96.2566 119.433 96.1847 118.719C95.982 116.706 94.9741 116.391 96.8076 114.756Z" fill="var(--fill-0, #3D4143)"/>
<path id="Vector_54" d="M331.23 173.607C332.119 173.625 333.862 173.351 334.46 173.804L334.114 174.256C333.279 174.572 331.868 174.673 331.131 174.091L331.23 173.607Z" fill="var(--fill-0, #3D4143)"/>
<path id="Vector_55" d="M224.605 173.2C226.301 172.917 227.071 172.882 228.75 173.136C227.617 173.275 225.65 173.421 224.629 173.612L224.605 173.2Z" fill="var(--fill-0, #494A4C)"/>
</g>
</svg>
