<svg preserveAspectRatio="none" width="100%" height="100%" overflow="visible" style="display: block;" viewBox="0 0 302.094 89.094" fill="none" xmlns="http://www.w3.org/2000/svg">
<g id="Illustration">
<path id="Vector" d="M86.8198 0.0142058C92.9806 -0.388241 103.024 7.88856 109.619 8.54089C111.976 8.77404 114.319 7.83214 116.825 7.67533C122.823 7.29986 130.366 9.14711 134.98 13.1106C138.747 16.3463 139.977 20.8579 141 25.4931C141.391 27.2675 141.85 29.3549 141.964 31.1658C144.185 30.4642 147.333 29.1532 149.59 28.289C150.56 24.2595 153.434 22 157.607 23.4899C159.516 24.1899 161.077 25.6083 161.956 27.4429C162.656 28.9134 162.743 30.6017 162.199 32.1365C161.515 34.0166 160.236 35.017 158.497 35.827C157.931 42.2474 153.375 45.1851 148.958 48.9157C142.751 54.1588 137.863 56.026 129.789 56.0626C128.018 65.0389 120.544 70.1675 111.531 69.0918C114.172 71.105 117.136 72.8833 119.908 74.7233C121.905 75.987 128.236 78.4151 128.25 81.1961C128.326 96.9093 102.211 79.2992 97.2821 76.0865C94.4258 81.8824 92.3993 84.6426 86.1525 87.2173C82.9644 88.4681 79.0993 89.8954 75.7264 88.5529C73.5966 87.7395 72.246 85.3773 73.651 83.301C76.3269 79.3466 81.3596 80.695 83.3908 75.92C75.765 77.6483 72.2922 76.8862 64.7267 76.2269C61.4038 75.9372 57.7305 76.029 54.2932 75.5953C55.8047 76.9988 57.7506 78.6215 58.6562 80.4554C59.9895 83.1552 59.3009 85.7956 56.5767 87.1529C51.2661 88.366 42.2139 78.8835 38.8986 75.2921C32.5362 77.9927 21.088 81.1152 16.8823 73.4481C13.4133 75.5632 3.27716 82.1487 0.509336 76.6867C-0.0582712 75.5929 -0.15592 74.315 0.23876 73.1475C1.73665 68.7356 8.1735 67.6281 11.8487 65.6982C17.5847 62.6863 17.1897 62.2859 19.059 56.8781C14.2263 54.4624 11.1871 51.5477 8.26348 47.0311C6.49028 44.2916 6.17463 42.6668 5.15797 39.7933C2.44697 32.1311 2.62953 25.8631 4.42527 17.9922C5.00986 15.5566 5.6774 12.2732 7.77735 10.6838C8.72331 9.96784 10.3845 10.8219 10.6036 11.923C10.9291 13.5586 10.4934 15.3395 10.569 17.0088C10.8409 23.0149 11.6441 29.3836 15.0408 34.5087C18.7591 40.4322 22.0629 44.1856 29.1542 45.7779C34.5875 46.9978 41.0761 47.0006 46.6274 47.0424C50.9072 47.0748 56.6974 47.7596 60.7186 47.5313C69.8026 47.0156 82.4172 43.4091 90.1486 38.7034C90.1346 38.0325 90.2285 37.1925 90.287 36.5097L90.2318 36.52C85.3929 37.4075 77.8667 38.6087 73.3972 35.7677C69.9119 33.5522 68.9762 27.0469 71.6332 23.8471C75.0607 19.7192 80.0699 17.5467 85.3173 16.6458C82.0909 12.939 80.5759 7.48927 82.9642 2.83185C83.7722 1.25612 85.1543 0.473057 86.8198 0.0142058Z" fill="var(--fill-0, #3D4143)"/>
<path id="Vector_2" d="M7.28771 21.3529C7.4848 21.6623 8.27106 26.9912 8.56645 28.0389C11.0887 36.9818 17.5019 46.2887 26.9374 48.7367C33.2536 50.3756 39.7367 50.4241 46.2526 50.4695C51.0504 50.5029 55.9292 51.0877 60.7352 50.9617C70.4005 50.4784 82.7195 46.8439 91.1183 42.1428C93.2563 47.2657 99.0214 56.8376 102.546 61.2295C102.135 61.724 101.725 62.4353 101.983 63.1065C104.638 70.0419 112.4 73.6279 118.121 77.6571C119.737 78.7954 126.224 80.911 124.646 83.1929C124.252 83.7569 123.652 84.1429 122.976 84.2675C117.641 85.2559 100.519 74.2023 95.7777 70.8049C94.0503 69.4425 92.1151 67.222 90.451 69.8246C89.0465 70.2388 87.2947 71.1187 85.8659 71.6271C83.6707 72.4085 81.4764 72.8905 79.1826 73.2587C74.5067 74.009 70.152 73.1614 65.5168 72.8431C58.7981 72.3816 52.1515 72.5299 45.5873 70.7187C47.6521 68.3255 50.1122 64.1865 50.1822 61.0349C50.2588 57.5855 47.3048 58.0008 46.6801 61.3725C46.3577 63.1125 44.6884 66.6208 43.4972 67.9012C39.4586 72.2422 32.8227 74.4152 27.0282 74.825C24.3925 75.0165 22.2019 74.3278 20.2787 72.5801C19.8614 71.4293 19.698 68.6934 17.6464 69.2881C15.2576 69.9806 5.60873 76.7088 3.63435 75.2229C2.57229 72.4119 9.92016 70.3156 11.8888 69.4703C13.261 68.8965 14.5858 68.2151 15.8506 67.4324C19.5998 65.0671 21.0314 62.8333 22.0577 58.6288C22.3621 57.3812 23.8876 55.803 22.95 54.4036C22.3608 53.5242 21.6307 53.9296 20.8161 53.8272C17.0386 52.2589 13.3823 48.9694 11.3201 45.4121C7.07592 38.0911 5.54945 29.5593 7.28771 21.3529Z" fill="var(--fill-0, #FAF7EF)"/>
<path id="Vector_3" d="M117.824 11.0878C123.249 11.0137 130.891 12.778 134.275 17.3755C136.887 20.9248 138.166 27.785 138.643 32.1176C136.942 32.5493 133.743 32.3199 132.72 33.7841C131.586 39.7267 148.886 32.1807 150.737 31.5425C151.843 33.021 153.512 34.5385 155.076 35.5217C154.887 37.3233 154.02 39.6958 152.713 40.9914C144.68 48.9545 135.998 55.6056 124.261 51.2695C120.319 49.4581 118.757 48.5951 115.79 45.4851C116.184 45.1257 116.858 44.5464 117.018 44.0899C117.705 42.3505 116.101 41.2912 114.624 42.1549C113.143 43.0218 107.675 46.3949 110.943 48.0884C111.503 48.3786 112.578 47.8366 113.094 47.5849C114.569 49.2705 115.549 50.1437 117.313 51.5189C115.571 53.2563 114.185 54.011 112.114 55.2857C111.082 53.9434 109.326 52.561 108.067 50.8659C104.464 46.0153 101.796 40.0971 99.7661 34.4598C103.785 33.1599 109.55 30.1722 113.323 28.1422C116.234 26.576 119.174 23.089 119.802 19.8514C120.423 16.6467 119.607 13.8317 117.824 11.0878Z" fill="var(--fill-0, #FAF7EF)"/>
<path id="Vector_4" d="M124.602 19.0949C125.077 19.1351 126.054 19.3121 126.281 19.8168C127.731 23.0338 128.705 27.1298 128.939 30.645C128.976 31.1961 128.152 31.7786 127.742 32.0554C126.98 31.9948 126.081 31.8428 125.847 31.0064C125.126 28.3157 124.609 25.5926 123.836 22.9052C123.294 21.0201 122.806 20.2506 124.602 19.0949Z" fill="var(--fill-0, #3D4143)"/>
<path id="Vector_5" d="M133.43 22.8299C133.573 22.8306 133.716 22.8362 133.859 22.8466C135.654 22.9884 136.147 25.517 135.956 26.9605C135.82 27.9867 135.681 28.1312 134.912 28.7563C134.082 28.7699 133.434 28.7416 132.98 27.9416C132.051 26.3044 131.689 23.9847 133.43 22.8299Z" fill="var(--fill-0, #3D4143)"/>
<path id="Vector_6" d="M112.99 11.5596L113.564 11.58C113.988 11.8837 114.365 12.2489 114.682 12.6636C115.892 14.2205 116.882 16.6278 116.558 18.614C115.504 24.6321 108.811 26.5569 104.177 28.7017C98.7209 31.2265 94.754 32.5796 88.7753 33.3021C84.7366 33.7902 81.6678 34.364 77.5421 33.8453C74.2275 32.9471 73.0713 30.8979 73.7676 27.3213C74.1167 25.5282 75.7571 24.462 77.1353 23.4341C83.1643 18.9756 90.687 20.0644 97.649 18.4044C103.946 16.903 107.554 14.6347 112.99 11.5596Z" fill="var(--fill-0, #FAF7EF)"/>
<path id="Vector_7" d="M87.0216 3.43182C90.1691 3.24499 97.8084 7.67481 101.027 9.21646C102.588 9.97542 104.199 10.628 105.848 11.1697C104.162 12.3968 103.44 12.7506 101.543 13.4782C96.7585 15.4158 94.5715 15.6195 89.4994 16.1154C89.3432 15.9326 89.1915 15.7462 89.0442 15.5561C86.6172 12.464 83.8325 8.78132 85.8899 4.71697C86.1962 4.11176 86.4937 3.84366 87.0216 3.43182Z" fill="var(--fill-0, #FAF7EF)"/>
<path id="Vector_8" d="M120.313 53.1711L121.28 53.6876C121.831 54.6665 118.904 57.3874 119.525 58.4445C121.71 62.1646 124.196 56.2241 124.796 55.1165L126.418 55.558C125.624 58.9547 123.735 61.9829 120.858 63.9959C119.246 64.8621 117.496 65.4402 115.685 65.7041C113.405 66.0593 110.479 65.9789 110.109 63.0706C109.688 59.7632 114.995 57.8034 117.168 56.1093C118.541 55.0384 119.199 54.6379 120.313 53.1711Z" fill="var(--fill-0, #FAF7EF)"/>
<path id="Vector_9" d="M92.4525 72.8813C93.0119 72.8879 93.9742 73.7158 94.4763 74.0869C93.3091 76.3026 92.5795 77.9978 90.9513 79.9541C88.3909 83.0311 82.7067 85.3685 78.7535 85.6603C78.1493 85.6554 77.2172 85.5603 76.7233 85.1946L76.7006 84.9306C78.3978 83.4257 81.6044 82.6624 83.5566 81.2265C85.9797 79.4439 86.5248 77.7414 87.016 74.9504C88.9554 74.0691 90.3801 73.3712 92.4525 72.8813Z" fill="var(--fill-0, #FAF7EF)"/>
<path id="Vector_10" d="M42.7717 73.0126C44.4187 74.2188 46.7353 74.5572 48.725 74.9683C50.4731 76.6945 52.2559 78.3621 54.0337 80.0557C55.1052 81.0768 56.3797 82.4617 55.4142 83.9558C52.38 83.3436 48.0425 79.3631 45.7268 77.3302C45.1506 76.8244 42.2369 74.2247 42.2054 73.5532L42.7717 73.0126Z" fill="var(--fill-0, #FAF7EF)"/>
<path id="Vector_11" d="M156.198 25.4004C158.511 25.3087 160.612 29.0758 159.237 31.0441C158.979 31.0261 158.741 30.9521 158.489 30.8866C157.679 30.2851 156.577 27.468 155.97 26.416C155.789 26.1018 156.048 25.7208 156.198 25.4004Z" fill="var(--fill-0, #FAF7EF)"/>
<path id="Vector_12" d="M284.62 45.6378C288.136 45.2794 292.84 46.5753 295.662 48.4796C306.198 55.588 303.097 72.4813 291.399 76.5159C289.735 77.0899 288.239 77.3698 286.575 77.7176C282.068 78.7903 277.767 77.6459 274.248 74.6894C271.224 72.1533 269.347 68.507 269.039 64.5712C268.191 54.6355 274.48 46.4499 284.62 45.6378Z" fill="var(--fill-0, #3D4143)"/>
<path id="Vector_13" d="M296.351 56.2295C297.515 57.279 297.715 60.3715 297.708 61.8893C289.432 62.4749 285.244 67.2255 282.048 74.3205C280.307 74.1898 279.788 74.0674 278.229 73.2898C277.094 72.5551 276.624 72.213 275.627 71.2963C277.907 67.2202 285.987 61.3662 290.09 59.155C292.073 58.0865 294.254 57.114 296.351 56.2295Z" fill="var(--fill-0, #FAF7EF)"/>
<path id="Vector_14" d="M288.694 49.4362C289.236 49.9074 290.154 50.3471 290.814 50.6953C292.403 51.5332 293.149 52.1009 294.418 53.3391C287.381 56.018 281.044 60.5227 275.68 65.7568C274.86 66.6099 274.241 67.3638 273.496 68.2777C272.541 65.9948 272.415 64.7195 272.389 62.313C280.054 61.9929 285.678 56.0046 288.694 49.4362Z" fill="var(--fill-0, #FAF7EF)"/>
<path id="Vector_15" d="M284.777 49.0767L284.884 49.1275C284.907 49.5906 284.7 49.8683 284.432 50.3059C281.405 55.2637 278.756 57.3669 273.263 58.8454L273.121 58.6241C273.263 57.2174 274.678 54.5444 275.577 53.4918C278.005 50.6437 281.191 49.4321 284.777 49.0767Z" fill="var(--fill-0, #FAF7EF)"/>
<path id="Vector_16" d="M295.742 65.5332L296.312 65.541C296.575 66.4755 294.697 68.4748 294.052 69.2155C291.965 71.6075 289.689 73.0235 286.731 74.1007L286.253 74.1215L286.078 73.9293C286.197 72.8999 287.52 71.2826 288.207 70.4475C290.283 67.9263 292.515 66.273 295.742 65.5332Z" fill="var(--fill-0, #FAF7EF)"/>
<path id="Vector_17" d="M257.731 64.0646C258.974 63.9002 260.303 63.92 260.497 65.6922C260.532 66.0013 260.179 66.6703 259.898 66.8162C257.912 67.8446 255.469 68.0645 253.425 69.1038C250.05 70.4724 248.209 72.6199 245.149 73.8678C243.938 74.3619 240.722 73.0857 239.251 72.881C234.418 72.2083 228.284 72.8576 223.697 74.4736C221.653 75.2151 219.695 76.1779 217.86 77.345C215.809 78.6463 211.48 82.6637 209.666 82.6327C206.39 82.194 203.054 79.8871 199.917 78.727C188.896 74.6522 179.788 76.1127 170.737 83.7511C170.274 84.0091 169.683 84.2457 169.172 84.0256C164.634 82.0719 174.34 76.8445 175.91 76.0592C184.109 71.9898 193.629 72.365 201.962 75.8274C204.465 76.8674 207.032 78.4028 209.519 79.2523C210.249 78.8466 211.869 77.5074 212.574 76.9267C214.306 75.4989 215.502 74.6686 217.473 73.5772C225.665 69.0261 235.342 67.9621 244.326 70.6246C249.687 67.0664 251.243 65.7536 257.731 64.0646Z" fill="var(--fill-0, #3D4143)"/>
</g>
</svg>
